<svg id="Livello_1" data-name="Livello 1" xmlns="http://www.w3.org/2000/svg" viewBox="0 0 708 472"><defs><style>.cls-1{fill:#f0bf20;}.cls-2{fill:#fff;}</style></defs><title>js-logo</title><rect class="cls-1" width="708" height="472"/><path class="cls-2" d="M358.75169,136.25H270.61395l16.51741,179.19567L358.75169,335.75l71.59441-20.30433L446.88942,136.25Zm57.99613,167.88407-57.99613,16.44061-57.99613-16.44061-14.124-153.28683H430.87182Z" transform="translate(0)"/><polygon class="cls-2" points="404.893 172.836 315.688 172.836 309.489 239.932 309.62 239.511 385.395 239.511 382.922 267.891 358.752 274.86 334.211 267.787 332.739 250.611 310.461 250.611 313.644 284.934 358.752 297.744 403.859 284.934 410.067 217.576 329.662 217.576 330.686 195.114 386.495 195.114 387.316 207.969 409.794 207.969 404.893 172.836"/><path class="cls-2" d="M358.75163,172.83572H315.68818l-6.19967,67.09605.13141-.421h49.13171v-21.9352H332.76351l1.02473-22.46172h24.96339Zm-26.01269,77.77511H310.46087l3.18319,34.3236,45.10757,12.78187V274.86024l-24.54024-7.07371Z" transform="translate(0)"/></svg>