<?xml version="1.0" encoding="utf-8"?>
<!-- Generator: Adobe Illustrator 17.0.0, SVG Export Plug-In . SVG Version: 6.00 Build 0)  -->
<!DOCTYPE svg PUBLIC "-//W3C//DTD SVG 1.1//EN" "http://www.w3.org/Graphics/SVG/1.1/DTD/svg11.dtd">
<svg version="1.1" id="Livello_1" xmlns="http://www.w3.org/2000/svg" xmlns:xlink="http://www.w3.org/1999/xlink" x="0px" y="0px"
	 width="347.66px" height="86.229px" viewBox="-52.875 -13.114 347.66 86.229"
	 enable-background="new -52.875 -13.114 347.66 86.229" xml:space="preserve">
<g>
	<g transform="translate(-985.904 -3367.887)">
		<g>
			<path fill="none" d="M1249.415,3902.277l-12.117,19.772c-0.681,1.11-0.172,2.019,1.131,2.019h14.209
				c1.302,0,2.929-0.906,3.615-2.013l6.416-10.365L1249.415,3902.277z"/>
			<path fill="none" d="M1267.028,3883.49l-10.774-17.406c-0.686-1.107-2.312-2.014-3.615-2.014h-14.21
				c-1.303,0-1.811,0.909-1.13,2.019l13.796,22.511l7.755-10.919L1267.028,3883.49L1267.028,3883.49z"/>
		</g>
		
			<linearGradient id="SVGID_1_" gradientUnits="userSpaceOnUse" x1="3460.1777" y1="3943.3633" x2="3475.6653" y2="3953.0413" gradientTransform="matrix(1 0 0 1 -2216.1589 -36.183)">
			<stop  offset="0.54" style="stop-color:#0A985C"/>
			<stop  offset="0.54" style="stop-color:#F6C25B"/>
		</linearGradient>
		<path fill="url(#SVGID_1_)" d="M1261.928,3907.385c-1.179-1.983-4.039-7.077-6.177-10.872l-2.412-4.248
			c0.555,1.118,0.515,2.779-0.122,3.819l-15.911,25.963c-0.68,1.109-0.172,2.02,1.132,2.02h14.207c1.303,0,2.93-0.907,3.615-2.014
			l6.427-10.378C1262.55,3911.863,1263.446,3909.935,1261.928,3907.385z"/>
		<g>
			<path fill="none" d="M1249.422,3902.275l-12.116,19.773c-0.68,1.109-0.171,2.02,1.132,2.02h14.208
				c1.303,0,2.929-0.907,3.615-2.014l6.419-10.366L1249.422,3902.275L1249.422,3902.275z"/>
			<path fill="none" d="M1267.036,3883.487l-10.776-17.406c-0.683-1.108-2.311-2.013-3.613-2.013h-14.209
				c-1.304,0-1.812,0.909-1.132,2.02l13.797,22.513l7.757-10.921L1267.036,3883.487z"/>
			<path opacity="0.09" fill="#010101" enable-background="new    " d="M1272.339,3896.083c0.688-1.108,0.688-2.922,0.002-4.03
				l-5.304-8.567l-8.177-5.808l-7.757,10.921l2.114,3.448c0.681,1.11,0.681,2.928,0,4.038l-3.795,6.19l13.257,9.413
				L1272.339,3896.083z"/>
		</g>
		
			<linearGradient id="SVGID_2_" gradientUnits="userSpaceOnUse" x1="3464.6455" y1="3925.1726" x2="3480.5293" y2="3915.2471" gradientTransform="matrix(1 0 0 1 -2216.1589 -36.183)">
			<stop  offset="0.57" style="stop-color:#5586C5"/>
			<stop  offset="0.57" style="stop-color:#D9423E"/>
		</linearGradient>
		<path fill="url(#SVGID_2_)" d="M1272.336,3892.058l-16.076-25.973c-0.685-1.108-2.313-2.014-3.615-2.014h-14.212
			c-1.302,0-1.81,0.908-1.13,2.02l15.911,25.961l2.536,4.462c2.138,3.794,4.998,8.888,6.177,10.872
			c1.775,2.985,0.247,5.115,0.935,4.006l9.474-15.304C1273.022,3894.979,1273.022,3893.168,1272.336,3892.058L1272.336,3892.058z
			 M1253.233,3892.082l0.057,0.094l0.004,0.007L1253.233,3892.082z M1254.367,3894.061l0.168,0.296L1254.367,3894.061z
			 M1254.353,3894.025l0.271,0.479L1254.353,3894.025z"/>
		<g enable-background="new    ">
			<path fill="#4E4E4E" d="M1306.167,3890.121h14.065v17.564c-3.819,1.308-8.017,1.961-12.594,1.961
				c-5.023,0-8.905-1.456-11.646-4.368s-4.112-7.066-4.112-12.46c0-5.261,1.5-9.354,4.502-12.282
				c3.001-2.927,7.207-4.391,12.616-4.391c2.051,0,3.986,0.193,5.807,0.58s3.407,0.877,4.759,1.471l-2.786,6.91
				c-2.348-1.159-4.926-1.739-7.734-1.739c-2.571,0-4.559,0.836-5.963,2.508c-1.404,1.671-2.106,4.061-2.106,7.166
				c0,3.047,0.635,5.368,1.906,6.966s3.102,2.396,5.494,2.396c1.308,0,2.511-0.126,3.611-0.379v-5.104h-5.817v-6.799H1306.167z
				 M1351.843,3892.217c0,5.439-1.498,9.629-4.492,12.572s-7.203,4.413-12.627,4.413h-10.543v-32.588h11.278
				c5.23,0,9.27,1.337,12.115,4.012S1351.843,3887.164,1351.843,3892.217L1351.843,3892.217z M1342.703,3892.529
				c0-2.987-0.59-5.201-1.771-6.642s-2.976-2.162-5.383-2.162h-2.563v18.255h1.961c2.675,0,4.637-0.776,5.885-2.329
				S1342.703,3895.724,1342.703,3892.529L1342.703,3892.529z M1368.074,3890.121h14.064v17.564
				c-3.819,1.308-8.018,1.961-12.594,1.961c-5.022,0-8.904-1.456-11.646-4.368c-2.741-2.912-4.112-7.066-4.112-12.46
				c0-5.261,1.501-9.354,4.503-12.282c3.001-2.927,7.207-4.391,12.615-4.391c2.051,0,3.986,0.193,5.807,0.58
				s3.406,0.877,4.759,1.471l-2.786,6.91c-2.348-1.159-4.926-1.739-7.734-1.739c-2.571,0-4.559,0.836-5.963,2.508
				c-1.403,1.671-2.105,4.061-2.105,7.166c0,3.047,0.635,5.368,1.905,6.966s3.102,2.396,5.494,2.396
				c1.308,0,2.511-0.126,3.611-0.379v-5.104h-5.817L1368.074,3890.121L1368.074,3890.121z"/>
		</g>
		<g enable-background="new    ">
			<path fill="#4E4E4E" d="M1404.968,3909.201v-32.588h5.327v28.019h13.798v4.569L1404.968,3909.201L1404.968,3909.201z
				 M1432.077,3909.201l-9.361-24.652h5.528l5.015,14.332c0.861,2.407,1.382,4.354,1.561,5.84h0.178
				c0.134-1.069,0.654-3.017,1.561-5.84l5.016-14.332h5.572l-9.406,24.652H1432.077L1432.077,3909.201z M1447.883,3878.018
				c0-0.936,0.256-1.657,0.769-2.162c0.513-0.505,1.245-0.758,2.196-0.758c0.921,0,1.638,0.253,2.15,0.758
				c0.513,0.505,0.77,1.226,0.77,2.162c0,0.892-0.257,1.594-0.77,2.106s-1.229,0.769-2.15,0.769c-0.951,0-1.684-0.256-2.196-0.769
				S1447.883,3878.909,1447.883,3878.018z M1453.433,3909.201h-5.237v-24.652h5.237V3909.201z M1463.846,3909.201l-9.361-24.652
				h5.528l5.015,14.332c0.861,2.407,1.382,4.354,1.561,5.84h0.178c0.134-1.069,0.654-3.017,1.561-5.84l5.016-14.332h5.572
				l-9.406,24.652H1463.846L1463.846,3909.201z"/>
		</g>
	</g>
</g>
<g>
	<g>
		<g>
			<defs>
				<path id="SVGID_23_" d="M294.109,27.278L277.826,0.155c-0.9-1.497-3.069-2.727-4.82-2.727h-0.055L-50.941-2.568
					c-1.627,0-2.279,1.074-1.646,2.427l16.397,27.411c0.9,1.505,0.9,3.956,0,5.454l-16.291,27.121
					c-0.9,1.497-0.204,2.727,1.54,2.727l323.947-0.004c1.751,0,3.919-1.222,4.82-2.725l16.284-27.113
					C295.011,31.227,295.011,28.775,294.109,27.278z"/>
			</defs>
			<use xlink:href="#SVGID_23_"  overflow="visible" fill="#F6F5F5"/>
			<clipPath id="SVGID_3_">
				<use xlink:href="#SVGID_23_"  overflow="visible"/>
			</clipPath>
			<g clip-path="url(#SVGID_3_)">
				<path fill-rule="evenodd" clip-rule="evenodd" fill="#EBEBEC" d="M270.705,118.512c-1.021,0.95-1.462,3.567-0.34,4.747
					c2.573,0.096,3.493-1.482,3.391-4.06C272.784,118.909,271.655,118.789,270.705,118.512z M304.911,114.118h-0.674
					c0.19,3.337-2.452,3.883-1.7,7.785h-3.045c-0.99,1.052-1.81,2.383-3.04,3.385c-2.222,1.815-6.387,2.459-5.09,6.44
					c3.475,1.584,4.519-2.442,5.754-3.721c0.165-0.162,0.857-0.23,1.026-0.339c0.551-0.372,0.756-0.812,1.005-1.361
					c0.047-0.097,0.596-0.235,0.685-0.336c0.919-1.107,1.679-2.09,2.371-3.055c1.291-0.139,2.444-0.989,3.048-1.691
					c0.354-0.397,0.39-0.994,0.676-1.346c1.082-1.319,1.747-1.26,1.699-2.383C307.54,115.927,305.69,115.681,304.911,114.118z
					 M170.444,77.87c-1.037,0.73-1.235,1.842-2.371,2.706c-0.602,0.463-1.571,0.339-2.036,0.684
					c-1.619,1.155-0.968,2.536-1.357,4.737c-0.164,0.91-0.917,1.622-1.005,2.701c-0.164,1.621-0.03,2.508,1.005,3.74
					c3.692,0.753,4.529-3.338,5.421-5.758c0.996-2.715,2.719-6.372,1.359-8.811H170.444z M281.881,90.399
					c-0.316-0.564-0.35-1.565-0.677-2.029c-0.741-1.047-1.795-1.491-2.375-2.718c-1.043-2.163-0.937-4.614-2.028-5.749
					c-0.779-0.808-0.745-2.26-2.033-2.374c-1.956,1.099-0.713,5.397-2.714,6.438c-2.108-0.38-3.627-1.34-4.397-3.052
					c0.295-0.826,0.789-1.464,0.665-2.701c-1.927-0.969-3.942-1.68-5.754-1.017c-1.766,0.634-1.862,3.066-3.731,3.38
					c-0.739-0.268-1.307-0.722-2.362-0.674c-1.701,1.127-2.565,3.08-4.747,3.721c-1.084,5.233-7.864,2.785-10.157,6.437
					c-0.838,1.327-1.047,3.806-1.019,5.421c0.046,2.287,1.167,4.575,1.019,7.12c-0.075,1.164-1.066,2.315-0.676,3.718
					c0.483,0.198,0.824,0.526,1.016,1.019c1.716,0.592,3.197-1.047,5.068-1.362c0.77-0.12,1.831,0.268,2.725,0
					c1.015-0.319,1.794-1.334,2.698-1.686c0.845-0.323,2.103-0.51,3.056-0.682c4.16-0.749,6.179,0,7.108,3.385
					c1.531,0.728,2.653,1.597,3.378,3.062c0.571,1.098,0.449,2.201,1.038,3.375c1.301,1.508,4.338,1.305,6.428,2.035
					c0.824-0.97,2.553-1.067,3.73-1.691c1.066-1.056,0.959-2.419,1.688-3.72c0.08-0.134,0.573-0.2,0.683-0.344
					c0.192-0.268,0.183-0.779,0.328-1.016c0.378-0.569,0.7-1.233,1.023-1.702c0.756-1.069,1.84-1.695,2.365-2.702
					c0.189-0.349,0.265-1.117,0.34-1.356c0.449-1.321,1.219-3.038,1.366-4.396c0.415-3.856-1.043-5.149-2.38-7.461
					C282.384,90.772,282.012,90.628,281.881,90.399z M274.425,66.684c-1.687-0.592-3.408-1.131-4.741-1.002
					c-0.887,0.067-1.691,0.836-2.7,0.665c-0.664-0.592-0.978-1.524-1.697-2.024c-0.907,0-1.949-0.134-2.373,0.343
					c0.324,1.432,0.69,2.568,1.69,3.385c0.385,0.311,1.176,0.124,1.688,0.327c0.54,0.228,0.92,0.81,1.366,1.025
					c0.619,0.306,1.185,0.033,1.688,0.334c1.106,0.664,0.96,2.11,1.359,3.401c1.652,0.386,2.62,1.543,4.394,1.34
					c1.235-0.128,1.703-1.508,3.052-1.34c1.79,0.573,1.933,2.794,4.754,2.36c0.53-1.653-2.268-2.627-2.041-5.079
					C278.891,68.968,277.17,67.674,274.425,66.684z M250.037,64.322c-1.249,0.948-1.317,3.686-0.332,5.079h3.379
					c0.352-1.066-0.211-2.835,0-4.737C252.537,64.087,251.093,64.387,250.037,64.322z M245.976,56.189
					c-2.322,2.31-4.53,4.737-7.784,6.094c-1.144,4.15,3.452,6.79,7.439,5.767c0.735-1.761,2.366-3.728,2.717-5.44
					c0.173-0.849-0.407-1.723-0.346-2.693c0.07-1.093,1.002-1.584,0.679-2.718C247.904,56.747,247.558,55.845,245.976,56.189z
					 M243.26,73.466c0.122-1.428-1.453-2.244-2.364-2.365c-0.959-0.143-1.816,0.512-2.705,0.346
					c-0.483-0.12-1.331-0.535-1.702-0.698c-0.615-0.244-1.535-0.312-1.688-1.014c0.009-1.113,0.57-1.686,0.331-3.052
					c-1.198-1.119-1.84-1.405-2.366-2.702c-0.693-1.681-0.367-5.223-1.011-6.428c-0.587-1.098-2.336-1.499-3.057-2.382
					c-0.384-0.459-0.465-1.367-0.674-1.69c-0.413-0.656-0.627-0.627-1.019-1.348c-0.087-0.276-0.282-0.41-0.675-0.339
					c-1.566,3.309,3.265,4.48,1.693,7.795c-1.756-0.392-2.099-2.207-4.405-2.036c-0.725,1.759,1.459,2.775,2.372,4.055
					c0.104,0.152-0.087,0.512,0,0.674c0.038,0.115,0.589,0.218,0.671,0.328c0.105,0.163-0.075,0.527,0,0.694
					c0.061,0.119,0.601,0.201,0.676,0.344c0.515,0.883,0.959,2.641,1.36,3.036c1.136,1.191,2.62,2.681,3.73,3.392
					c0.434,0.294,1.204,0.333,1.7,0.673c0.901,0.667,1.185,1.7,2.028,2.032c0.383,0.157,1.474-0.17,2.364,0
					c0.622,0.13,1.181,0.627,1.693,0.685C241.311,73.59,242.17,73.368,243.26,73.466z M251.394,41.962
					c-3.635-0.12-1.726,5.582-0.679,6.782c0.976,0.027,2.218-0.192,2.72,0.32c-1.312,1.16-0.178,2.88,0,4.078
					c0.131,0.954-0.125,1.828,0,2.03c0.38,0.743,2.167,1.842,2.699,1.699c2.069-0.525,1.486-3.971-0.343-5.075
					c0.055-0.84,0.055-1.648-0.333-2.04c-1.092-1.173-2.76-1.885-3.38-3.729C251.631,44.745,252.591,43.103,251.394,41.962z
					 M36.974,42.64c1.331,0.969,3.608,0.655,4.403-0.678C40.982,40.318,36.431,39.714,36.974,42.64z M34.943,40.607
					c-0.331-1.815-2.202-2.087-4.061-2.359v0.242c-0.46-0.19-0.904-0.394-1.348-0.541v-0.389c0.046-0.56-2.09-0.56-2.032,0
					c0.701,0.189,0.957,0.845,2.032,0.688v-0.282l1.348,0.533v0.411C31.537,40.068,33.1,41.753,34.943,40.607z M249.013,33.83
					c-0.485,0.491-0.485,2.23,0,2.712c1.445-0.044,1.498-1.664,1.024-2.712H249.013z M130.818,20.282
					c1.148,0.147,1.915-0.105,1.68-1.353C131.512,18.963,130.59,19.05,130.818,20.282z M125.38,15.2
					c-0.504,0.516-0.593,2.322,0.678,2.035C126.585,16.718,126.668,14.909,125.38,15.2z M263.594,15.2
					c-0.617,0.761-0.993,1.559-1.707,2.035c-1.758,0.731-3.922,1.876-4.398,3.73c-0.341,1.336-0.827,2.903,1.349,3.39
					c0.825-0.65,0.618-2.326,1.701-2.711c1.443-0.327,2.585-1.113,3.73-1.697c1.319-0.671,2.545-1.212,3.725-2.033
					c-0.212-3.859,1.014-9.136-2.706-9.489c-0.483,1.625,0.404,3.314,0,4.746C265.029,14.036,264.082,14.585,263.594,15.2z
					 M264.941,7.409c2.043-0.774,4.329-1.31,4.743-3.721c-1.465-0.675-2.759-1.528-4.743-1.69
					C265.035,3.941,263.453,6.108,264.941,7.409z M263.919-2.075c-0.048,0.739,0.281,1.072,1.022,1.026
					C264.998-1.788,264.663-2.135,263.919-2.075z M103.385-24.427c-2.579-0.633-5.983-0.018-8.15,0
					c-0.389,1.944,0.145,4.456,2.032,5.083C100.362-18.308,105.374-21.556,103.385-24.427z M164.681-36.284
					c-0.389-2.162-1.88-2.692-2.033-4.736c-0.058-0.731,0.467-1.461,0.674-2.368c0.23-1.028,0.037-1.997,0.353-2.719
					c0.095-0.244,0.759-0.629,1.006-1.017c0.334-0.553,0.397-1.328,0.665-1.689c1.251-1.615,3.711-2.45,3.73-4.395
					c-0.284-0.729-0.825-1.206-2.03-1.035c-0.543,0.85-1.008,1.328-2.031,2.039c-1.754,1.231-2.573,1.18-3.723,3.046
					c-1.138,1.844-1.009,3.264-1.357,6.109c-0.218,1.805-0.825,3.873-0.673,4.391C159.745-37.032,162.51-35.56,164.681-36.284z
					 M76.61,68.714c-0.936-0.692-2.107-1.792-2.707-2.03c-1.535-0.587-3.521-0.195-5.089-0.667c-0.703-0.225-1.292-1.036-2.02-1.35
					c-0.903-0.403-1.764-0.134-2.376-0.344c-2.145-0.765-1.955-2.087-2.711-3.729c-0.364-0.789-0.875-1.884-1.362-2.374
					c-0.119-0.134-1.45-1.08-2.03-1.348c-1.171-0.535-1.981-0.189-3.386-0.343c-1.456-0.147-3.109-2.423-4.054-3.047
					c-0.836-0.554-1.55-1.838-2.03-2.035c-1.646-0.63-4.055,0.23-5.424,0c-1.518-0.249-2.002-1.183-3.054-1.354
					c-2.66-0.447-4.473,0.103-5.424,0.671c-0.966,0.604-1.398,1.828-3.038,2.378c-0.57,0.188-1.309-0.214-1.701,0.34l-0.263,0.259
					c-0.163-0.04-0.331-0.055-0.502-0.01l-0.249-0.249c-2.427-0.355-3.654-1.028-4.063-3.047c-0.258-1.293,1.103-2.757,0.344-4.064
					c-0.694-1.462-3.827-0.484-4.75-1.699c-0.804-1.801,1.537-3.13,1.028-5.761c-3.512-1.41-3.512,1.753-5.09,2.713
					c-3.767,2.297-6.655-1.366-6.096-5.748c0.096-0.826,1.189-4.876,1.349-5.087c0.569-0.754,3.51-1.997,4.076-2.039
					c0.909-0.035,1.974,0.816,3.036,0.682c0.904-0.33,1.557-1.174,2.725-1.355c1.821-0.277,3.948,0.615,5.07,1.355
					c0.369,1.997,0.369,4.381,2.718,4.399c1.878-2.235-0.86-4.378,0-7.11c0.176-0.582,0.812-0.902,1.347-1.357
					c1.117-0.944,1.984-1.599,3.056-2.368c0.663-0.483,1.453-0.693,1.678-1.021c0.77-1.076,0.496-2.622,1.023-3.726
					c0.324-0.674,1.151-1.307,1.693-2.038c1.404-1.824,2.04-2.593,4.395-3.037c0.626-1.939,1.493-3.901,3.73-4.064
					c1.131-0.086,1.709,0.57,3.058,0.684c1.547-1.056,4.052-1.148,4.725-3.048c-1.728-0.319-2.521-0.344-3.368-1.699
					c-0.274-0.429,0.178-1.578,0-2.373c-0.238-1.001-1.844-1.089-0.685-1.692c1.729,0.381,2.631,0.741,4.053,0.33
					c1.189-0.319,2.869-1.289,3.743-0.679c-0.257,1.451-1.586,1.82-1.359,3.736c1.585,0.772,3.265,1.474,5.756,1.36
					c1.149-2.516-1.345-3.683-2.036-5.439c0.97-2.154,0.773-3.951,0-5.068c-0.234-0.343-0.483-1.131-0.671-1.362
					c-0.807-0.92-2.098-1.145-2.703-2.356c-0.628-1.26-0.437-2.672-0.687-3.736c-0.248-1.111-0.417-2.077-1.018-3.39
					c-2.399-0.378-1.785,2.287-4.391,1.7c-0.96-1.033-0.506-2.164-0.353-3.73c-1.608-2.101-3.68-5.231-7.444-4.068
					c-0.918,1.219-0.265,2.636-0.674,4.068c-0.302,1.071-1.253,1.875-1.354,3.056c-0.117,1.164,0.712,2.603,0.328,3.721
					c-0.474,1.441-2.845,1.733-3.72,3.38c-1.018,1.909,0.669,3.008-1.357,4.402c-1.871-0.366-0.452-4.054-1.357-5.404
					c-0.331-0.632-1.119-0.387-1.69-0.684c-1.654-0.871-2.998-2.812-4.403-3.733c-0.231-0.153-0.45-0.203-0.677-0.346
					c-1.319-0.768-1.575-1.298-2.03-2.697c-1.183-3.615,1.571-5.287,3.721-7.115c1.678-1.419,3.406-3.08,5.753-3.038
					c0.912,0.322,0.845,1.639,1.699,2.031c1.632-0.498,2.687-0.646,4.062-0.693c0.3-2.198-2.02-3.255-1.348-4.728
					c2.072-0.996,3.438-1.689,4.058-3.734c0.48-1.537,1.136-3.071,2.04-4.064c2.316-0.406,2.923,0.91,3.39,2.369
					c-0.02,1.463-1.795,1.145-1.369,3.066c1.5,0.434,2.452-1.603,3.056,0c-0.227,2.363-2.118,3.075-3.378,4.394
					c-1.341,0.029-2.983-0.263-2.714,1.358c-0.144,1.82,2.838,0.541,3.73,1.338c0.725,0.768,0.784,2.525,1.677,3.394
					c0.639,0.609,2.317,1.39,3.057,1.347c0.627-0.017,2.423-1.079,2.705-1.347c1.527-1.375,0.182-3.491-0.343-5.425
					c1.277-0.033,1.037,1.462,2.72,1.023c1.479-0.923,2.333-1.423,2.371-2.714c0.017-0.873-1.061-1.603-1.693-2.368
					c-0.775-0.921-1.599-1.502-1.695-2.373c0.133-1.337,0.75-2.01,0.671-3.048c-0.181-2.583-3.302-3.899-4.403-6.445
					c-0.465-1.095-0.731-2.135-0.665-3.71c-1.025-1.5-3.282-0.951-5.098-1.357c-0.683-0.163-1.207-0.541-1.69-0.684
					c-4.233-1.357-6.779,3.404-6.429,7.795c0.619,0.983,1.797,1.44,1.69,3.047c-0.065,0.987-0.984,2.438-2.362,2.372
					c-0.466-1.385-2.102-2.64-2.383-4.394c-0.068-0.504,0.305-1.464,0.342-2.042c0.095-1.454-0.217-3.029,0.342-4.406
					c1.833-1.217,5.407-0.705,4.746-4.408c-1.354-1.183-3.302-1.072-4.746,0c-1.562-2.472-3.306-1.249-4.747,0
					c-1.65,1.448-1.918,1.721-1.346,3.391c0.102,0.311,0.102,0.965,0.341,1.362c0.437,0.783,1.614,0.953,1.689,2.028
					c0.046,0.669-0.2,0.96-0.341,1.357c-0.652,1.916-1.603,1.916-3.389,2.715c-0.646,1.167-0.19,2.47-1.691,3.037
					c-1.653,0.616-4.138-0.498-4.064-2.377c2.519,0.052,4.463-1.307,4.74-3.042c0.105-0.62-0.47-0.813-0.677-1.346
					c-0.636-1.705-0.113-4.039,0.331-5.091c0.552-1.241,2.157-1.896,2.035-3.725c-2.139-1.326-3.362,1.528-5.414,1.348
					c-2.319-0.186-3.084-2.217-3.378-5.421c-2.179-1.723-4.556-2.626-6.115-1.002c-1.67,1.737-5.474,4.594-4.054,7.109
					c1.044,1.008,3.333-0.344,4.054,0.339c-0.543,1.286,0.239,2.682,0,3.725c-0.078,0.379-0.808,0.934-1.004,1.357
					c-0.327,0.665,0.075,1.921-1.024,1.7c-1.589-0.106-1.996-1.4-2.712-2.373c-2.371-0.339-3.888-1.528-5.078-3.057
					c-3.315-0.027-6.246,0.311-9.139,0.684c-0.714-0.655-1.292-1.423-1.702-2.374c-1.215-0.124-1.509-1.43-2.373-2.034
					c-0.695-0.482-2.049-0.711-3.048-1.346c-0.14-0.105-0.181-0.558-0.342-0.692c-0.273-0.212-0.752-0.144-1.016-0.336
					c-0.162-0.102-0.162-0.549-0.329-0.672c-0.314-0.235-0.749-0.095-1.016-0.339c-0.693-0.629-0.856-1.505-1.35-2.034
					c-0.779-0.807-1.234-1.06-2.371-1.347c-1.977-0.512-3.639,0.301-4.748,0.673c-0.646,0.219-1.522,0.104-2.033,0.335
					c-1.301,0.575-2.268,1.833-3.727,2.373c-1.188,0.434-2.557-0.239-3.384,1.011c-0.349,2.498,1.045,5.043,0,7.111
					c-1.119,0.134-1.657-1.317-3.056-1.346c-0.294-0.008-1.186,0.462-1.697,0.671c-2.084,0.877-1.967,2.192-1.683,4.409
					c0.607,1.32,3.418,0.419,3.719,2.031c-0.593,2.319-3.213,1.021-4.732,1.699c-0.25,0.105-0.818,0.873-1.361,1.344
					c-0.605,0.536-1.47,0.991-1.697,1.357c-0.587,0.999-1.118,3.229-1.008,4.064c0.191,1.537,2.367,1.938,2.025,4.408
					c0.864,0.616,2.324,0.616,2.368,2.023c-1.069,3.101-5.038,3.319-6.765,5.761c3.761,0.038,5.317-2.115,8.127-3.038
					c1.349-0.345,1.014,0.998,2.375,0.665c2.003-1.039,1.036-4.528,3.036-5.078c1.87,1.44,5.276,0.322,6.777-0.687
					c0.684,0.428,1.36,1.093,2.379,1.711c0.783,0.458,2.026,0.721,2.711,1.358c0.381,0.35,1.066,2.06,1.357,2.369
					c1.32,1.362,0.904,2.9,1.339,5.074c0.098,0.42,0.183,0.757,0.344,1.353c0.153,0.541,0.245,1.426,0.339,1.693
					c0.367,0.864,1.406,1.548,1.692,2.362c0.171,0.489-0.132,1.424,0,2.046c0.126,0.501,0.611,1.108,0.686,1.347
					c0.593,2.01-0.019,3.122-0.342,4.746c0.54,1.461,1.821,2.231,2.028,3.735c0.089,0.538-0.262,1.078-0.329,1.676
					c-0.23,2.024-0.308,2.241-0.673,3.4c-0.582,1.82-1.388,3.028-1.693,4.391c-0.464,2.027-0.434,5.592,0,7.121
					c0.334,1.246,0.724,3.23,1.01,4.076c0.69,1.99,2.305,2.012,3.388,3.718c0.492,0.782,0.48,2.136,1.015,3.391
					c0.665,1.513,2.313,2.458,1.689,4.742c1.5,1.096,1.737,3.45,3.732,4.068c0.322-1.577-1.312-2.96-0.355-4.068
					c1.272,0.348,1.235,1.695,1.7,2.357c0.211,0.293,0.821,0.402,1.026,0.693c0.228,0.297,0.109,0.687,0.333,1.018
					c0.665,0.951,1.787,1.478,2.032,2.701c0.132,0.631-0.342,1.963,0,2.71c0.859,1.889,6.579,4.779,8.809,5.089
					c1.014,0.134,2.434-0.307,3.38,0c0.893,0.267,1.624,1.689,3.067,2.364c1.291,0.619,3.227,0.472,4.054,1.002
					c1.548,1.028,1.802,2.947,2.715,3.735c0.522,0.471,1.321,0.654,2.03,1.021c1.878,0.969,2.773,1.815,4.409,0h0.329
					c0.733,1.417,1.946,2.459,1.701,4.741c-0.142,1.167-0.99,1.713-1.701,2.718c-0.522,0.725-1.677,1.705-2.033,2.702
					c-0.521,1.499,0.201,1.991,0,3.384c-0.144,0.97-0.816,1.69-0.677,2.369c0.184,0.918,1.902,2.446,2.709,3.731
					c0.913,1.461,1.811,3.443,2.373,4.403c0.504,0.873,0.991,2.292,1.357,2.706c1.957,2.24,5.087,2.309,6.096,5.077
					c1.359,3.753-0.143,10.978,0,14.575c0.06,1.25,0.425,2.525,0.34,3.721c-0.123,1.64-0.936,3.113-1.023,4.746
					c-0.018,0.617,0.268,1.442,0.351,2.374c0.085,1.083-0.151,2.356,0,3.38c0.115,0.92,0.61,1.469,0.672,2.383
					c0.182,3.123-0.607,6.447,0,9.139c0.261,1.162,1.186,2.351,1.69,3.392c0.6,1.188,1.068,2.334,1.701,3.381
					c2.327,0.797,4.691,4.128,7.785,2.028c0.265-1.164-0.586-1.815-1.016-2.374c-0.62-0.809-1.243-1.058-1.697-2.028
					c-0.298-0.636-0.752-1.537-0.665-2.702c0.082-1.591,1.801-2.718,1.69-4.408c-0.097-1.281-1.472-1.873-1.369-3.047
					c1.113-1.719,2.174-3.477,2.041-6.437c1.643-0.161,1.415-2.203,2.375-3.046c1.387-0.521,3.103-0.721,4.062-1.691
					c0.401-0.951,0.382-2.346,0.345-3.734c0.806-0.42,2.048-0.434,2.703-1.013c1.245-0.983,1.245-2.525,2.033-3.72
					c0.416-0.642,1.29-1.104,1.694-1.704c0.477-0.687,1.113-1.695,1.362-2.36c0.655-1.841-0.208-2.696,0.665-4.068
					c0.321-0.512,1.042-0.545,1.366-0.678c0.101-0.047,0.208-0.601,0.333-0.683c0.294-0.182,0.769-0.2,1.015-0.334
					c0.397-0.22,0.617-0.512,1.016-0.684c0.608-0.238,1.831-0.027,2.704-0.673c1.815-1.322,2.792-5.09,3.058-8.127
					c0.056-0.665-0.249-1.973,0-2.723c0.208-0.629,1.376-1.843,2.029-2.698c0.824-1.122,1.768-1.718,2.024-3.056
					C79.515,70.076,78.215,69.922,76.61,68.714z M128.093-48.813c2.224-0.148,1.27-3.466,3.05-4.076
					c0.443,0.914,0.73,1.984,2.371,1.703c1.274-2.28-2.106-2.557-2.03-4.746c1.839-0.531,3.779-0.951,3.729-3.384
					c-0.92-1.234-3.236-1.059-5.42-1.015c-0.918,0.66-1.547,1.619-2.704,2.034c-0.821,0.444-2.347,0.134-3.056,0.674
					c-1.093,2.651,1.204,4.282,2.364,5.754C126.443-50.317,127.222-49.514,128.093-48.813z M232.428-61.014
					c0.2-1.211-1.009-1.035-2.03-1.021C229.932-60.507,231.762-60.383,232.428-61.014z M174.505,35.516
					c-1.706-0.005-3.615-3.606-4.744-4.728c-0.389-0.501-0.389-0.859,0-1.357h1.008c1.135,2.363,3.852,3.148,6.446,4.054
					C176.304,34.712,175.609,35.539,174.505,35.516z M165.346,8.778c1.251-1.136,2.077-2.679,4.756-2.388
					c0.935,1.592-1.157,1.648-1.026,3.402c-0.035,1.312,1.453,1.967,2.034,3.047c0.391,0.702,0.391,1.68,0.682,2.362
					c0.618,1.495,2.185,2.862,1.349,4.399c-1.604,1.011-3.427-0.287-4.397-1.007C169.761,13.173,165.754,12.77,165.346,8.778z
					 M163.322,47.045c-0.813-0.011-1.423-0.203-2.031-0.675c-1.138-0.882-1.138-2.091-2.03-3.389
					c-0.372-0.521-1.148-0.941-1.349-1.357c-0.352-0.702-0.326-1.883-0.692-2.713c-0.41-0.926-1.188-1.493-1.693-2.368
					c-0.143-0.253,0.134-0.75,0-1.026c-0.227-0.457-1.747-1.386-1.345-3.038h1.016c0.693,0.807,0.968,1.72,1.689,2.719
					c0.565,0.787,1.615,1.442,2.03,2.364c0.23,0.513,0.047,1.188,0.344,1.689C160.733,41.713,163.934,43.791,163.322,47.045z
					 M147.401,27.393c-1.517-0.068-2.695-0.621-4.062-1.007c-1.422-0.416-3.123-1.143-3.729-1.023
					c-1.503,0.292-1.51,1.694-2.705,2.715c-1.301-0.153-2.473-0.489-3.393-1.357c-1.079-1.047-3.627-1.089-5.42-2.365
					c0.2-1.889-0.155-3.237-1.004-4.073c-2.842,0.157-5.081-0.058-7.461,0.339c-2.509,0.43-4.883,2.432-7.456,1.351
					c1.167-1.442,2.917-0.978,4.061-2.373c0.527-0.611,0.309-1.92,0.685-2.697c0.459-0.91,1.442-1.311,2.032-2.035
					c0.721-0.888,0.816-1.887,1.699-2.369c1.274-0.651,3.782-0.057,4.406-1.362c2.516,1.324,3.857,3.822,6.768,4.752
					c0.61,0.627,0.91,1.563,1.689,2.026c3.741-3.006-2.629-4.461-3.387-7.106c0.056-0.401,0.617-0.296,1.016-0.355
					c1.043,1.672,3.409,2.027,4.745,3.392c-0.007,0.795,0.578,1.007,0.333,2.043c1.188,0.53,1.986,4.666,3.73,4.733
					c2.862,0.105,1.341-2.504,1.691-4.411c0.892-0.031,1.188-0.507,1.699,0c0.315,0.342,0.123,1.326,0.335,1.704
					c0.258,0.425,0.424,0.85,0.692,1.362c0.512,1.016,0.946,1.122,1.69,2.027c3.491-0.539,5.289,1.162,8.127,0.341
					c0.57,1.967-0.364,4.028-1.36,5.412C150.821,26.642,149.359,27.499,147.401,27.393z M132.499-7.158
					c-0.113-2.276,0.704-3.238,1.357-5.407c0.046-1.512-1.38-2.052-1.357-3.394c0.028-1.935,1.578-2.742,3.047-3.729
					c0.282-1.405,0.256-3.128,1.36-3.728c0.552-0.087,0.586,0.324,1.011,0.343c0.383,2.53-1.737,2.548-2.371,4.064
					c-0.084,3.263,0.777,5.554,3.054,6.445c-0.177,3.061-2.931,4.28-1.694,7.786c-1,0.724-1.904-0.125-3.049,0
					c-1.672,0.187-3.444,2.006-4.747,0.34C129.499-6.092,131.693-5.93,132.499-7.158z M148.761,8.08
					c1.737-0.268,1.377,1.568,2.695,1.711c1.561,0.066,1.561-1.394,2.043-2.383h1.025c-0.19,3.694,3.817,3.188,4.738,5.763
					c-1.174,2.843-3.734,0.702-5.763,0.338c-2.305-0.416-4.052,0.77-6.768,1.019C144.764,12.689,146.585,8.822,148.761,8.08z
					 M148.419-25.107c1.12,0.352,2.773,0.171,3.728,0.68c0.023,1.827-2.127,1.491-3.728,1.693
					C147.934-23.185,147.934-24.639,148.419-25.107z M284.592-60.331c-1.76-1.012-3.245,0.301-4.413,0.334
					c-1.033,0.029-2.231-0.502-3.378-0.672c-0.779-0.114-1.52,0.085-2.377,0c-1.704-0.192-3.452-0.855-5.079-1.023
					c-2.66-0.247-3.821,0.871-5.751,1.023c-0.409,0.505-0.434,1.39-1.026,1.7c-1.32-0.258-2.097,0.95-3.045,1.347
					c-0.686,0.295-1.558,0.39-2.366,0.685c-0.758,0.249-1.359,0.928-2.382,0.659c-1.413-0.692-2.266-2.53-4.059-2.691
					c-1.693-0.154-3.139,1.624-4.74,1.689c-0.549,0.019-0.866-0.189-1.369-0.342c-0.464-0.156-1.384-0.197-1.678-0.34
					c-1.026-0.449-1.291-1.511-2.717-1.701c-1.028-0.115-1.955,0.54-3.044,0.694c-1.591,0.208-2.969-0.426-4.402,0.328
					c-0.871,1.046,0.096,2.418,0,3.726c-1.235,0.577-2.534,1.093-4.068,1.365c-1.059,0.391-0.96,1.963-2.367,2.019
					c-2.769-1.847-2.997-6.255-8.819-5.065c-0.62,0.95-0.62,2.521-2.023,2.697c-1.526,0.082-2.172-0.942-3.735-1.016
					c-1.807-0.087-4.06,1.747-5.756,0c0.456-5.177-3.284-8.648-7.785-6.777c-1.658-0.487-2.431-1.852-4.406-2.024
					c-0.038,0.526-0.864,0.262-0.674,1.016c-1.204,1.108,0.31,2.769,0,3.731c-0.514,1.532-1.794,1.708-3.721,2.032
					c-1.657,2.676-5.836,3.711-4.414,8.459c-0.682,0.659-2.231,0.482-2.375,1.694c-0.778,0.355-0.691,1.562-0.661,2.7
					c-1.532,0.639-2.34,1.985-4.076,2.383c-1.32-0.933-1.829-2.682-4.054-2.714c-0.323,1.386-1.108,4.756-1.024,6.094
					c0.087,1.395,1.637,2.612,0.681,3.731c-2.066-0.397-3.224-0.744-5.416-0.341c-0.202,0.596,0.403,1.985-0.342,2.04
					c-1.566,1.345-3.717,0.468-5.415,1.026c-0.133,0.024-0.52,0.577-0.691,0.666c-0.437,0.229-0.97,0.055-1.341,0.337
					c-1.07,0.788-1.214,2.536-2.723,2.709c-0.657-0.807-0.446-2.488-2.033-2.364c-1.387,0.664,0.902,3.796-1.345,4.055
					c-1.474-0.106-1.284-1.864-2.035-2.719c-2.639-1.404-5.334-2.788-8.808-3.375c-0.936-1.064-1.63-2.101-2.704-2.374
					c-3.178-0.787-5.526,1.32-6.779,2.04c-0.961,0.546-1.47,0.601-2.033,1.026c-0.692,0.503-1.273,0.946-1.698,1.347
					c-1.151,1.064-0.874,2.364-1.348,3.714c-0.2,0.569-1.014,1.213-1.359,2.031c-0.381,0.93-0.284,2.01-0.676,2.716
					c-0.063,0.11-0.577,0.224-0.684,0.335c-0.235,0.272-0.099,0.736-0.329,1.016c-1.744,2.179-3.7,2.488-5.08,4.409
					c0.108,2.711,0.286,5.353,1.683,6.775c2.192,0.496,2.297-1.109,4.064-1.012c0.474,0.655,0.329,1.929,0.693,2.701
					c-0.502-0.49-2.223-0.49-2.728,0c-0.768,1.44,0.199,2.594,0,4.408c-0.853,0.605-1.875,1.057-3.038,1.348
					c-0.898,0.911-1.356,2.269-2.714,2.707c-0.14-1.681-3.19-4.881-4.403-7.444c-0.342-0.751,0.059-1.73-0.334-2.369
					c-0.657-1.094-2.219-1.175-3.056-0.686c-0.948,0.642-0.627,2.525-0.674,4.072c-2.327,0.711-4.395,3.113-3.392,6.085
					c1.967,0.399,2.471-0.683,3.735-1.008c0.484-1.089,0.144-3.008,1.688-3.046c0.658,1.4-1.188,4.092,0,6.097
					c1.142,0.216,3.153-0.429,3.733,0.342c-0.648,1.158-2.284,1.349-3.391,2.032c0.067,2.243,3.275,2.78,2.707,5.087
					c-0.771,3.227-4.775,0.519-7.446,2.024c-0.845,0.684-0.188,1.902-0.341,3.053c-0.244,1.852-1.11,3.393-0.343,4.732
					c1.161,1.307,2.815,0.721,3.05,2.373c0.267,1.82-1.843,2.248-3.392,4.073c-0.711,0.845-0.793,3.406-1.002,3.721
					c-0.685,1.021-2.401,1.527-3.387,2.373c-1.17,0.989-1.93,2.341-2.707,3.735c-0.516,0.892-1.248,2.133-1.368,3.036
					c-0.19,1.434,0.483,3.691,0.341,5.424c-0.057,0.604-0.596,1.191-0.662,1.693c-0.618,3.659,1.552,4.274,3.035,6.107
					c0.552,0.682,0.619,1.07,1.02,1.686c0.788,1.199,1.312,1.61,2.37,2.369c1.007,0.72,1.416,1.175,2.362,1.709
					c2.299,1.241,2.754,0.006,5.423,0c0.948-0.014,1.967,0.435,2.717,0.321c0.732-0.097,1.511-0.741,2.37-1.018
					c3.372-1.087,3.954-0.463,6.099,1.702c1.526-0.058,3.018-0.078,3.385,1.016c0.856,1.625-0.772,3.409-0.347,5.42
					c0.378,1.691,2.249,2.601,3.055,4.064c0.434,0.789,1.086,2.183,1.368,3.38c0.205,1.012,0.502,3.037,0.323,4.068
					c-0.124,0.785-1.066,1.132-1.349,1.686c-0.189,0.373-0.264,1.117-0.342,1.367c-0.861,2.788,0.104,4.741,1.016,6.778
					c0.436,0.988,1.109,1.976,1.356,3.046c0.312,1.37,0.144,2.574,0.333,3.719c0.332,1.892,2.097,3.282,2.717,5.092
					c0.598,1.751-0.029,3.768,1.699,5.071c2.439-0.353,5.137-0.277,7.102-0.674c0.409-0.09,2.324-0.98,2.382-1.021
					c0.97-0.928,1.862-1.624,3.049-3.047c1.557-1.848,2.999-3.587,3.378-6.09c1.218-1.112,2.242-0.916,2.716-2.378
					c0.423-1.327-0.464-3.183,0-4.401c0.796-2.087,4.746-2.761,5.75-4.399c0.993-1.58,0.829-5.537,0.343-6.771
					c-0.398-1.002-0.911-2.063-1.008-3.061c-0.187-1.689,0.352-2.769,0.665-3.39c0.76-1.481,0.944-1.879,2.034-3.038
					c0.798-0.844,1.746-1.957,2.364-2.373c1.965-1.305,4.288-3.306,5.099-5.068c0.05-0.139,0.596-0.209,0.665-0.343
					c1.054-1.866,2.106-4.178,2.38-6.446c-2.097-2.221-7.28,2.325-8.475-1.017c0.608-1.061,2.289-1.139,3.728-1.687
					c1.522-0.592,3.551-1.35,4.747-2.034c0.336-0.201,0.421-0.52,0.664-0.673c1.323-0.831,2.606-0.97,3.734-1.7
					c0.177-0.115,0.473-0.526,0.676-0.683c1.033-0.836,1.632-1.472,2.373-2.707c0.625-1.033,1.157-1.873,1.028-2.709
					c-0.335-2.073-2.736-1.156-3.061-3.721c3.455,0.57,6.058,0.641,9.827,0.335c1.765,1.51,3.672,2.885,4.735,5.081
					c1.258,0.109,2.329,0.387,3.059,1.014c0.124,3.016,1.585,5.09,2.374,6.779c0.218,0.494,0.14,0.849,0.329,1.357
					c0.173,0.43,0.516,0.665,0.676,1.012c0.767,1.575,1.328,3.09,2.378,4.398c1.26,0.247,1.457-0.578,2.713-0.334
					c-0.038,1.619,0.416,2.746,1.697,3.052c0.495-0.314,1.653-1.699,0.664-2.368c0.189-1.543-1.802-0.907-1.69-2.369
					c-0.34-1.198,0.334-3.371,0.334-3.73c0-0.113-0.399-0.745-0.334-1.358c0.152-1.229,3.031-3.713,4.064-4.738
					c2.461-2.461,3.658-4.132,7.122-4.058c1.86,1.846,3.522,3.915,4.395,6.755c1.026,0.484,1.22-0.152,2.713,0
					c1.11,1.718,1.86,3.773,2.373,6.104c1.308-0.144,0.933-2.011,2.705-1.699c3.223,1.12,2.292,3.758,5.092,3.732
					c0.979-0.015,2.012-1.359,2.362-1.695c0.902-0.841,1.578-1.413,1.702-2.382c0.122-1.026-0.777-3.465-1.023-3.71
					c-0.146-0.156-0.193-0.545-0.346-0.683c-0.607-0.599-1.528-0.771-2.021-1.357c-1.749-2.045-0.686-4.747,2.021-4.404
					c0.994,0.741-1.1,3.071,1.028,3.052c1.489-0.089,0.649-2.503,1.343-3.381c2.728-1.164,5.175-1.782,6.782-3.385
					c1.545-1.556,1.526-2.145,2.372-4.408c0.79-2.097,1.138-2.731,0.666-4.742c-0.133-0.614-0.178-1.685-0.333-2.043
					c-0.287-0.751-1.298-1.472-1.7-2.03c-0.31-0.443-0.474-1.066-0.666-1.351c-0.528-0.758-0.653-0.397-0.683-1.345
					c-0.028-1.362,2.353-2.471,1.35-3.388c-1.397-0.98-3.353,0.669-4.052-1.02c0-1.695,1.073-2.313,2.03-3.053
					c1.093,1.233,1.892,1.432,4.054,1.023c0.758,1.613,2.174,2.782,3.066,4.397c0.462,0.868,0.253,2.153,1.357,2.712
					c0.997-0.122,1.711-0.539,2.357-1.017c0.434-3.695-2.099-4.441-3.051-6.775c1.068-1.319,1.15-3.587,2.033-5.082
					c0.819-0.55,2.185-0.54,3.056-1.021c0.932-1.228,1.768-3.133,2.376-5.071c0.521-1.73,1.369-4.624,1.343-6.105
					c-0.005-1.098-1.268-2.081-0.326-3.05c0.399,1.751,0.91,3.386,2.371,4.064c2.592-3.569-2.305-6.133-2.725-9.813
					c-3.472-0.965-7.726,0.056-8.465-2.719c-0.059-0.281,0.54-2.895,0.68-3.391c0.04-0.119,0.638-0.492,0.676-0.673
					c0.3-1.127,0.16-3.319,0.686-4.067c1.014-1.472,2.789-1.127,4.392-1.691c1.228-0.42,1.786-1.444,2.712-1.353
					c1.476,0.068,2.286,1.191,3.737,0.346c1.261-1.425-0.759-6.14,1.697-7.119c1.693-0.341,1.647,1.053,3.038,1.016
					c0.883-0.162,1.141-1.862,2.034-1.016c-0.753,2.124-0.237,4.511-0.677,6.773c-0.197,1.057-0.889,2.026-1.015,3.043
					c-0.539,4.422,1.265,6.169,2.708,8.477c1.024,1.64,1.859,3.749,3.388,4.401c1.693-1.317,0.966-4.471,1.357-6.432
					c0.105-0.526,0.673-0.864,0.673-1.361c0.019-0.515-0.558-1.442-0.673-2.369c-0.129-1.016,0.162-2.226,0-2.716
					c-0.378-1.094-1.911-1.844-2.374-3.043c-0.587-1.494,0.163-2.549-0.673-3.73c1.521-1.423,3.124-2.739,5.765-3.043
					c0.509-2.193,1.086-4.318,2.021-6.095c0.613-0.855,2.305-0.618,2.38-2.045c-0.415-2.56-3.138-2.873-3.731-5.067
					c-0.113-0.429,0.341-1.431,0.336-2.035c0-0.93-0.449-1.308-0.336-2.373c1.167-1.503,3.153-0.176,5.081-1.002
					c0.81-1.427-0.543-1.995-0.686-3.39C285.771-58.365,285.278-59.443,284.592-60.331z M150.796-61.693v-2.023
					c-0.973-0.79-2.56-0.054-3.395,0.339C147.709-61.907,149.169-60.844,150.796-61.693z M23.78-60.669
					c-0.257,2.506,1.052,3.455,2.019,4.737c3.126-0.771,7.47,0.739,8.139-2.03c0.255-1.15-0.514-0.818-1.027-1.701
					c-0.342-0.568,0.086-1.739-1.005-1.68c-1.415-0.272-0.646,1.622-2.042,1.346c-1.015-0.787-1.432-2.172-2.034-3.38
					c0.286-0.956,1.1-1.395,1.019-2.713c-1.453-1.028-2.498-0.627-3.723,0c-1.337,0.684-3.741,1.442-3.741,2.713
					C21.888-62.17,23.382-61.96,23.78-60.669z M155.2-62.7c0.813,0.093,0.634-0.19,1.354-0.678c1.226-0.85,1.167-0.893,1.691-2.038
					c0.284-0.599,0.922-0.808,0.673-1.348c-0.979-0.845-1.69,1.46-3.047,1.348c-0.692-0.434-0.605-1.638-2.033-1.348
					C152.379-64.763,153.702-62.891,155.2-62.7z M32.91-64.405c0.892-0.349,1.518-0.965,1.691-2.03
					c0.81-0.318,1.671-0.595,1.361-2.028h-1.693c0.046,1.747-2.227,1.168-3.047,2.028C31.155-65.12,31.765-64.486,32.91-64.405z
					 M234.45-68.125c-0.113-0.684-1.226-0.811-2.362-0.337C232.02-66.176,234.633-67.147,234.45-68.125z M229.712-67.447
					c-0.936-2.268-5.8-1.307-7.441-0.342C221.773-62.036,229.334-63.421,229.712-67.447z M41.377-63.378h2.377
					c0.177,1.056,0.601,1.892,1.016,2.708c0.939,0.246,1.033-0.77,1.357-1.366c1.387-2.554-0.381-3.343-2.041-4.399
					c0.094-1.424-0.98-1.719-1.358-2.698C39.232-69.457,39.785-64.6,41.377-63.378z M182.624-66.435
					c0.209,0.125,0.447,0.572,0.685,0.687c2.04,0.904,3.453,0.054,5.078-0.343c0.627,0.855,0.627,2.316,2.033,2.374
					c1.151-0.43,1.947-1.228,2.377-2.374c-0.678-0.76-1.308-1.948-2.72-2.035c-1.034-0.065-1.347,0.345-2.362,0.679
					c-1.106-1.491-2.359-2.841-4.748-3.052c-0.627-1.28-1.327-2.493-3.38-2.365c-1.281,1.673-0.732,3.73,0.334,5.072
					C180.162-67.484,182.207-66.698,182.624-66.435z M95.235-31.201c0.161-0.068,0.565,0.1,0.676,0
					c0.361-0.324,0.607-1.395,1.026-2.035c0.568-0.874,1.176-0.907,1.347-1.695c0.155-0.638-0.605-2.369-0.321-3.727
					c0.093-0.537,0.662-0.786,1.004-1.345c0.636-1.076,1.065-1.859,1.691-3.047c0.672-1.256,0.835-3.152,0.34-5.429
					c0.501-0.401,0.951-0.844,1.362-1.353c-0.71-2.931-0.014-5.777,1.352-8.13c0.299-0.527,0.484-1.105,0.676-1.354
					c1.118-1.565,3.837-2.342,3.73-4.747c-1.002-1.723-3.596-1.413-5.43-0.662c-0.301-0.608-0.813-1.005-1.013-1.711
					c0.268-0.979,1.603-0.869,1.345-2.365c-0.482-0.968-1.535-1.269-2.362-2.027c-1.395-1.299-1.925-2.461-4.064-3.047
					c-0.637-0.181-1.853-0.382-2.365-0.338c-0.684,0.033-1.773,1.107-3.056,1.349c-0.92,0.175-1.925-0.194-2.371,0
					c-1.343,0.594-1.976,2.438-3.383,3.038c-1.148,0.507-1.833-0.49-2.713,0.693c-0.854-1.404-2.974-1.543-5.423-1.367
					c-0.167-4.45-4.023-5.228-7.111-6.775h-5.408c-1.69,1.824-5.358,1.653-8.14,2.383c-0.984,0.586-0.852,2.296-1.697,3.047
					c-0.677-0.349-0.525-1.505-1.681-1.366c-3.533,1.565-4.709,5.467-5.099,10.166c0.312,1.395,2.517,0.894,2.726,2.374
					c-0.561,1.815-2.46,2.287-4.416,2.708c-1.687-0.117-1.218-2.403-3.381-2.036c-2.22,1.776,2.602,4.208-0.349,5.755
					c-1.636-0.807-2.457-2.354-1.679-4.727c-1.18-1.491-2.735-0.55-5.087-0.693c-1.018,1.953,0.766,3.066,1.012,4.747
					c1.615,0.203,2.993,0.623,3.393,2.027c1.06,0.173,1.194-0.605,2.361-0.319c1.319,2.714,6.857,4.141,10.168,2.693
					c0.419-0.958,0.419-2.097,0-3.036c-1.984-1.481-5.556,0.693-6.086-2.04c1.899-1.112,2.828,1.347,5.412,0.674
					c0.814,0.978,1.955,1.117,3.386,0.673c0.991-1.403,1.331-2.932,2.706-4.054c0.429-0.349,1.39-0.3,2.031-0.673
					c0.56-0.324,0.702-1.039,1.361-1.028c0.502-0.963,0.617-2.316,1.345-3.046c2.669-0.276,3.794-2.077,6.106-2.704
					c0.378,0.975,0.607,2.097,0.673,3.389c-1.656,1.602-5.307,1.225-7.45,2.362c0.862,2.809-0.894,6.256,1.021,8.129
					c2.802,0.644,4.78,0.027,6.098,2.037c0.701,1.076,1.141,4.323,1.026,6.782c-0.059,0.97-0.663,1.991-0.694,3.047
					c-0.03,0.978,0.437,2.087,0.341,2.702c-0.158,1.012-1.317,1.786-1.014,2.71c-0.134,1.384,1.443,1.044,1.697,2.032
					c-0.93,1.298-2.475,2.692-2.714,5.087c-0.179,1.806,0.75,5.82,1.357,7.783c0.492,1.662,0.629,2.681,1.693,3.391
					c0.34,0.215,0.936,0.065,1.353,0.339c0.884,0.563,1.292,1.829,2.376,1.361c1.618-1.051,1.954-3.037,3.045-4.747
					c0.152-0.248,0.135-0.752,0.345-1.006c0.091-0.153,0.597-0.221,0.662-0.355c0.536-0.965,0.322-2.198,1.362-3.037
					c0.899-0.739,3.385-0.624,5.084-1.709c1.311-0.822,2.003-2.636,3.722-3.376c1.263-0.555,3.342-0.36,4.748-1.015
					c0.15-0.088,0.219-0.628,0.341-0.675c0.174-0.078,0.512,0.105,0.673,0C95.027-30.614,95.135-31.145,95.235-31.201z"/>
				<rect x="-36.806" y="48.969" fill-rule="evenodd" clip-rule="evenodd" fill="#0077B3" width="330.268" height="13.557"/>
				<g>
					<g>
						<g>
							<g>
								<circle fill="#002945" cx="218.702" cy="1.69" r="1.916"/>
								<path fill="#002945" d="M218.702,1.69"/>
							</g>
						</g>
						<g>
							<polygon fill="#002945" points="208.029,7.431 207.991,7.878 229.585,7.878 229.547,7.431 218.788,3.934 							"/>
						</g>
					</g>
					<g>
						<path fill="#002945" d="M229.834,44.677c0.084,0.041,0.176,0.073,0.296,0.073c0.624,0,0.966-0.402,1.343-0.815
							c0.293,0.745,0.399,1.493,0.399,2.476c0,0.551-0.045,1.311-0.596,1.311c-0.834,0-1.103-0.954-1.192-1.788
							C230.028,45.434,229.921,45.06,229.834,44.677z M207.557,44.677c-0.087,0.383-0.194,0.756-0.25,1.258
							c-0.089,0.834-0.358,1.788-1.192,1.788c-0.551,0-0.596-0.76-0.596-1.311c0-0.983,0.106-1.731,0.399-2.476
							c0.377,0.413,0.719,0.815,1.343,0.815C207.381,44.75,207.473,44.718,207.557,44.677z M211.136,41.796
							c0.023-0.101,0.048-0.201,0.048-0.325c0-0.41-0.527-0.527-0.937-0.527c-0.293,0-0.41,0.234-0.703,0.234
							c-0.192,0-0.32-0.103-0.443-0.212c-0.332-0.668-0.864-1.14-1.65-1.14c-0.718,0-1.306,0.228-1.783,0.613
							c-1.791-0.787-1.697-2.158-1.697-2.158s-0.123-0.046-0.335-0.097l0.277-0.005c0,0,0.994-0.065,1.003-0.562
							c0.009-0.496-0.448-0.38-0.448-0.38s0.546-0.445,1.843-1.292c1.297-0.846,1.405-2.276,1.405-2.276s0.62,0.052,0.668-0.361
							c0.049-0.413-0.16-0.334-0.16-0.334h-10.752c0,0-0.208-0.079-0.16,0.334c0.049,0.413,0.668,0.361,0.668,0.361
							s0.108,1.43,1.405,2.276c1.297,0.846,1.843,1.292,1.843,1.292s-0.457-0.116-0.448,0.38c0.009,0.496,1.003,0.562,1.003,0.562
							c0.022,1.095,0.319,2.165,0.914,3.087c0.604,0.936,0.864,1.193,1.56,1.56c-0.281,0.971-0.396,2.056-0.396,3.064
							c0,2.026,0.247,3.969,2.274,3.969c1.132,0,2.315-1.034,2.583-2.137c0.27-1.098,0.528-1.899,0.684-2.785
							c0.397,0.226,0.258,0.576,1.343,0.633c-0.003,0.358,0.14,1.425,1.904,2.309c2.154,1.079,4.022,1.419,4.022,1.419
							s-0.166-0.038-0.154,0.665c0.012,0.703,1.206,0.393,1.206,0.393s-0.605,0.895-0.721,1.336l-0.542,2.103l-2.173,0.203
							c0,0-0.91,0.016-0.972,1.175c-0.062,1.159,0.691,1.684,0.691,1.684l1.101-0.019c0,0,0.422,0.505,0.968,0.935
							c0.545,0.43,1.046,0.669,1.046,0.669s-1.385,9.682-1.556,11.737c-0.171,2.056-0.005,4.928,0.013,5.988
							c0.019,1.06,0.381,2.873,0.381,2.873l-0.85,0.18c0,0,0.046,0.247-0.237,0.666c-0.282,0.419-1.421,1.555-1.792,1.603
							c-0.371,0.048-1.361,0.231-1.361,0.231s-0.37,0.115-0.197,0.567c0.173,0.452,0.676,0.816,0.676,0.816
							s-0.003,2.208,1.388,3.699c1.391,1.491,3.204,1.955,3.204,1.955l-0.32,2.984c0,0-0.69-0.112-0.927,0.471
							c-0.238,0.583,0.112,1.653,0.112,1.653l-1.609,0.261c0,0-0.455,0.008-0.609,0.672c-0.154,0.665,0.354,1.318,0.605,1.479
							c0.251,0.161,1.04,0.354,1.04,0.354l-0.275,7.599l-3.086,0.923c0,0-0.733,0.675-0.47,1.539
							c0.263,0.864,1.264,1.302,1.553,1.297l1.406-0.025l0.802,0.896l-2.051,0.972c0,0-2.107,1.071-2.661,1.618
							c-0.554,0.547-2.472,2.029-2.472,2.029l-6.398,0.138c0,0-0.663-0.071-0.653,0.508c0.01,0.579,0.098,0.867,0.098,0.867
							l0.675,0.758c0,0-1.638,0.07-2.208,0.576c-0.57,0.506-0.881,1.67-0.881,1.67s0.252,0.244,0.385,0.697
							c0.132,0.453-0.19,0.955-0.436,1.083c-0.246,0.128-0.934-1.349-2.338-1.242c-1.405,0.107-2.413,0.678-2.392,1.862
							c0.021,1.184,0.061,2.052,1.145,2.488c0.994,0.4,46.939,0.4,47.933,0c1.083-0.436,1.124-1.304,1.145-2.488
							c0.021-1.184-0.988-1.755-2.392-1.862c-1.405-0.107-2.092,1.37-2.338,1.242c-0.246-0.128-0.568-0.631-0.436-1.083
							c0.132-0.453,0.385-0.697,0.385-0.697s-0.311-1.164-0.881-1.67c-0.57-0.506-2.208-0.576-2.208-0.576l0.675-0.758
							c0,0,0.088-0.288,0.098-0.867c0.01-0.579-0.653-0.508-0.653-0.508l-6.398-0.138c0,0-1.918-1.481-2.472-2.029
							c-0.554-0.548-2.661-1.618-2.661-1.618l-2.051-0.972l0.802-0.896l1.406,0.025c0.289,0.005,1.29-0.433,1.553-1.297
							c0.263-0.864-0.47-1.539-0.47-1.539l-3.086-0.923l-0.275-7.599c0,0,0.789-0.193,1.04-0.354
							c0.251-0.161,0.759-0.814,0.605-1.479c-0.154-0.665-0.609-0.672-0.609-0.672l-1.609-0.261c0,0,0.35-1.07,0.112-1.653
							s-0.928-0.471-0.928-0.471l-0.32-2.984c0,0,1.812-0.465,3.204-1.955c1.391-1.491,1.388-3.699,1.388-3.699
							s0.503-0.363,0.676-0.816c0.173-0.452-0.197-0.567-0.197-0.567s-0.99-0.183-1.361-0.231c-0.371-0.048-1.51-1.185-1.792-1.603
							c-0.282-0.419-0.237-0.666-0.237-0.666l-0.85-0.18c0,0,0.363-1.814,0.381-2.873c0.018-1.059,0.184-3.932,0.013-5.988
							c-0.171-2.055-1.556-11.737-1.556-11.737s0.5-0.239,1.046-0.669c0.545-0.43,0.968-0.935,0.968-0.935l1.101,0.019
							c0,0,0.754-0.525,0.691-1.684c-0.062-1.159-0.972-1.175-0.972-1.175l-2.173-0.203l-0.542-2.103
							c-0.116-0.441-0.721-1.336-0.721-1.336s1.194,0.31,1.206-0.393c0.012-0.703-0.154-0.665-0.154-0.665s1.867-0.34,4.022-1.419
							c1.788-0.896,1.92-1.981,1.913-2.324c0.873-0.087,0.776-0.407,1.147-0.618c0.156,0.886,0.414,1.688,0.684,2.785
							c0.268,1.103,1.451,2.137,2.583,2.137c2.026,0,2.274-1.943,2.274-3.969c0-1.007-0.115-2.093-0.396-3.064
							c0.696-0.367,0.956-0.624,1.56-1.56c0.595-0.922,0.892-1.992,0.914-3.087c0,0,0.994-0.065,1.003-0.562
							c0.009-0.496-0.448-0.38-0.448-0.38s0.545-0.445,1.843-1.292c1.297-0.846,1.405-2.276,1.405-2.276s0.62,0.052,0.668-0.361
							c0.049-0.413-0.16-0.334-0.16-0.334h-10.752c0,0-0.208-0.079-0.16,0.334c0.049,0.413,0.668,0.361,0.668,0.361
							s0.108,1.43,1.405,2.276c1.297,0.846,1.843,1.292,1.843,1.292s-0.457-0.116-0.448,0.38c0.009,0.496,1.003,0.562,1.003,0.562
							l0.277,0.005c-0.212,0.051-0.335,0.097-0.335,0.097s0.094,1.371-1.697,2.158c-0.477-0.386-1.065-0.613-1.783-0.613
							c-0.786,0-1.318,0.473-1.65,1.14c-0.124,0.109-0.251,0.212-0.443,0.212c-0.293,0-0.41-0.234-0.703-0.234
							c-0.41,0-0.937,0.117-0.937,0.527c0,0.073,0.008,0.137,0.02,0.198c-0.083-0.068-0.165-0.161-0.233-0.292
							c-0.24-0.459-1.149-0.654-1.953-1.081c-0.804-0.428-2.438-0.167-2.438-0.167s-0.286-0.196-0.445-0.571
							c-0.159-0.375-0.579-0.01-0.579-0.01s0.395-1.276,0.131-2.728c-0.264-1.453-0.508-4.089-0.781-5.003
							c-0.089-0.296-0.232-0.455-0.385-0.533l0.311-0.006c0,0,0.994-0.065,1.003-0.562c0.009-0.496-0.448-0.38-0.448-0.38
							s0.545-0.445,1.843-1.292c1.297-0.846,1.405-2.276,1.405-2.276s0.62,0.052,0.668-0.361c0.049-0.413-0.16-0.334-0.16-0.334
							h-10.752c0,0-0.208-0.079-0.16,0.334c0.049,0.413,0.668,0.361,0.668,0.361s0.108,1.43,1.405,2.276
							c1.297,0.846,1.843,1.292,1.843,1.292s-0.457-0.116-0.448,0.38c0.009,0.496,1.002,0.562,1.002,0.562l0.311,0.006
							c-0.153,0.079-0.296,0.237-0.385,0.533c-0.274,0.915-0.517,3.551-0.781,5.003c-0.264,1.452,0.13,2.728,0.13,2.728
							s-0.42-0.365-0.579,0.01c-0.159,0.375-0.445,0.571-0.445,0.571s-0.891-0.261-1.695,0.167
							c-0.804,0.428-2.456,0.622-2.696,1.081C211.455,41.625,211.275,41.742,211.136,41.796z"/>
					</g>
					<g>
						<polygon fill-rule="evenodd" clip-rule="evenodd" fill="#FFFFFF" points="226.403,7.942 211.173,7.942 213.846,25.953 
							223.73,25.953 						"/>
					</g>
					<g>
						<g>
							<g>
								<circle fill="#002945" cx="234.423" cy="8.695" r="1.916"/>
								<path fill="#002945" d="M234.423,8.695"/>
							</g>
						</g>
						<g>
							<polygon fill="#002945" points="223.749,14.435 223.712,14.882 245.305,14.882 245.268,14.435 234.509,10.939 							"/>
						</g>
					</g>
					<g>
						<polygon fill-rule="evenodd" clip-rule="evenodd" fill="#FFFFFF" points="242.124,14.946 226.894,14.946 229.567,32.957 
							239.451,32.957 						"/>
					</g>
					<g>
						<g>
							<g>
								<circle fill="#002945" cx="202.759" cy="8.608" r="1.916"/>
								<path fill="#002945" d="M202.759,8.608"/>
							</g>
						</g>
						<g>
							<polygon fill="#002945" points="192.085,14.348 192.048,14.795 213.641,14.795 213.604,14.348 202.845,10.852 							"/>
						</g>
					</g>
					<g>
						<polygon fill-rule="evenodd" clip-rule="evenodd" fill="#FFFFFF" points="210.46,14.859 195.229,14.859 197.903,32.87 
							207.787,32.87 						"/>
					</g>
				</g>
				<g>
					<polygon fill-rule="evenodd" clip-rule="evenodd" fill="#FFFFFF" points="279.21,125.24 275.638,122.98 162.007,122.98 
						158.143,125.24 158.143,130.391 279.21,130.391 					"/>
				</g>
			</g>
		</g>
	</g>
	<g>
		<g>
			<path fill-rule="evenodd" clip-rule="evenodd" fill="#4D4D4D" d="M117.249,9.895h9.197c4.266,0,7.346,0.622,9.239,1.865
				c1.907,1.244,2.861,3.207,2.861,5.891c0,1.808-0.466,3.313-1.399,4.514c-0.932,1.201-2.275,1.957-4.026,2.267v0.212
				c2.175,0.41,3.771,1.222,4.789,2.437c1.031,1.201,1.546,2.833,1.547,4.895c0,2.783-0.975,4.966-2.924,6.548
				c-1.936,1.568-4.634,2.352-8.095,2.352h-11.189V9.895z M122.313,22.694h4.874c2.119,0,3.666-0.332,4.641-0.996
				c0.975-0.678,1.462-1.822,1.462-3.433c0-1.455-0.53-2.507-1.589-3.157c-1.046-0.65-2.712-0.974-5.001-0.975h-4.386V22.694z
				 M122.313,26.805v9.811h5.382c2.119,0,3.715-0.403,4.789-1.208c1.087-0.819,1.631-2.104,1.632-3.857
				c0-1.61-0.551-2.804-1.653-3.581c-1.102-0.777-2.776-1.165-5.022-1.165H122.313z"/>
			<path fill-rule="evenodd" clip-rule="evenodd" fill="#4D4D4D" d="M157.429,40.876l-0.996-3.263h-0.17
				c-1.13,1.427-2.267,2.402-3.412,2.924c-1.144,0.509-2.614,0.763-4.408,0.763c-2.303,0-4.104-0.621-5.404-1.865
				c-1.286-1.243-1.928-3.002-1.928-5.276c0-2.416,0.897-4.238,2.691-5.467c1.794-1.229,4.527-1.9,8.201-2.013l4.047-0.127v-1.25
				c0-1.497-0.354-2.613-1.06-3.348c-0.693-0.748-1.773-1.122-3.242-1.123c-1.201,0-2.352,0.177-3.454,0.53
				c-1.102,0.354-2.161,0.77-3.179,1.25l-1.61-3.56c1.271-0.664,2.663-1.165,4.175-1.504c1.511-0.353,2.938-0.529,4.281-0.53
				c2.981,0,5.227,0.65,6.739,1.95c1.526,1.3,2.289,3.341,2.289,6.124v15.787H157.429z M150.012,37.485
				c1.808,0,3.256-0.501,4.344-1.505c1.102-1.017,1.653-2.437,1.653-4.259v-2.034L153,29.814c-2.346,0.085-4.055,0.481-5.128,1.187
				c-1.059,0.693-1.589,1.759-1.589,3.2c0,1.046,0.311,1.858,0.932,2.437C147.836,37.203,148.768,37.485,150.012,37.485z"/>
			<path fill-rule="evenodd" clip-rule="evenodd" fill="#4D4D4D" d="M177.223,17.015c1.003,0,1.829,0.071,2.479,0.212l-0.487,4.641
				c-0.707-0.17-1.441-0.254-2.204-0.254c-1.992,0-3.61,0.65-4.853,1.95c-1.229,1.3-1.844,2.988-1.844,5.065v12.248h-4.98V17.439
				h3.899l0.657,4.132h0.254c0.777-1.399,1.787-2.507,3.03-3.327C174.433,17.425,175.782,17.016,177.223,17.015z"/>
			<path fill-rule="evenodd" clip-rule="evenodd" fill="#4D4D4D" d="M186.422,40.876h-4.98V17.439h4.98V40.876z M181.146,11.23
				c0-0.89,0.24-1.575,0.72-2.055c0.494-0.48,1.193-0.72,2.098-0.72c0.875,0,1.554,0.24,2.034,0.72
				c0.494,0.481,0.741,1.165,0.742,2.055c0,0.848-0.248,1.519-0.742,2.013c-0.481,0.481-1.159,0.72-2.034,0.72
				c-0.905,0-1.604-0.24-2.098-0.72C181.386,12.749,181.146,12.078,181.146,11.23z"/>
		</g>
	</g>
	<path fill="#4D4D4D" d="M14.702,21.709h13.331v16.663c-3.622,1.242-7.596,1.857-11.943,1.857c-4.758,0-8.436-1.379-11.039-4.139
		c-2.604-2.76-3.897-6.705-3.897-11.824c0-4.983,1.419-8.859,4.268-11.638c2.847-2.78,6.832-4.151,11.961-4.151
		c1.947,0,3.777,0.176,5.5,0.548c1.735,0.361,3.241,0.823,4.524,1.381l-2.654,6.548c-2.223-1.099-4.668-1.646-7.332-1.646
		c-2.427,0-4.316,0.802-5.647,2.379c-1.341,1.587-1.997,3.845-1.997,6.795c0,2.887,0.597,5.09,1.811,6.605
		c1.194,1.518,2.926,2.263,5.198,2.263c1.244,0,2.388-0.109,3.424-0.355v-4.835h-5.509V21.709z"/>
	<path fill="#4D4D4D" d="M75.027,21.709H88.37v16.663c-3.623,1.242-7.606,1.857-11.943,1.857c-4.757,0-8.439-1.379-11.043-4.139
		c-2.593-2.76-3.894-6.705-3.894-11.824c0-4.983,1.418-8.859,4.266-11.638c2.84-2.78,6.832-4.151,11.962-4.151
		c1.939,0,3.779,0.176,5.511,0.548c1.713,0.361,3.221,0.823,4.502,1.381l-2.641,6.548c-2.222-1.099-4.671-1.646-7.332-1.646
		c-2.438,0-4.317,0.802-5.657,2.379c-1.322,1.587-1.988,3.845-1.988,6.795c0,2.887,0.596,5.09,1.8,6.605
		c1.204,1.518,2.936,2.263,5.207,2.263c1.243,0,2.39-0.109,3.428-0.355v-4.835h-5.521V21.709z"/>
	<path fill="#4D4D4D" d="M50.155,24.002c0-2.84-0.558-4.934-1.673-6.305c-1.117-1.36-2.83-2.047-5.109-2.047h-2.429v17.308h1.861
		c2.543,0,4.403-0.735,5.579-2.212C49.568,29.287,50.155,27.026,50.155,24.002z M58.816,23.707c0,5.148-1.408,9.124-4.257,11.913
		c-2.829,2.79-6.822,4.18-11.961,4.18h-9.993V8.906h10.689c4.951,0,8.78,1.274,11.48,3.809
		C57.476,15.242,58.816,18.912,58.816,23.707z"/>
	<g>
		<g>
			<g>
				<defs>
					<path id="SVGID_25_" d="M-36.659-2.571L-36.659-2.571c0.033,0.001,0.067,0.002,0.101,0.004h0.001
						C-36.591-2.57-36.624-2.57-36.659-2.571z"/>
				</defs>
				<clipPath id="SVGID_4_">
					<use xlink:href="#SVGID_25_"  overflow="visible"/>
				</clipPath>
				<g clip-path="url(#SVGID_4_)">
					
						<image overflow="visible" width="3" height="3" xlink:href="4E7F883C9B6D6F41.jpg"  transform="matrix(0.4544 0 0 -0.4544 -37.448 -1.8027)">
					</image>
				</g>
			</g>
		</g>
		<g>
			<g>
				<defs>
					<path id="SVGID_27_" d="M-36.556-2.568L-36.556-2.568c1.71,0.082,3.758,1.277,4.627,2.722l16.289,27.122
						c0.901,1.497,0.901,3.951,0,5.453l-2.523,4.204l2.524-4.204c0.901-1.502,0.901-3.955,0-5.453L-31.929,0.155
						C-32.797-1.29-34.846-2.485-36.556-2.568z"/>
				</defs>
				<clipPath id="SVGID_5_">
					<use xlink:href="#SVGID_27_"  overflow="visible"/>
				</clipPath>
				<g clip-path="url(#SVGID_5_)">
					
						<image overflow="visible" width="51" height="90" xlink:href="4E7F883C9B6D6F40.jpg"  transform="matrix(0.4544 0 0 -0.4544 -37.448 37.7261)">
					</image>
				</g>
			</g>
		</g>
		<g>
			<g>
				<defs>
					<path id="SVGID_29_" d="M-52.481,0.155l16.291,27.122l0,0l0.069,0.115c-0.023-0.041-0.046-0.081-0.069-0.121l-5.182-8.663
						L-52.481,0.155z"/>
				</defs>
				<clipPath id="SVGID_6_">
					<use xlink:href="#SVGID_29_"  overflow="visible"/>
				</clipPath>
				<g clip-path="url(#SVGID_6_)">
					
						<image overflow="visible" width="39" height="63" xlink:href="4E7F883C9B6D6F4E.jpg"  transform="matrix(0.4544 0 0 -0.4544 -53.3504 28.1846)">
					</image>
				</g>
			</g>
		</g>
		<g>
			<g>
				<defs>
					<path id="SVGID_31_" d="M-41.372,18.607l5.182,8.663c0.024,0.039,0.047,0.08,0.069,0.121l9.004,14.904l1.268,2.098
						c0.195,0.325,0.345,0.693,0.453,1.086l0,0c-0.108-0.393-0.258-0.761-0.453-1.086L-41.372,18.607z"/>
				</defs>
				<clipPath id="SVGID_7_">
					<use xlink:href="#SVGID_31_"  overflow="visible"/>
				</clipPath>
				<g clip-path="url(#SVGID_7_)">
					
						<image overflow="visible" width="38" height="63" xlink:href="4E7F883C9B6D6F58.jpg"  transform="matrix(0.4544 0 0 -0.4544 -41.9917 46.3582)">
					</image>
				</g>
			</g>
		</g>
		<g>
			<g>
				<g>
					<defs>
						<path id="SVGID_33_" d="M-25.193,46.992v0.1c0-0.019,0-0.037,0-0.056C-25.193,47.022-25.193,47.007-25.193,46.992z
							 M-27.116,42.295l1.268,2.099c0.195,0.324,0.345,0.693,0.453,1.085c-0.108-0.393-0.258-0.761-0.453-1.086L-27.116,42.295z"/>
					</defs>
					<clipPath id="SVGID_8_">
						<use xlink:href="#SVGID_33_"  overflow="visible"/>
					</clipPath>
					<g clip-path="url(#SVGID_8_)">
						
							<image overflow="visible" width="7" height="13" xlink:href="4E7F883C9B6D6F59.jpg"  transform="matrix(0.4544 0 0 -0.4544 -27.9071 47.7209)">
						</image>
					</g>
				</g>
				<path fill="none" d="M-25.193,46.992v0.1c0-0.019,0-0.037,0-0.056C-25.193,47.022-25.193,47.007-25.193,46.992z"/>
				<path fill="none" d="M-27.116,42.295l1.268,2.099c0.195,0.324,0.345,0.693,0.453,1.085c-0.108-0.393-0.258-0.761-0.453-1.086
					L-27.116,42.295z"/>
			</g>
		</g>
		<g>
			<path fill="#009FE3" d="M-44.111-2.571h-6.905c-1.691,0.038-2.35,1.252-1.464,2.726l0,0l11.109,18.453l15.524,25.786
				c0.195,0.325,0.345,0.693,0.453,1.086c0.128,0.469,0.195,0.972,0.202,1.479v0.033c0,0.015,0,0.03,0,0.044
				c0,0.018,0,0.037,0,0.056v0.036c-0.011,0.841-0.187,1.681-0.523,2.378l6.472-10.772L-44.111-2.571"/>
		</g>
		<g>
			<path fill="#E30613" d="M-36.659-2.571h-7.452l24.867,41.307v-0.001l1.082-1.802l2.523-4.204c0.901-1.502,0.901-3.955,0-5.453
				L-31.929,0.155c-0.869-1.445-2.917-2.64-4.628-2.722C-36.592-2.57-36.625-2.57-36.659-2.571z"/>
		</g>
		<g>
			<g>
				<defs>
					<path id="SVGID_35_" d="M-36.71,62.572h-14.231c0.007,0,0.007,0,0.007,0h6.819h7.373C-36.732,62.572-36.72,62.572-36.71,62.572
						z"/>
				</defs>
				<clipPath id="SVGID_9_">
					<use xlink:href="#SVGID_35_"  overflow="visible"/>
				</clipPath>
				<g clip-path="url(#SVGID_9_)">
					
						<image overflow="visible" width="34" height="3" xlink:href="4E7F883C9B6D6F5A.jpg"  transform="matrix(0.4544 0 0 -0.4544 -51.5331 63.169)">
					</image>
				</g>
			</g>
		</g>
		<g>
			<g>
				<defs>
					<path id="SVGID_37_" d="M-32.947,44.02l-11.168,18.551h-6.82c-0.813,0-1.384-0.268-1.673-0.706
						c0.289,0.438,0.86,0.707,1.674,0.707h14.224c1.74-0.015,3.887-1.233,4.781-2.727c-0.901,1.503-3.068,2.726-4.814,2.726h-7.372
						L-32.947,44.02z"/>
				</defs>
				<clipPath id="SVGID_10_">
					<use xlink:href="#SVGID_37_"  overflow="visible"/>
				</clipPath>
				<g clip-path="url(#SVGID_10_)">
					
						<image overflow="visible" width="49" height="44" xlink:href="4E7F883C9B6D6F5B.jpg"  transform="matrix(0.4544 0 0 -0.4544 -53.3504 63.1692)">
					</image>
				</g>
			</g>
		</g>
		<g>
			<path fill="#FFE24B" d="M-32.947,44.02l-11.168,18.551h7.372c1.747,0,3.913-1.223,4.814-2.726l0,0l6.21-10.335L-32.947,44.02z"/>
		</g>
		<g>
			<path fill="#4CB062" d="M-39.82,38.8l-12.766,21.343c-0.317,0.678-0.311,1.285-0.022,1.723c0.289,0.438,0.86,0.706,1.673,0.706
				h6.82l11.168-18.551L-39.82,38.8z"/>
		</g>
		<g>
			<g>
				<defs>
					<rect id="SVGID_39_" x="-36.155" y="27.267" width="0" height="0.134"/>
				</defs>
				<clipPath id="SVGID_11_">
					<use xlink:href="#SVGID_39_"  overflow="visible"/>
				</clipPath>
				<g clip-path="url(#SVGID_11_)">
					
						<image overflow="visible" width="3" height="3" xlink:href="4E7F883C9B6D6F5C.jpg"  transform="matrix(0.4544 0 0 -0.4544 -36.9936 28.1843)">
					</image>
				</g>
			</g>
		</g>
		<g>
			<g>
				<defs>
					<polygon id="SVGID_41_" points="-36.12,27.391 -36.12,27.391 -29.517,38.323 -32.947,44.02 -29.517,38.323 -27.116,42.295 
											"/>
				</defs>
				<clipPath id="SVGID_12_">
					<use xlink:href="#SVGID_41_"  overflow="visible"/>
				</clipPath>
				<g clip-path="url(#SVGID_12_)">
					
						<image overflow="visible" width="23" height="39" xlink:href="4E7F883C9B6D6F5D.jpg"  transform="matrix(0.4544 0 0 -0.4544 -36.9936 44.5408)">
					</image>
				</g>
			</g>
		</g>
		<g>
			<path fill="#F7C339" d="M-29.517,38.323l-3.43,5.697l7.229,5.491l0.002-0.005c0.34-0.706,0.517-1.561,0.523-2.414v-0.1
				c-0.004-0.518-0.071-1.034-0.202-1.513c-0.108-0.392-0.258-0.761-0.453-1.085l-1.268-2.099L-29.517,38.323z"/>
		</g>
		<g>
			<path fill="#009450" d="M-36.189,27.277c0.45,0.749,0.675,1.736,0.675,2.725l0,0c0,0.989-0.225,1.977-0.675,2.728l0,0l-3.63,6.07
				l6.873,5.22l3.43-5.697l-6.603-10.932L-36.189,27.277z"/>
		</g>
		<g>
			<g>
				<g>
					<defs>
						<path id="SVGID_43_" d="M-25.193,47.092c-0.006,0.853-0.183,1.708-0.523,2.414l0,0c0.336-0.697,0.512-1.537,0.523-2.378
							V47.092z M-25.395,45.479c0.131,0.479,0.198,0.995,0.202,1.513v-0.033C-25.2,46.452-25.267,45.948-25.395,45.479z"/>
					</defs>
					<clipPath id="SVGID_13_">
						<use xlink:href="#SVGID_43_"  overflow="visible"/>
					</clipPath>
					<g clip-path="url(#SVGID_13_)">
						
							<image overflow="visible" width="4" height="11" xlink:href="586EB0C276D11522.jpg"  transform="matrix(0.4544 0 0 -0.4544 -26.5437 49.993)">
						</image>
					</g>
				</g>
				<path fill="none" d="M-25.193,47.092c-0.006,0.853-0.183,1.708-0.523,2.414l0,0c0.336-0.697,0.512-1.537,0.523-2.378V47.092z"/>
				<path fill="none" d="M-25.395,45.479c0.131,0.479,0.198,0.995,0.202,1.513v-0.033C-25.2,46.452-25.267,45.948-25.395,45.479z"/>
			</g>
		</g>
	</g>
</g>
</svg>
