<?xml version="1.0" encoding="utf-8"?>
<!-- Generator: Adobe Illustrator 19.0.0, SVG Export Plug-In . SVG Version: 6.00 Build 0)  -->
<svg version="1.1" id="Layer_4" xmlns="http://www.w3.org/2000/svg" xmlns:xlink="http://www.w3.org/1999/xlink" x="0px" y="0px"
	 viewBox="197 171 1006.5 452" style="enable-background:new 197 171 1006.5 452;" xml:space="preserve">
<style type="text/css">
	.st0{fill:none;}
	.st1{fill:#FFC107;}
	.st2{fill:#0F9D58;}
	.st3{opacity:0.2;fill:#BF360C;enable-background:new    ;}
	.st4{opacity:0.2;fill:#263238;enable-background:new    ;}
	.st5{opacity:0.2;fill:#FFFFFF;enable-background:new    ;}
	.st6{fill:url(#XMLID_3_);}
	.st7{fill:url(#XMLID_4_);}
	.st8{fill:#4285F4;}
	.st9{fill:#DB4437;}
	.st10{opacity:0.2;fill:#1A237E;enable-background:new    ;}
	.st11{opacity:0.2;fill:#3E2723;enable-background:new    ;}
	.st12{fill:url(#XMLID_5_);}
	.st13{fill:#757575;}
	.st14{font-family:'OpenSans-SemiBold';}
	.st15{font-size:108px;}
</style>
<g id="XMLID_1_">
	<g id="XMLID_50_">
		<g id="XMLID_72_">
			<path id="XMLID_7_" class="st0" d="M403.3,390.3l-33.5-58h-44.9l37,64l-37,64h44.9l33.5-58C405.5,398.6,405.5,394,403.3,390.3z"
				/>
			<polygon id="XMLID_80_" class="st1" points="384.1,434.5 373.5,416.1 347.9,460.3 369.8,460.3 384.4,435 			"/>
			<path id="XMLID_8_" class="st0" d="M403.3,390.3l-33.5-58h-44.9l37,64l-37,64h44.9l33.5-58C405.5,398.6,405.5,394,403.3,390.3z"
				/>
			<polygon class="st2" points="362,396.3 373.5,416.1 347.9,460.3 324.9,460.3 			"/>
			<path id="XMLID_9_" class="st0" d="M403.3,390.3l-33.5-58h-44.9l37,64l-37,64h44.9l33.5-58C405.5,398.6,405.5,394,403.3,390.3z"
				/>
			<polygon class="st3" points="369.8,459.3 348.5,459.3 347.9,460.3 369.8,460.3 384.4,435 384.1,434.5 			"/>
			<path id="XMLID_10_" class="st0" d="M403.3,390.3l-33.5-58h-44.9l37,64l-37,64h44.9l33.5-58C405.5,398.6,405.5,394,403.3,390.3z"
				/>
			<polygon class="st4" points="325.5,459.3 324.9,460.3 347.9,460.3 348.5,459.3 			"/>
			<path id="XMLID_11_" class="st0" d="M403.3,390.3l-33.5-58h-44.9l37,64l-37,64h44.9l33.5-58C405.5,398.6,405.5,394,403.3,390.3z"
				/>
			<polygon class="st5" points="324.9,460.3 325.5,460.3 362.3,396.8 362,396.3 			"/>
			<path id="XMLID_12_" class="st0" d="M403.3,390.3l-33.5-58h-44.9l37,64l-37,64h44.9l33.5-58C405.5,398.6,405.5,394,403.3,390.3z"
				/>
			
				<radialGradient id="XMLID_3_" cx="384.2166" cy="776.644" r="44.2635" gradientTransform="matrix(1 0 0 1 0 -342)" gradientUnits="userSpaceOnUse">
				<stop  offset="0" style="stop-color:#BF360C;stop-opacity:0.2"/>
				<stop  offset="1" style="stop-color:#BF360C;stop-opacity:2.000000e-002"/>
			</radialGradient>
			<polygon id="XMLID_79_" class="st6" points="384.4,435 384.4,435 373.5,416.1 370.8,420.8 			"/>
			<path id="XMLID_13_" class="st0" d="M403.3,390.3l-33.5-58h-44.9l37,64l-37,64h44.9l33.5-58C405.5,398.6,405.5,394,403.3,390.3z"
				/>
			
				<radialGradient id="XMLID_4_" cx="384.0909" cy="776.9239" r="44.6228" gradientTransform="matrix(1 0 0 1 0 -342)" gradientUnits="userSpaceOnUse">
				<stop  offset="0" style="stop-color:#263238;stop-opacity:0.2"/>
				<stop  offset="1" style="stop-color:#263238;stop-opacity:2.000000e-002"/>
			</radialGradient>
			<polygon id="XMLID_78_" class="st7" points="370.8,420.8 373.5,416.1 362,396.3 356.5,405.8 			"/>
			<path id="XMLID_14_" class="st0" d="M403.3,390.3l-33.5-58h-44.9l37,64l-37,64h44.9l33.5-58C405.5,398.6,405.5,394,403.3,390.3z"
				/>
			<g id="XMLID_75_">
				<g id="XMLID_76_">
					<polygon id="XMLID_77_" class="st8" points="347.9,332.3 324.9,332.3 384.4,435 395.9,415.2 395.9,415.1 					"/>
				</g>
			</g>
			<path id="XMLID_15_" class="st0" d="M403.3,390.3l-33.5-58h-44.9l37,64l-37,64h44.9l33.5-58C405.5,398.6,405.5,394,403.3,390.3z"
				/>
			<path class="st9" d="M403.3,402.3c2.1-3.7,2.1-8.3,0-12l-33.5-58h-21.9l47.9,82.9L403.3,402.3z"/>
			<path id="XMLID_16_" class="st0" d="M403.3,390.3l-33.5-58h-44.9l37,64l-37,64h44.9l33.5-58C405.5,398.6,405.5,394,403.3,390.3z"
				/>
			<polygon class="st10" points="395.9,415.1 395.6,414.7 384.4,434 325.5,332.3 324.9,332.3 384.4,435 395.9,415.2 			"/>
			<path id="XMLID_17_" class="st0" d="M403.3,390.3l-33.5-58h-44.9l37,64l-37,64h44.9l33.5-58C405.5,398.6,405.5,394,403.3,390.3z"
				/>
			<path class="st5" d="M369.8,333.3l33.5,58c1,1.7,1.5,3.6,1.6,5.5c0.1-2.2-0.4-4.5-1.6-6.5l-33.5-58h-44.9l0.6,1H369.8z"/>
			<path id="XMLID_18_" class="st0" d="M403.3,390.3l-33.5-58h-44.9l37,64l-37,64h44.9l33.5-58C405.5,398.6,405.5,394,403.3,390.3z"
				/>
			<path id="XMLID_74_" class="st11" d="M395.9,415.1l7.5-12.9c1.2-2,1.7-4.3,1.6-6.5c-0.1,1.9-0.6,3.8-1.6,5.5l-7.7,13.4
				L395.9,415.1z"/>
			<path id="XMLID_19_" class="st0" d="M403.3,390.3l-33.5-58h-44.9l37,64l-37,64h44.9l33.5-58C405.5,398.6,405.5,394,403.3,390.3z"
				/>
			
				<radialGradient id="XMLID_5_" cx="323.94" cy="675.27" r="134.3503" gradientTransform="matrix(1 0 0 1 0 -342)" gradientUnits="userSpaceOnUse">
				<stop  offset="0" style="stop-color:#FFFFFF;stop-opacity:0.1"/>
				<stop  offset="1" style="stop-color:#FFFFFF;stop-opacity:0"/>
			</radialGradient>
			<path id="XMLID_73_" class="st12" d="M403.3,390.3l-33.5-58h-44.9l37,64l-37,64h44.9l33.5-58C405.5,398.6,405.5,394,403.3,390.3z
				"/>
		</g>
	</g>
</g>
<rect id="XMLID_20_" x="419.5" y="356" class="st0" width="763" height="113"/>
<text id="XMLID_23_" transform="matrix(1 0 0 1 419.4688 438.0791)" class="st13 st14 st15">GDG Venezia</text>
</svg>
