<?xml version="1.0" encoding="UTF-8" standalone="no"?>
<svg
   xmlns:dc="http://purl.org/dc/elements/1.1/"
   xmlns:cc="http://creativecommons.org/ns#"
   xmlns:rdf="http://www.w3.org/1999/02/22-rdf-syntax-ns#"
   xmlns:svg="http://www.w3.org/2000/svg"
   xmlns="http://www.w3.org/2000/svg"
   viewBox="0 0 318.90002 175.95938"
   height="175.95938"
   width="318.90002"
   xml:space="preserve"
   version="1.1"
   id="svg2"><metadata
     id="metadata8"><rdf:RDF><cc:Work
         rdf:about=""><dc:format>image/svg+xml</dc:format><dc:type
           rdf:resource="http://purl.org/dc/dcmitype/StillImage" /><dc:title></dc:title></cc:Work></rdf:RDF></metadata><defs
     id="defs6"><clipPath
       id="clipPath20"
       clipPathUnits="userSpaceOnUse"><path
         id="path22"
         d="M 0,0 256,0 256,141 0,141 0,0 Z" /></clipPath></defs><g
     transform="matrix(1.25,0,0,-1.25,0,175.95938)"
     id="g10"><g
       id="g12"><g
         transform="translate(0,-0.232498)"
         id="g14"><g
           id="g16"><g
             clip-path="url(#clipPath20)"
             id="g18"><g
               id="g24"><path
                 id="path26"
                 style="fill:#f3f3f3;fill-opacity:1;fill-rule:nonzero;stroke:none"
                 d="M 95.672,87.848 C 82.773,87.848 71.145,80.078 66.207,68.16 61.273,56.246 64,42.527 73.121,33.406 c 9.121,-9.117 22.836,-11.847 34.754,-6.91 11.914,4.934 19.684,16.563 19.684,29.461 0,8.457 -3.36,16.57 -9.34,22.551 -5.981,5.98 -14.09,9.34 -22.547,9.34 m 0,-42.52 c -4.301,0 -8.176,2.59 -9.82,6.563 -1.645,3.972 -0.735,8.543 2.304,11.582 3.039,3.039 7.61,3.949 11.582,2.304 3.969,-1.644 6.559,-5.519 6.559,-9.82 0,-5.867 -4.758,-10.629 -10.625,-10.629 M 42.516,77.25 c 0,-4.297 -2.586,-8.172 -6.559,-9.82 -3.973,-1.645 -8.543,-0.735 -11.582,2.304 -3.039,3.039 -3.949,7.614 -2.305,11.582 1.645,3.973 5.52,6.563 9.821,6.563 5.867,0 10.625,-4.758 10.625,-10.629 M 180.719,66.594 c -2.817,0 -5.52,-1.121 -7.512,-3.114 -1.996,-1.992 -3.113,-4.695 -3.113,-7.515 0,5.871 -4.758,10.629 -10.629,10.629 -4.297,-0.008 -8.176,2.574 -9.824,6.543 -1.653,3.965 -0.754,8.539 2.277,11.582 3.035,3.047 7.602,3.965 11.574,2.328 3.973,-1.633 6.574,-5.5 6.586,-9.797 2.824,0.004 5.539,-1.117 7.535,-3.117 1.996,-2 3.114,-4.715 3.106,-7.539 z m 21.265,0 c -4.824,-0.012 -9.054,3.218 -10.308,7.879 -1.254,4.656 0.777,9.574 4.953,11.988 4.172,2.414 9.449,1.723 12.859,-1.688 3.41,-3.41 4.106,-8.687 1.688,-12.863 -1.895,-3.289 -5.399,-5.316 -9.192,-5.316 m 9.192,-5.321 c 1.902,-3.285 1.902,-7.335 0.008,-10.625 -1.899,-3.289 -5.407,-5.316 -9.2,-5.32 -5.867,-0.012 -10.617,-4.762 -10.629,-10.625 -2.82,-0.004 -5.527,1.117 -7.519,3.109 -1.996,1.993 -3.117,4.7 -3.117,7.516 2.82,0 5.523,1.121 7.515,3.113 1.993,1.997 3.114,4.7 3.114,7.516 0.004,4.805 3.234,9.008 7.875,10.254 4.64,1.246 9.539,-0.777 11.949,-4.938 M 41.086,40.012 c 2.394,-4.16 1.699,-9.414 -1.703,-12.805 -3.399,-3.395 -8.653,-4.082 -12.809,-1.676 -4.156,2.403 -6.179,7.301 -4.937,11.938 1.246,4.636 5.449,7.863 10.254,7.859 3.797,0.012 7.308,-2.019 9.195,-5.316 M 151.395,10.859 c 0,-4.297 -2.59,-8.171 -6.559,-9.816 -3.973,-1.645 -8.543,-0.738 -11.582,2.301 -3.039,3.039 -3.949,7.613 -2.305,11.582 1.645,3.972 5.52,6.562 9.817,6.562 5.871,0 10.629,-4.758 10.629,-10.629" /><path
                 id="path28"
                 style="fill:#d74641;fill-opacity:1;fill-rule:nonzero;stroke:none"
                 d="m 41.086,50.648 c 1.91,-3.285 1.91,-7.343 0,-10.628 -1.895,3.289 -5.402,5.316 -9.195,5.316 3.793,0.004 7.3,2.031 9.195,5.32 m -18.391,0 c -1.91,-3.285 -1.91,-7.344 0,-10.629 1.895,3.289 5.399,5.317 9.196,5.317 -3.797,0.004 -7.301,2.031 -9.196,5.32 M 191.34,55.98 c -0.008,5.86 -4.758,10.61 -10.621,10.614 -4.297,0 -8.172,-2.59 -9.817,-6.563 -1.644,-3.969 -0.738,-8.543 2.305,-11.582 3.039,-3.039 7.609,-3.949 11.578,-2.304 3.973,1.648 6.563,5.523 6.563,9.82 l -0.008,0.015 z m 19.832,-15.945 c -1.899,3.289 -5.402,5.317 -9.195,5.317 -5.868,-0.012 -10.618,-4.762 -10.629,-10.625 0,-3.305 1.539,-6.422 4.16,-8.434 2.621,-2.008 6.027,-2.688 9.219,-1.832 3.191,0.855 5.804,3.148 7.066,6.199 1.266,3.055 1.039,6.52 -0.617,9.383 M 10.629,141 c -4.301,0 -8.176,-2.59 -9.82,-6.559 -1.645,-3.972 -0.735,-8.543 2.304,-11.582 3.039,-3.043 7.61,-3.949 11.582,-2.304 3.969,1.644 6.559,5.519 6.559,9.816 0,2.82 -1.117,5.524 -3.113,7.516 -1.993,1.992 -4.696,3.113 -7.512,3.113" /><path
                 id="path30"
                 style="fill:#00a5e6;fill-opacity:1;fill-rule:nonzero;stroke:none"
                 d="m 211.164,50.648 c 1.91,-3.285 1.91,-7.343 0,-10.628 -1.894,3.289 -5.402,5.316 -9.195,5.316 3.793,0.004 7.301,2.031 9.195,5.32 m -18.391,21.246 c -1.91,-3.285 -1.91,-7.343 0,-10.629 1.895,3.289 5.399,5.317 9.196,5.321 -3.797,0 -7.301,2.027 -9.196,5.316 m 9.196,-5.316 c 3.793,-0.004 7.301,-2.032 9.195,-5.321 1.91,3.286 1.91,7.344 0,10.629 -1.894,-3.289 -5.402,-5.316 -9.195,-5.316 m -170.078,0 c -4.293,-0.004 -8.164,-2.594 -9.805,-6.559 -1.645,-3.968 -0.734,-8.535 2.301,-11.57 3.039,-3.039 7.605,-3.945 11.57,-2.305 3.969,1.641 6.559,5.512 6.559,9.805 0,5.871 -4.758,10.629 -10.625,10.629 m 127.558,0 c -3.801,0.008 -7.312,-2.02 -9.211,-5.313 -1.898,-3.293 -1.894,-7.347 0.016,-10.632 -1.91,-3.286 -1.91,-7.344 0,-10.629 -1.902,-3.285 -1.91,-7.344 -0.012,-10.633 1.899,-3.293 5.406,-5.324 9.207,-5.324 3.801,0 7.313,2.031 9.207,5.324 1.899,3.289 1.895,7.348 -0.011,10.633 1.91,3.285 1.91,7.343 0,10.629 1.906,3.285 1.91,7.339 0.011,10.629 -1.898,3.292 -5.406,5.316 -9.207,5.316 m 85.02,42.523 c -4.297,-0.007 -8.164,-2.605 -9.801,-6.574 -1.637,-3.973 -0.723,-8.539 2.316,-11.574 3.043,-3.035 7.614,-3.941 11.582,-2.293 3.965,1.644 6.555,5.52 6.555,9.816 0,2.821 -1.125,5.528 -3.121,7.52 -2,1.996 -4.707,3.113 -7.531,3.105" /></g></g></g></g></g></g></svg>