<?xml version="1.0" encoding="UTF-8" standalone="no"?>
<svg
   xmlns:dc="http://purl.org/dc/elements/1.1/"
   xmlns:cc="http://creativecommons.org/ns#"
   xmlns:rdf="http://www.w3.org/1999/02/22-rdf-syntax-ns#"
   xmlns:svg="http://www.w3.org/2000/svg"
   xmlns="http://www.w3.org/2000/svg"
   viewBox="0 0 200 99.999997"
   height="100"
   width="200"
   xml:space="preserve"
   version="1.1"
   id="svg2"><metadata
     id="metadata8"><rdf:RDF><cc:Work
         rdf:about=""><dc:format>image/svg+xml</dc:format><dc:type
           rdf:resource="http://purl.org/dc/dcmitype/StillImage" /><dc:title></dc:title></cc:Work></rdf:RDF></metadata><defs
     id="defs6" /><g
     transform="matrix(1.25,0,0,-1.25,0,100.00001)"
     id="g10"><g
       id="g4330"><g
         transform="translate(-23.428728,-12.901076)"
         id="g4902"><path
           d="m 51.203625,41.711634 4.16836,0 0,33.3516 -4.16836,0 0,-33.3516 z"
           style="fill:#1e1d1c;fill-opacity:1;fill-rule:nonzero;stroke:none"
           id="path104" /><path
           d="m 139.21273,41.711634 4.16914,0 0,33.3516 -4.16914,0 0,-33.3516 z"
           style="fill:#1e1d1c;fill-opacity:1;fill-rule:nonzero;stroke:none"
           id="path106" /><path
           d="m 151.48773,41.711634 4.16797,0 0,33.3516 -4.16797,0 0,-33.3516 z"
           style="fill:#1e1d1c;fill-opacity:1;fill-rule:nonzero;stroke:none"
           id="path108" /><path
           d="m 126.70573,75.063234 0,-18.7598 c 0,-5.7559 -4.667,-10.4219 -10.422,-10.4219 -5.756,0 -10.422,4.666 -10.422,10.4219 l 0,18.7598 -4.169,0 0,-18.7598 c 0,-8.0586 6.533,-14.5918 14.591,-14.5918 8.058,0 14.59,6.5332 14.59,14.5918 l 0,18.7598 -4.168,0"
           style="fill:#1e1d1c;fill-opacity:1;fill-rule:nonzero;stroke:none"
           id="path110" /><path
           d="m 95.207525,58.387434 c 0,9.2097 -7.4656,16.6758 -16.6746,16.6758 -9.2105,0 -16.6762,-7.4661 -16.6762,-16.6758 0,-9.2102 7.4657,-16.6758 16.6762,-16.6758 0.2637,0 0.527,0.0086 0.7875,0.0203 l 2.1324,2.1328 -2.0503,2.0489 c -0.2879,-0.0184 -0.5766,-0.0321 -0.8696,-0.0321 -6.9082,0 -12.5074,5.5985 -12.5074,12.5059 0,6.907 5.5992,12.5066 12.5074,12.5066 6.9067,0 12.5071,-5.5996 12.5071,-12.5066 0,-4.136 -2.0106,-7.802 -5.1043,-10.0781 l 2.9668,-2.9668 c 0.0011,-0.002 0.0031,-0.0032 0.0042,-0.0051 3.8379,3.0558 6.3008,7.7637 6.3008,13.05"
           style="fill:#1e1d1c;fill-opacity:1;fill-rule:nonzero;stroke:none"
           id="path112" /><path
           d="m 88.084125,44.522134 -0.1172,0.1172 -3.0137,3.0157 -2.0226,2.0214 c -0.1766,0.1758 -0.4094,0.2723 -0.6582,0.2723 -0.2492,0 -0.4821,-0.0965 -0.6582,-0.2723 l -1.5102,-1.5097 c -0.1758,-0.1758 -0.2726,-0.4094 -0.2726,-0.6574 0,-0.2489 0.0968,-0.4825 0.2726,-0.6582 l 0.7512,-0.7508 2.2348,-2.2356 -1.9465,-1.9461 -1.0395,-1.0402 c -0.1758,-0.1758 -0.2726,-0.409 -0.2726,-0.6582 0,-0.2481 0.0968,-0.4824 0.2726,-0.659 l 1.5102,-1.509 c 0.1761,-0.1765 0.409,-0.2734 0.6582,-0.2734 0.2488,0 0.4816,0.0969 0.6582,0.2734 l 5.1535,5.1543 c 0.1758,0.1758 0.273,0.4094 0.273,0.6582 0,0.2481 -0.0972,0.4824 -0.273,0.6574"
           style="fill:#de1a32;fill-opacity:1;fill-rule:nonzero;stroke:none"
           id="path114" /><path
           d="m 51.167725,30.834634 0,3.5704 2.7379,0 0,-0.8469 -1.7391,0 0,-0.668 1.632,0 0,-0.8269 -1.632,0 0,-1.2286 -0.9988,0"
           style="fill:#1e1d1c;fill-opacity:1;fill-rule:nonzero;stroke:none"
           id="path116" /><path
           d="m 59.542725,33.628434 c -0.5774,0 -0.9742,-0.4168 -0.9742,-1.0086 0,-0.5957 0.4035,-1.0098 0.9742,-1.0098 0.5906,0 0.9742,0.418 0.9742,1.0098 0,0.6121 -0.3836,1.0086 -0.9742,1.0086 m 0,-2.8789 c -1.1668,0 -1.9828,0.6777 -1.9828,1.8703 0,1.1738 0.816,1.8719 1.9828,1.8719 1.1719,0 1.9828,-0.6836 1.9828,-1.8719 0,-1.1926 -0.8109,-1.8703 -1.9828,-1.8703"
           style="fill:#1e1d1c;fill-opacity:1;fill-rule:nonzero;stroke:none"
           id="path118" /><path
           d="m 66.337625,33.598334 0,-0.8566 0.7441,0 c 0.2649,0 0.3829,0.1984 0.3829,0.4133 0,0.2234 -0.127,0.4433 -0.393,0.4433 l -0.734,0 z m 2.2941,-2.7637 -1.1109,0 -0.8312,1.1583 -0.352,0 0,-1.1583 -1.0098,0 0,3.5704 1.7438,0 c 0.9129,0 1.3883,-0.586 1.3883,-1.2297 0,-0.4383 -0.1543,-0.8106 -0.7551,-1.077 l 0.9269,-1.2004 0,-0.0633"
           style="fill:#1e1d1c;fill-opacity:1;fill-rule:nonzero;stroke:none"
           id="path120" /><path
           d="m 76.106725,30.840534 -0.8222,0 -0.632,1.7078 -0.611,-1.7078 -0.8156,0 -1.3301,3.5645 1.1012,0 0.4578,-1.2539 c 0.0867,-0.2707 0.1379,-0.5618 0.1891,-0.8274 l 0.6566,2.0813 0.6992,0 0.6778,-2.0813 c 0.0523,0.2695 0.1179,0.5567 0.1992,0.8516 l 0.4289,1.2297 1.1008,0 -1.2997,-3.5645"
           style="fill:#1e1d1c;fill-opacity:1;fill-rule:nonzero;stroke:none"
           id="path122" /><path
           d="m 82.403625,33.403834 -0.4582,-1.1356 0.9133,0 -0.4551,1.1356 z m 0.7949,-1.9824 -1.5949,0 -0.2344,-0.5868 -1.0707,0 1.6012,3.5704 1.0199,0 1.595,-3.5704 -1.0801,0 -0.236,0.5868"
           style="fill:#1e1d1c;fill-opacity:1;fill-rule:nonzero;stroke:none"
           id="path124" /><path
           d="m 89.095425,33.598334 0,-0.8566 0.7442,0 c 0.2644,0 0.3828,0.1984 0.3828,0.4133 0,0.2234 -0.1282,0.4433 -0.3942,0.4433 l -0.7328,0 z m 2.2942,-2.7637 -1.111,0 -0.8312,1.1583 -0.352,0 0,-1.1583 -1.0101,0 0,3.5704 1.7429,0 c 0.9133,0 1.3871,-0.586 1.3871,-1.2297 0,-0.4383 -0.1531,-0.8106 -0.755,-1.077 l 0.9293,-1.2004 0,-0.0633"
           style="fill:#1e1d1c;fill-opacity:1;fill-rule:nonzero;stroke:none"
           id="path126" /><path
           d="m 96.155225,31.687034 0.5297,0 c 0.6422,0 0.866,0.4785 0.866,0.9687 0,0.4895 -0.2488,0.9075 -0.866,0.9075 l -0.5297,0 0,-1.8762 z m 0.5297,2.718 c 1.2593,0 1.866,-0.7766 1.866,-1.7598 0,-0.9824 -0.5859,-1.8117 -1.866,-1.8117 l -1.5297,0 0,3.5715 1.5297,0"
           style="fill:#1e1d1c;fill-opacity:1;fill-rule:nonzero;stroke:none"
           id="path128" /><path
           d="m 107.78773,33.572934 -1.041,0 0,0.8321 3.089,0 0,-0.8321 -1.044,0 0,-2.7383 -1.004,0 0,2.7383"
           style="fill:#1e1d1c;fill-opacity:1;fill-rule:nonzero;stroke:none"
           id="path130" /><path
           d="m 115.89373,30.829634 0,1.3527 -1.286,0 0,-1.3527 -1.008,0 0,3.5695 1.008,0 0,-1.3566 1.286,0 0,1.3566 0.999,0 0,-3.5695 -0.999,0"
           style="fill:#1e1d1c;fill-opacity:1;fill-rule:nonzero;stroke:none"
           id="path132" /><path
           d="m 120.92773,30.834634 1.00391,0 0,3.57031 -1.00391,0 0,-3.57031 z"
           style="fill:#1e1d1c;fill-opacity:1;fill-rule:nonzero;stroke:none"
           id="path134" /><path
           d="m 128.27073,32.451834 c -0.025,0.4286 -0.025,0.5907 -0.031,0.7286 l 0,1.2246 1.015,0 0,-3.5704 -0.857,0 -1.489,1.9227 0.016,-0.7793 0,-1.1434 -1.02,0 0,3.5704 0.857,0 1.509,-1.9532"
           style="fill:#1e1d1c;fill-opacity:1;fill-rule:nonzero;stroke:none"
           id="path136" /><path
           d="m 136.38973,34.342534 -1.448,-1.6875 c 0.5,-0.5508 1.076,-1.1926 1.571,-1.7571 l 0,-0.0633 -1.25,0 -1.019,1.1895 0,-1.1895 -1.01,0 0,3.5692 1.01,0 0,-1.1719 c 0.306,0.3762 0.637,0.7942 0.938,1.1719 l 1.208,0 0,-0.0613"
           style="fill:#1e1d1c;fill-opacity:1;fill-rule:nonzero;stroke:none"
           id="path138" /><path
           d="m 140.10373,30.834634 1.00391,0 0,3.57031 -1.00391,0 0,-3.57031 z"
           style="fill:#1e1d1c;fill-opacity:1;fill-rule:nonzero;stroke:none"
           id="path140" /><path
           d="m 147.44673,32.451834 c -0.025,0.4286 -0.025,0.5907 -0.03,0.7286 l 0,1.2246 1.014,0 0,-3.5704 -0.856,0 -1.489,1.9227 0.015,-0.7793 0,-1.1434 -1.02,0 0,3.5704 0.858,0 1.508,-1.9532"
           style="fill:#1e1d1c;fill-opacity:1;fill-rule:nonzero;stroke:none"
           id="path142" /><path
           d="m 154.97773,33.348334 c -0.261,0.2449 -0.578,0.3125 -0.816,0.3125 -0.581,0 -0.959,-0.3476 -0.959,-1.0469 0,-0.4601 0.239,-1.0246 0.959,-1.0246 0.189,0 0.483,0.0352 0.689,0.1828 l 0,0.461 -0.903,0 0,0.789 1.742,0 0,-1.5851 c -0.223,-0.4531 -0.845,-0.6981 -1.534,-0.6981 -1.412,0 -1.947,0.9422 -1.947,1.875 0,0.9344 0.612,1.8926 1.953,1.8926 0.494,0 0.933,-0.1015 1.401,-0.5761 l -0.585,-0.5821"
           style="fill:#1e1d1c;fill-opacity:1;fill-rule:nonzero;stroke:none"
           id="path144" /></g></g></g></svg>