<?xml version="1.0" encoding="UTF-8" standalone="no"?>
<svg
   xmlns:dc="http://purl.org/dc/elements/1.1/"
   xmlns:cc="http://creativecommons.org/ns#"
   xmlns:rdf="http://www.w3.org/1999/02/22-rdf-syntax-ns#"
   xmlns:svg="http://www.w3.org/2000/svg"
   xmlns="http://www.w3.org/2000/svg"
   viewBox="0 0 477.5 132.5"
   height="132.5"
   width="477.5"
   xml:space="preserve"
   version="1.1"
   id="svg2"><metadata
     id="metadata8"><rdf:RDF><cc:Work
         rdf:about=""><dc:format>image/svg+xml</dc:format><dc:type
           rdf:resource="http://purl.org/dc/dcmitype/StillImage" /></cc:Work></rdf:RDF></metadata><defs
     id="defs6" /><g
     transform="matrix(1.25,0,0,-1.25,0,132.5)"
     id="g10"><g
       transform="scale(0.1,0.1)"
       id="g12"><path
         id="path14"
         style="fill:#1a326c;fill-opacity:1;fill-rule:evenodd;stroke:none"
         d="m 697.883,496.695 648.747,0.082 c 14.17,0 19.66,-14.863 12.53,-25.07 L 1232.91,292.047 C 1221.34,275.57 1215,277.469 1198.88,277.512 l -638.845,0.172 c -33.957,0.007 -57.097,11.179 -71.785,31.972 L 188.223,811.328 c -11.598,17.735 -8.743,23.781 3.937,40.981 l 121.875,172.441 c 11.934,14.48 25.735,10.39 33.594,-1.57 L 641.398,528.43 c 16.641,-29.754 24.297,-31.36 56.485,-31.735" /><path
         id="path16"
         style="fill:#1a326c;fill-opacity:1;fill-rule:evenodd;stroke:none"
         d="m 379.637,1032.71 91.125,-152.976 c 4.937,-8.281 8.746,-11.105 21.426,-11.105 l 378.324,0.019 c 8.347,0 11.148,2.157 15.527,8.375 l 116.011,164.957 c 3.09,4.38 1.53,12.28 -6.609,12.28 l -604.671,-0.08 c -14.512,0 -17.129,-11.41 -11.133,-21.47" /><path
         id="path18"
         style="fill:#1a326c;fill-opacity:1;fill-rule:evenodd;stroke:none"
         d="m 967.125,886.316 165.455,0 c 11.9,0.082 15.74,-1.343 21.64,-10.847 l 198.54,-334.766 c 4.37,-7.359 -0.67,-17.414 -9.6,-17.414 l -177.07,-0.012 c -12.73,0 -22.07,3.536 -29.56,17.711 L 994.059,782.402 c -1.438,2.446 -3.164,3.352 -7.532,3.352 l -88.996,0 c -4.777,0 -7.07,3.328 -3.742,8.094 l 57.434,82.25 c 4.629,6.632 5,10.086 15.902,10.218" /><path
         id="path20"
         style="fill:#c0c7bf;fill-opacity:1;fill-rule:evenodd;stroke:none"
         d="m 833.949,708.699 29.039,41.293 c 3.168,5.121 4.055,5.61 11.114,5.746 l 75.535,0.012 c 4.633,0 6.781,-0.789 9.383,-4.996 l 128.31,-216.016 c 2.72,-4.578 0.85,-11.429 -9.15,-11.433 l -135.032,-0.184 c -5.593,0.055 -8.812,2.152 -11.14,6.399 l -95.266,160.933 c -5.336,8.531 -6.679,12.223 -2.793,18.246" /><path
         id="path22"
         style="fill:#dc1b30;fill-opacity:1;fill-rule:evenodd;stroke:none"
         d="m 516.34,245.512 654.79,-0.899 c 14.18,-0.015 16.9,-11.246 9.8,-21.406 L 1054.11,42.0586 c -9.81,-14.0234 -14.66,-16.7109 -30.73,-16.7109 l -638.841,0.1718 c -33.93,0.0078 -57.957,11.6211 -70.969,33.4883 L 12.7227,559.156 C 1.89453,577.363 1.41406,585.469 13.6211,603.008 L 133.938,775.836 c 10.726,15.41 30.902,7.473 38.195,-4.816 L 465.902,276.266 c 19.446,-27.411 18.227,-30.754 50.438,-30.754" /><path
         id="path24"
         style="fill:#c0c7bf;fill-opacity:1;fill-rule:evenodd;stroke:none"
         d="M 502.379,826.012 568.383,714.5 c 2.746,-4.633 4.605,-6.117 11.715,-6.117 l 182.757,-0.031 c 4.68,0 5.583,0.777 8.028,4.265 l 82.484,117.371 c 1.731,2.453 -0.621,8.375 -5.176,8.375 l -339.195,-0.039 c -8.125,0 -9.957,-6.676 -6.617,-12.312" /><path
         id="path26"
         style="fill:#1a326c;fill-opacity:1;fill-rule:evenodd;stroke:none"
         d="m 1809.88,851.555 -210.89,0 0,-821.848 490.18,0 0,164.754 -279.29,0 0,657.094 z m 584.17,0 -210.84,0 0,-821.848 210.84,0 0,821.848 z m 729.18,-40.762 c -36.78,18.496 -79.59,33.699 -123.59,44.566 -48.27,11.922 -97.82,18.586 -142.25,18.586 l 0,-0.039 c -87.71,0 -162.94,-27.437 -215.79,-75.789 -51.7,-47.297 -82.19,-114.855 -82.19,-196.558 0,-78.121 22.67,-125.438 62.53,-157.657 40.67,-32.871 100.12,-51.179 171.91,-70.39 l 0,-0.012 7.37,-1.961 c 54.1,-14.367 142.13,-37.746 142.13,-104.129 0,-30.515 -13.78,-53.234 -34.66,-68.937 -24.01,-18.059 -57.35,-26.403 -89.33,-26.403 -41.64,0 -80.39,10.188 -116.28,26.618 -31.25,14.308 -60.33,33.417 -87.25,54.64 L 2527.07,96.3633 c 43.47,-27.6328 91.09,-49.7149 141.07,-64.9961 51.29,-15.6758 105.13,-24.19532 159.54,-24.19532 46.19,0 93.22,6.28902 137.25,20.05082 39.99,12.5039 77.62,31.207 109.99,57.0039 33.97,27.1484 56.12,61.3554 69.78,98.8244 13.82,37.906 19,79.242 19,120.117 0,65.043 -22.8,111.543 -60.36,145.812 -38.19,34.825 -91.93,57.563 -152.77,74.454 l -0.05,0 -59.43,16.765 -0.22,0.082 -0.41,0.125 c -43.44,13.215 -110.69,33.672 -110.69,90.211 0,27.547 16.43,48.028 39.02,61.543 21.46,12.844 48.66,19.266 71.89,19.266 28.89,0 57.25,-5.492 83.93,-15.137 24.01,-8.68 46.59,-20.734 66.92,-35.18 l 81.7,149.684 z m 514.51,-123.953 181.5,0 0,164.754 -595.97,0 0,-164.754 192.56,0 0,-657.133 210.85,0 0,657.133 11.06,0" /></g></g></svg>