<?xml version="1.0" encoding="UTF-8" standalone="no"?>
<svg
   xmlns:dc="http://purl.org/dc/elements/1.1/"
   xmlns:cc="http://creativecommons.org/ns#"
   xmlns:rdf="http://www.w3.org/1999/02/22-rdf-syntax-ns#"
   xmlns:svg="http://www.w3.org/2000/svg"
   xmlns="http://www.w3.org/2000/svg"
   xmlns:sodipodi="http://sodipodi.sourceforge.net/DTD/sodipodi-0.dtd"
   xmlns:inkscape="http://www.inkscape.org/namespaces/inkscape"
   version="1.1"
   viewBox="0 0 900 220"
   id="Layer_4"
   inkscape:version="0.91 r13725"
   sodipodi:docname="logo-v2.svg"
   width="900"
   height="220">
  <sodipodi:namedview
     pagecolor="#ffffff"
     bordercolor="#666666"
     borderopacity="1"
     objecttolerance="10"
     gridtolerance="10"
     guidetolerance="10"
     inkscape:pageopacity="0"
     inkscape:pageshadow="2"
     inkscape:window-width="1280"
     inkscape:window-height="751"
     id="namedview3993"
     showgrid="false"
     showguides="false"
     inkscape:zoom="0.73897495"
     inkscape:cx="504.82088"
     inkscape:cy="172.83456"
     inkscape:window-x="0"
     inkscape:window-y="1"
     inkscape:window-maximized="1"
     inkscape:current-layer="flowRoot3412">
    <sodipodi:guide
       position="110.96452,503.4"
       orientation="0,1"
       id="guide4018" />
  </sodipodi:namedview>
  <metadata
     id="metadata3410">
    <rdf:RDF>
      <cc:Work
         rdf:about="">
        <dc:format>image/svg+xml</dc:format>
        <dc:type
           rdf:resource="http://purl.org/dc/dcmitype/StillImage" />
        <dc:title></dc:title>
      </cc:Work>
    </rdf:RDF>
  </metadata>
  <defs
     id="defs3408" />
  <style
     id="style3337">.st0{fill:none;} .st1{fill:#FFC107;} .st2{fill:#0F9D58;} .st3{opacity:0.2;fill:#BF360C;enable-background:new ;} .st4{opacity:0.2;fill:#263238;enable-background:new ;} .st5{opacity:0.2;fill:#FFFFFF;enable-background:new ;} .st6{fill:url(#XMLID_126_);} .st7{fill:url(#XMLID_127_);} .st8{fill:#4285F4;} .st9{fill:#DB4437;} .st10{opacity:0.2;fill:#1A237E;enable-background:new ;} .st11{opacity:0.2;fill:#3E2723;enable-background:new ;} .st12{fill:url(#XMLID_128_);} .st13{fill:#767676;}</style>
  <g
     id="XMLID_60_"
     transform="translate(31.414197,10)">
    <g
       id="XMLID_61_">
      <g
         id="XMLID_62_">
        <path
           d="M 122.5,90.6 70.1,0 0,0 57.8,100 0,200 l 70.1,0 52.4,-90.6 c 3.3,-5.8 3.3,-13 0,-18.8 z"
           class="st0"
           id="XMLID_106_"
           inkscape:connector-curvature="0"
           style="fill:none" />
        <path
           d="M 92.4,159.8 75.8,131.1 35.9,200 l 34.2,0 22.8,-39.4 z"
           class="st1"
           id="XMLID_105_"
           inkscape:connector-curvature="0"
           style="fill:#ffc107" />
        <path
           d="M 122.5,90.6 70.1,0 0,0 57.8,100 0,200 l 70.1,0 52.4,-90.6 c 3.3,-5.8 3.3,-13 0,-18.8 z"
           class="st0"
           id="XMLID_104_"
           inkscape:connector-curvature="0"
           style="fill:none" />
        <path
           d="m 57.8,100 18,31.1 L 35.9,200 0,200 Z"
           class="st2"
           id="XMLID_103_"
           inkscape:connector-curvature="0"
           style="fill:#0f9d58" />
        <path
           d="M 122.5,90.6 70.1,0 0,0 57.8,100 0,200 l 70.1,0 52.4,-90.6 c 3.3,-5.8 3.3,-13 0,-18.8 z"
           class="st0"
           id="XMLID_102_"
           inkscape:connector-curvature="0"
           style="fill:none" />
        <path
           d="m 70.1,198.4 -33.3,0 -0.9,1.6 34.2,0 22.8,-39.4 -0.5,-0.8 z"
           class="st3"
           id="XMLID_101_"
           inkscape:connector-curvature="0"
           style="opacity:0.2;fill:#bf360c;enable-background:new" />
        <path
           d="M 122.5,90.6 70.1,0 0,0 57.8,100 0,200 l 70.1,0 52.4,-90.6 c 3.3,-5.8 3.3,-13 0,-18.8 z"
           class="st0"
           id="XMLID_100_"
           inkscape:connector-curvature="0"
           style="fill:none" />
        <path
           d="M 0.9,198.4 0,200 l 35.9,0 0.9,-1.6 z"
           class="st4"
           id="XMLID_99_"
           inkscape:connector-curvature="0"
           style="opacity:0.2;fill:#263238;enable-background:new" />
        <path
           d="M 122.5,90.6 70.1,0 0,0 57.8,100 0,200 l 70.1,0 52.4,-90.6 c 3.3,-5.8 3.3,-13 0,-18.8 z"
           class="st0"
           id="XMLID_98_"
           inkscape:connector-curvature="0"
           style="fill:none" />
        <path
           d="m 0,200 0.9,0 57.4,-99.2 -0.5,-0.8 z"
           class="st5"
           id="XMLID_96_"
           inkscape:connector-curvature="0"
           style="opacity:0.2;fill:#ffffff;enable-background:new" />
        <path
           d="M 122.5,90.6 70.1,0 0,0 57.8,100 0,200 l 70.1,0 52.4,-90.6 c 3.3,-5.8 3.3,-13 0,-18.8 z"
           class="st0"
           id="XMLID_94_"
           inkscape:connector-curvature="0"
           style="fill:none" />
        <radialGradient
           gradientUnits="userSpaceOnUse"
           gradientTransform="matrix(1,0,0,-1,0,2867.46)"
           r="69.162003"
           cy="2707.501"
           cx="92.620003"
           id="XMLID_126_">
          <stop
             id="stop3354"
             stop-opacity=".2"
             stop-color="#BF360C"
             offset="0" />
          <stop
             id="stop3356"
             stop-opacity=".02"
             stop-color="#BF360C"
             offset="1" />
        </radialGradient>
        <path
           d="m 92.9,160.6 -17.1,-29.5 -4.2,7.2 z"
           class="st6"
           id="XMLID_92_"
           inkscape:connector-curvature="0"
           style="fill:url(#XMLID_126_)" />
        <path
           d="M 122.5,90.6 70.1,0 0,0 57.8,100 0,200 l 70.1,0 52.4,-90.6 c 3.3,-5.8 3.3,-13 0,-18.8 z"
           class="st0"
           id="XMLID_90_"
           inkscape:connector-curvature="0"
           style="fill:none" />
        <radialGradient
           gradientUnits="userSpaceOnUse"
           gradientTransform="matrix(1,0,0,-1,0,2867.46)"
           r="69.723"
           cy="2707.063"
           cx="92.422997"
           id="XMLID_127_">
          <stop
             id="stop3361"
             stop-opacity=".2"
             stop-color="#263238"
             offset="0" />
          <stop
             id="stop3363"
             stop-opacity=".02"
             stop-color="#263238"
             offset="1" />
        </radialGradient>
        <path
           d="m 71.6,138.3 4.2,-7.2 -18,-31.1 -8.5,14.8 z"
           class="st7"
           id="XMLID_89_"
           inkscape:connector-curvature="0"
           style="fill:url(#XMLID_127_)" />
        <path
           d="M 122.5,90.6 70.1,0 0,0 57.8,100 0,200 l 70.1,0 52.4,-90.6 c 3.3,-5.8 3.3,-13 0,-18.8 z"
           class="st0"
           id="XMLID_88_"
           inkscape:connector-curvature="0"
           style="fill:none" />
        <g
           id="XMLID_85_">
          <g
             id="XMLID_86_">
            <path
               d="M 35.9,0 0,0 92.9,160.6 110.8,129.5 Z"
               class="st8"
               id="XMLID_87_"
               inkscape:connector-curvature="0"
               style="fill:#4285f4" />
          </g>
        </g>
        <path
           d="M 122.5,90.6 70.1,0 0,0 57.8,100 0,200 l 70.1,0 52.4,-90.6 c 3.3,-5.8 3.3,-13 0,-18.8 z"
           class="st0"
           id="XMLID_84_"
           inkscape:connector-curvature="0"
           style="fill:none" />
        <path
           d="m 122.5,109.4 c 3.4,-5.8 3.4,-13 0,-18.8 L 70.1,0 35.9,0 l 74.9,129.5 11.7,-20.1 z"
           class="st9"
           id="XMLID_83_"
           inkscape:connector-curvature="0"
           style="fill:#db4437" />
        <path
           d="M 122.5,90.6 70.1,0 0,0 57.8,100 0,200 l 70.1,0 52.4,-90.6 c 3.3,-5.8 3.3,-13 0,-18.8 z"
           class="st0"
           id="XMLID_82_"
           inkscape:connector-curvature="0"
           style="fill:none" />
        <path
           d="M 110.8,129.5 110.4,128.7 92.9,159 0.9,0 0,0 92.9,160.6 110.8,129.5 Z"
           class="st10"
           id="XMLID_71_"
           inkscape:connector-curvature="0"
           style="opacity:0.2;fill:#1a237e;enable-background:new" />
        <path
           d="M 122.5,90.6 70.1,0 0,0 57.8,100 0,200 l 70.1,0 52.4,-90.6 c 3.3,-5.8 3.3,-13 0,-18.8 z"
           class="st0"
           id="XMLID_69_"
           inkscape:connector-curvature="0"
           style="fill:none" />
        <path
           d="m 70.1,1.6 52.4,90.6 c 1.5,2.7 2.3,5.6 2.5,8.6 0.1,-3.5 -0.7,-7 -2.5,-10.2 L 70.1,0 0,0 l 0.9,1.6 69.2,0 z"
           class="st5"
           id="XMLID_67_"
           inkscape:connector-curvature="0"
           style="opacity:0.2;fill:#ffffff;enable-background:new" />
        <path
           d="M 122.5,90.6 70.1,0 0,0 57.8,100 0,200 l 70.1,0 52.4,-90.6 c 3.3,-5.8 3.3,-13 0,-18.8 z"
           class="st0"
           id="XMLID_66_"
           inkscape:connector-curvature="0"
           style="fill:none" />
        <path
           d="m 110.8,129.5 11.6,-20.1 c 1.8,-3.1 2.6,-6.7 2.5,-10.2 -0.1,3 -0.9,5.9 -2.5,8.6 l -12.1,20.9 0.5,0.8 z"
           class="st11"
           id="XMLID_65_"
           inkscape:connector-curvature="0"
           style="opacity:0.2;fill:#3e2723;enable-background:new" />
        <path
           d="M 122.5,90.6 70.1,0 0,0 57.8,100 0,200 l 70.1,0 52.4,-90.6 c 3.3,-5.8 3.3,-13 0,-18.8 z"
           class="st0"
           id="XMLID_64_"
           inkscape:connector-curvature="0"
           style="fill:none" />
        <radialGradient
           gradientUnits="userSpaceOnUse"
           gradientTransform="matrix(1,0,0,-1,0,2867.46)"
           r="209.922"
           cy="2865.8979"
           cx="-1.563"
           id="XMLID_128_">
          <stop
             id="stop3380"
             stop-opacity=".1"
             stop-color="#FFF"
             offset="0" />
          <stop
             id="stop3382"
             stop-opacity="0"
             stop-color="#FFF"
             offset="1" />
        </radialGradient>
        <path
           d="M 122.5,90.6 70.1,0 0,0 57.8,100 0,200 l 70.1,0 52.4,-90.6 c 3.3,-5.8 3.3,-13 0,-18.8 z"
           class="st12"
           id="XMLID_63_"
           inkscape:connector-curvature="0"
           style="fill:url(#XMLID_128_)" />
      </g>
    </g>
  </g>
  <g
     transform="translate(-44.08056,183.09807)"
     style="font-style:normal;font-weight:normal;font-size:40px;line-height:125%;font-family:sans-serif;letter-spacing:0px;word-spacing:0px;fill:#000000;fill-opacity:1;stroke:none;stroke-width:1px;stroke-linecap:butt;stroke-linejoin:miter;stroke-opacity:1"
     id="flowRoot3412">
    <flowRoot
       xml:space="preserve"
       id="flowRoot4186"
       style="font-style:normal;font-weight:normal;font-size:40px;line-height:125%;font-family:sans-serif;letter-spacing:0px;word-spacing:0px;fill:#000000;fill-opacity:1;stroke:none;stroke-width:1px;stroke-linecap:butt;stroke-linejoin:miter;stroke-opacity:1"
       transform="translate(99.428317,-382.47222)"><flowRegion
         id="flowRegion4188"><rect
           id="rect4190"
           width="856.40326"
           height="274.62314"
           x="150.2294"
           y="206.69812" /></flowRegion><flowPara
         id="flowPara4192"
         style="font-style:normal;font-variant:normal;font-weight:normal;font-stretch:normal;font-size:110px;line-height:100%;font-family:'Product Sans';-inkscape-font-specification:'Product Sans';fill:#808080;fill-opacity:1">GDG DevFest</flowPara><flowPara
         id="flowPara4194"
         style="font-style:normal;font-variant:normal;font-weight:normal;font-stretch:normal;font-size:110px;line-height:100%;font-family:'Product Sans';-inkscape-font-specification:'Product Sans';fill:#808080;fill-opacity:1">Pisa 0.1</flowPara></flowRoot>  </g>
</svg>
