<?xml version="1.0" encoding="UTF-8" standalone="no"?>
<svg
   xmlns:dc="http://purl.org/dc/elements/1.1/"
   xmlns:cc="http://creativecommons.org/ns#"
   xmlns:rdf="http://www.w3.org/1999/02/22-rdf-syntax-ns#"
   xmlns:svg="http://www.w3.org/2000/svg"
   xmlns="http://www.w3.org/2000/svg"
   xmlns:sodipodi="http://sodipodi.sourceforge.net/DTD/sodipodi-0.dtd"
   xmlns:inkscape="http://www.inkscape.org/namespaces/inkscape"
   version="1.1"
   viewBox="0 0 839 200"
   id="Layer_4"
   inkscape:version="0.91 r13725"
   sodipodi:docname="logo.svg">
  <sodipodi:namedview
     pagecolor="#ffffff"
     bordercolor="#666666"
     borderopacity="1"
     objecttolerance="10"
     gridtolerance="10"
     guidetolerance="10"
     inkscape:pageopacity="0"
     inkscape:pageshadow="2"
     inkscape:window-width="640"
     inkscape:window-height="480"
     id="namedview3993"
     showgrid="false"
     showguides="false"
     inkscape:zoom="0.36948749"
     inkscape:cx="419.5"
     inkscape:cy="100"
     inkscape:window-x="0"
     inkscape:window-y="0"
     inkscape:window-maximized="0"
     inkscape:current-layer="flowRoot3412">
    <sodipodi:guide
       position="110.96452,503.4"
       orientation="0,1"
       id="guide4018" />
  </sodipodi:namedview>
  <metadata
     id="metadata3410">
    <rdf:RDF>
      <cc:Work
         rdf:about="">
        <dc:format>image/svg+xml</dc:format>
        <dc:type
           rdf:resource="http://purl.org/dc/dcmitype/StillImage" />
        <dc:title />
      </cc:Work>
    </rdf:RDF>
  </metadata>
  <defs
     id="defs3408" />
  <style
     id="style3337">.st0{fill:none;} .st1{fill:#FFC107;} .st2{fill:#0F9D58;} .st3{opacity:0.2;fill:#BF360C;enable-background:new ;} .st4{opacity:0.2;fill:#263238;enable-background:new ;} .st5{opacity:0.2;fill:#FFFFFF;enable-background:new ;} .st6{fill:url(#XMLID_126_);} .st7{fill:url(#XMLID_127_);} .st8{fill:#4285F4;} .st9{fill:#DB4437;} .st10{opacity:0.2;fill:#1A237E;enable-background:new ;} .st11{opacity:0.2;fill:#3E2723;enable-background:new ;} .st12{fill:url(#XMLID_128_);} .st13{fill:#767676;}</style>
  <g
     id="XMLID_60_">
    <g
       id="XMLID_61_">
      <g
         id="XMLID_62_">
        <path
           d="M122.5 90.6L70.1 0H0l57.8 100L0 200h70.1l52.4-90.6c3.3-5.8 3.3-13 0-18.8z"
           class="st0"
           id="XMLID_106_" />
        <path
           d="M92.4 159.8l-16.6-28.7L35.9 200h34.2l22.8-39.4z"
           class="st1"
           id="XMLID_105_" />
        <path
           d="M122.5 90.6L70.1 0H0l57.8 100L0 200h70.1l52.4-90.6c3.3-5.8 3.3-13 0-18.8z"
           class="st0"
           id="XMLID_104_" />
        <path
           d="M57.8 100l18 31.1L35.9 200H0z"
           class="st2"
           id="XMLID_103_" />
        <path
           d="M122.5 90.6L70.1 0H0l57.8 100L0 200h70.1l52.4-90.6c3.3-5.8 3.3-13 0-18.8z"
           class="st0"
           id="XMLID_102_" />
        <path
           d="M70.1 198.4H36.8l-.9 1.6h34.2l22.8-39.4-.5-.8z"
           class="st3"
           id="XMLID_101_" />
        <path
           d="M122.5 90.6L70.1 0H0l57.8 100L0 200h70.1l52.4-90.6c3.3-5.8 3.3-13 0-18.8z"
           class="st0"
           id="XMLID_100_" />
        <path
           d="M.9 198.4L0 200h35.9l.9-1.6z"
           class="st4"
           id="XMLID_99_" />
        <path
           d="M122.5 90.6L70.1 0H0l57.8 100L0 200h70.1l52.4-90.6c3.3-5.8 3.3-13 0-18.8z"
           class="st0"
           id="XMLID_98_" />
        <path
           d="M0 200h.9l57.4-99.2-.5-.8z"
           class="st5"
           id="XMLID_96_" />
        <path
           d="M122.5 90.6L70.1 0H0l57.8 100L0 200h70.1l52.4-90.6c3.3-5.8 3.3-13 0-18.8z"
           class="st0"
           id="XMLID_94_" />
        <radialGradient
           gradientUnits="userSpaceOnUse"
           gradientTransform="matrix(1 0 0 -1 0 2867.46)"
           r="69.162"
           cy="2707.501"
           cx="92.62"
           id="XMLID_126_">
          <stop
             id="stop3354"
             stop-opacity=".2"
             stop-color="#BF360C"
             offset="0" />
          <stop
             id="stop3356"
             stop-opacity=".02"
             stop-color="#BF360C"
             offset="1" />
        </radialGradient>
        <path
           d="M92.9 160.6l-17.1-29.5-4.2 7.2z"
           class="st6"
           id="XMLID_92_" />
        <path
           d="M122.5 90.6L70.1 0H0l57.8 100L0 200h70.1l52.4-90.6c3.3-5.8 3.3-13 0-18.8z"
           class="st0"
           id="XMLID_90_" />
        <radialGradient
           gradientUnits="userSpaceOnUse"
           gradientTransform="matrix(1 0 0 -1 0 2867.46)"
           r="69.723"
           cy="2707.063"
           cx="92.423"
           id="XMLID_127_">
          <stop
             id="stop3361"
             stop-opacity=".2"
             stop-color="#263238"
             offset="0" />
          <stop
             id="stop3363"
             stop-opacity=".02"
             stop-color="#263238"
             offset="1" />
        </radialGradient>
        <path
           d="M71.6 138.3l4.2-7.2-18-31.1-8.5 14.8z"
           class="st7"
           id="XMLID_89_" />
        <path
           d="M122.5 90.6L70.1 0H0l57.8 100L0 200h70.1l52.4-90.6c3.3-5.8 3.3-13 0-18.8z"
           class="st0"
           id="XMLID_88_" />
        <g
           id="XMLID_85_">
          <g
             id="XMLID_86_">
            <path
               d="M35.9 0H0l92.9 160.6 17.9-31.1z"
               class="st8"
               id="XMLID_87_" />
          </g>
        </g>
        <path
           d="M122.5 90.6L70.1 0H0l57.8 100L0 200h70.1l52.4-90.6c3.3-5.8 3.3-13 0-18.8z"
           class="st0"
           id="XMLID_84_" />
        <path
           d="M122.5 109.4c3.4-5.8 3.4-13 0-18.8L70.1 0H35.9l74.9 129.5 11.7-20.1z"
           class="st9"
           id="XMLID_83_" />
        <path
           d="M122.5 90.6L70.1 0H0l57.8 100L0 200h70.1l52.4-90.6c3.3-5.8 3.3-13 0-18.8z"
           class="st0"
           id="XMLID_82_" />
        <path
           d="M110.8 129.5l-.4-.8L92.9 159 .9 0H0l92.9 160.6 17.9-31.1z"
           class="st10"
           id="XMLID_71_" />
        <path
           d="M122.5 90.6L70.1 0H0l57.8 100L0 200h70.1l52.4-90.6c3.3-5.8 3.3-13 0-18.8z"
           class="st0"
           id="XMLID_69_" />
        <path
           d="M70.1 1.6l52.4 90.6c1.5 2.7 2.3 5.6 2.5 8.6.1-3.5-.7-7-2.5-10.2L70.1 0H0l.9 1.6h69.2z"
           class="st5"
           id="XMLID_67_" />
        <path
           d="M122.5 90.6L70.1 0H0l57.8 100L0 200h70.1l52.4-90.6c3.3-5.8 3.3-13 0-18.8z"
           class="st0"
           id="XMLID_66_" />
        <path
           d="M110.8 129.5l11.6-20.1c1.8-3.1 2.6-6.7 2.5-10.2-.1 3-.9 5.9-2.5 8.6l-12.1 20.9.5.8z"
           class="st11"
           id="XMLID_65_" />
        <path
           d="M122.5 90.6L70.1 0H0l57.8 100L0 200h70.1l52.4-90.6c3.3-5.8 3.3-13 0-18.8z"
           class="st0"
           id="XMLID_64_" />
        <radialGradient
           gradientUnits="userSpaceOnUse"
           gradientTransform="matrix(1 0 0 -1 0 2867.46)"
           r="209.922"
           cy="2865.898"
           cx="-1.563"
           id="XMLID_128_">
          <stop
             id="stop3380"
             stop-opacity=".1"
             stop-color="#FFF"
             offset="0" />
          <stop
             id="stop3382"
             stop-opacity="0"
             stop-color="#FFF"
             offset="1" />
        </radialGradient>
        <path
           d="M122.5 90.6L70.1 0H0l57.8 100L0 200h70.1l52.4-90.6c3.3-5.8 3.3-13 0-18.8z"
           class="st12"
           id="XMLID_63_" />
      </g>
    </g>
  </g>
  <g
     transform="translate(-44.08056,163.09807)"
     style="font-style:normal;font-weight:normal;font-size:40px;line-height:125%;font-family:sans-serif;letter-spacing:0px;word-spacing:0px;fill:#000000;fill-opacity:1;stroke:none;stroke-width:1px;stroke-linecap:butt;stroke-linejoin:miter;stroke-opacity:1"
     id="flowRoot3412">
    <path
       d="m 196.17617,-79.771191 0,-80.549999 24.6375,0 q 18.45,0 29.5875,11.1375 11.25,11.1375 11.25,29.1375 0,18.1125 -11.25,29.249999 -11.1375,11.025 -29.5875,11.025 l -24.6375,0 z m 10.35,-70.649999 0,60.749999 14.2875,0 q 14.0625,0 22.1625,-7.9875 8.1,-8.099999 8.1,-22.387499 0,-14.175 -8.1,-22.275 -8.1,-8.1 -22.1625,-8.1 l -14.2875,0 z"
       style="font-style:normal;font-variant:normal;font-weight:normal;font-stretch:normal;font-size:112.5px;line-height:100%;font-family:'Product Sans';-inkscape-font-specification:'Product Sans';fill:#808080"
       id="path3996" />
    <path
       d="m 295.15156,-77.971191 q -12.15,0 -20.025,-8.325 -7.875,-8.325 -7.875,-21.037499 0,-12.6 7.65,-20.925 7.65,-8.4375 19.575,-8.4375 12.2625,0 19.4625,7.9875 7.3125,7.875 7.3125,22.1625 l -0.1125,1.125 -43.3125,0 q 0.225,8.099999 5.4,13.049999 5.175,4.95 12.375,4.95 9.9,0 15.525,-9.9 l 9.225,4.5 q -3.7125,6.975 -10.35,10.9125 -6.525,3.9375 -14.85,3.9375 z m -16.5375,-35.999999 31.6125,0 q -0.45,-5.7375 -4.725,-9.45 -4.1625,-3.825 -11.25,-3.825 -5.85,0 -10.125,3.6 -4.1625,3.6 -5.5125,9.675 z"
       style="font-style:normal;font-variant:normal;font-weight:normal;font-stretch:normal;font-size:112.5px;line-height:100%;font-family:'Product Sans';-inkscape-font-specification:'Product Sans';fill:#808080"
       id="path3998" />
    <path
       d="m 356.28301,-79.771191 -10.35,0 -22.275,-55.124999 11.25,0 16.2,42.749999 0.225,0 16.425,-42.749999 11.025,0 -22.5,55.124999 z"
       style="font-style:normal;font-variant:normal;font-weight:normal;font-stretch:normal;font-size:112.5px;line-height:100%;font-family:'Product Sans';-inkscape-font-specification:'Product Sans';fill:#808080"
       id="path4000" />
    <path
       d="m 397.68828,-114.30869 0,34.537499 -10.35,0 0,-80.549999 47.025,0 0,9.9 -36.675,0 0,26.4375 33.075,0 0,9.675 -33.075,0 z"
       style="font-style:normal;font-variant:normal;font-weight:normal;font-stretch:normal;font-size:112.5px;line-height:100%;font-family:'Product Sans';-inkscape-font-specification:'Product Sans';fill:#808080"
       id="path4002" />
    <path
       d="m 465.65937,-77.971191 q -12.15,0 -20.025,-8.325 -7.875,-8.325 -7.875,-21.037499 0,-12.6 7.65,-20.925 7.65,-8.4375 19.575,-8.4375 12.2625,0 19.4625,7.9875 7.3125,7.875 7.3125,22.1625 l -0.11249,1.125 -43.3125,0 q 0.22499,8.099999 5.39999,13.049999 5.175,4.95 12.375,4.95 9.9,0 15.525,-9.9 l 9.225,4.5 q -3.71249,6.975 -10.35,10.9125 -6.525,3.9375 -14.85,3.9375 z m -16.5375,-35.999999 31.6125,0 q -0.45,-5.7375 -4.725,-9.45 -4.1625,-3.825 -11.25,-3.825 -5.85,0 -10.125,3.6 -4.1625,3.6 -5.5125,9.675 z"
       style="font-style:normal;font-variant:normal;font-weight:normal;font-stretch:normal;font-size:112.5px;line-height:100%;font-family:'Product Sans';-inkscape-font-specification:'Product Sans';fill:#808080"
       id="path4004" />
    <path
       d="m 543.96113,-95.071191 q 0,7.2 -6.3,12.15 -6.3,4.95 -15.8625,4.95 -8.325,0 -14.625,-4.275 -6.3,-4.3875 -9,-11.475 l 9.225,-3.9375 q 2.025,4.95 5.85,7.7625 3.9375,2.7 8.55,2.7 4.95,0 8.2125,-2.1375 3.375,-2.1375 3.375,-5.0625 0,-5.2875 -8.1,-7.762499 l -9.45,-2.3625 q -16.0875,-4.05 -16.0875,-15.525 0,-7.5375 6.075,-12.0375 6.1875,-4.6125 15.75,-4.6125 7.3125,0 13.1625,3.4875 5.9625,3.4875 8.325,9.3375 l -9.225,3.825 q -1.575,-3.4875 -5.175,-5.4 -3.4875,-2.025 -7.875,-2.025 -4.05,0 -7.3125,2.025 -3.15,2.025 -3.15,4.95 0,4.725 8.8875,6.75 l 8.325,2.1375 q 16.425,4.05 16.425,16.537499 z"
       style="font-style:normal;font-variant:normal;font-weight:normal;font-stretch:normal;font-size:112.5px;line-height:100%;font-family:'Product Sans';-inkscape-font-specification:'Product Sans';fill:#808080"
       id="path4006" />
    <path
       d="m 573.91602,-78.871191 q -6.75,0 -11.25,-4.1625 -4.3875,-4.1625 -4.5,-11.5875 l 0,-30.824999 -9.675,0 0,-9.45 9.675,0 0,-16.875 10.35,0 0,16.875 13.5,0 0,9.45 -13.5,0 0,27.449999 q 0,5.5125 2.1375,7.5375 2.1375,1.9125 4.8375,1.9125 1.2375,0 2.3625,-0.225 1.2375,-0.3375 2.25,-0.7875 l 3.2625,9.225 q -4.05,1.4625 -9.45,1.4625 z"
       style="font-style:normal;font-variant:normal;font-weight:normal;font-stretch:normal;font-size:112.5px;line-height:100%;font-family:'Product Sans';-inkscape-font-specification:'Product Sans';fill:#808080"
       id="path4008" />
    <path
       d="m 206.52617,0.10380867 0,32.62500033 -10.35,0 0,-80.55 27.45,0 q 10.4625,0 17.775,6.975 7.425,6.975 7.425,16.9875 0,10.2375 -7.425,17.0999997 -7.2,6.86249997 -17.775,6.86249997 l -17.1,0 z m 0,-38.02499967 0,28.1249997 17.325,0 q 6.1875,0 10.2375,-4.1624997 4.1625,-4.1625 4.1625,-9.9 0,-5.625 -4.1625,-9.7875 -4.05,-4.275 -10.2375,-4.275 l -17.325,0 z"
       style="font-style:normal;font-variant:normal;font-weight:normal;font-stretch:normal;font-size:112.5px;line-height:100%;font-family:'Product Sans';-inkscape-font-specification:'Product Sans';fill:#808080"
       id="path4010" />
    <path
       d="m 271.26465,-41.408691 q 0,3.0375 -2.1375,5.175 -2.1375,2.1375 -5.175,2.1375 -3.0375,0 -5.175,-2.1375 -2.1375,-2.1375 -2.1375,-5.175 0,-3.0375 2.1375,-5.175 2.1375,-2.1375 5.175,-2.1375 3.0375,0 5.175,2.1375 2.1375,2.1375 2.1375,5.175 z m -2.1375,19.0125 0,55.125 -10.35,0 0,-55.125 10.35,0 z"
       style="font-style:normal;font-variant:normal;font-weight:normal;font-stretch:normal;font-size:112.5px;line-height:100%;font-family:'Product Sans';-inkscape-font-specification:'Product Sans';fill:#808080"
       id="path4012" />
    <path
       d="m 324.89375,17.428809 q 0,7.2 -6.3,12.15 -6.3,4.95 -15.8625,4.95 -8.325,0 -14.625,-4.275 -6.3,-4.3875 -9,-11.475 l 9.225,-3.9375 q 2.025,4.95 5.85,7.7625 3.9375,2.7 8.55,2.7 4.95,0 8.2125,-2.1375 3.375,-2.1375 3.375,-5.0625 0,-5.2875 -8.1,-7.7625 l -9.45,-2.3625003 q -16.0875,-4.05 -16.0875,-15.525 0,-7.5374997 6.075,-12.0374997 6.1875,-4.6125 15.75,-4.6125 7.3125,0 13.1625,3.4875 5.9625,3.4875 8.325,9.3375 l -9.225,3.8249997 q -1.575,-3.4874997 -5.175,-5.3999997 -3.4875,-2.025 -7.875,-2.025 -4.05,0 -7.3125,2.025 -3.15,2.025 -3.15,4.9499997 0,4.725 8.8875,6.75 l 8.325,2.13749997 q 16.425,4.05000003 16.425,16.53750033 z"
       style="font-style:normal;font-variant:normal;font-weight:normal;font-stretch:normal;font-size:112.5px;line-height:100%;font-family:'Product Sans';-inkscape-font-specification:'Product Sans';fill:#808080"
       id="path4014" />
    <path
       d="m 341.87949,15.853809 q 0,4.05 3.375,6.75 3.4875,2.7 8.1,2.7 6.525,0 11.5875,-4.8375 5.175,-4.8375 5.175,-11.3625003 -4.8375,-3.825 -13.5,-3.825 -6.3,0 -10.575,3.0375 -4.1625,3.0375003 -4.1625,7.5375003 z m 13.3875,-40.05 q 11.475,0 18.1125,6.1875 6.6375,6.075 6.6375,16.7624997 l 0,33.9750003 -9.9,0 0,-7.65 -0.45,0 q -6.4125,9.45 -17.1,9.45 -9.1125,0 -15.3,-5.4 -6.075,-5.4 -6.075,-13.5 0,-8.5500003 6.4125,-13.6125003 6.525,-5.0625 17.325,-5.0625 9.225,0 15.1875,3.37499997 l 0,-2.36249997 q 0,-5.4 -4.275,-9.1124997 -4.275,-3.825 -10.0125,-3.825 -8.6625,0 -13.725,7.3124997 l -9.1125,-5.7374997 q 7.5375,-10.8 22.275,-10.8 z"
       style="font-style:normal;font-variant:normal;font-weight:normal;font-stretch:normal;font-size:112.5px;line-height:100%;font-family:'Product Sans';-inkscape-font-specification:'Product Sans';fill:#808080"
       id="path4016" />
  </g>
</svg>
