<?xml version="1.0" encoding="UTF-8" standalone="no"?>
<svg
   xmlns:dc="http://purl.org/dc/elements/1.1/"
   xmlns:cc="http://creativecommons.org/ns#"
   xmlns:rdf="http://www.w3.org/1999/02/22-rdf-syntax-ns#"
   xmlns:svg="http://www.w3.org/2000/svg"
   xmlns="http://www.w3.org/2000/svg"
   xmlns:sodipodi="http://sodipodi.sourceforge.net/DTD/sodipodi-0.dtd"
   xmlns:inkscape="http://www.inkscape.org/namespaces/inkscape"
   id="Layer_4"
   width="536.9"
   height="128"
   version="1.1"
   sodipodi:docname="logo.svg"
   inkscape:version="0.92.2 5c3e80d, 2017-08-06">
  <metadata
     id="metadata58">
    <rdf:RDF>
      <cc:Work
         rdf:about="">
        <dc:format>image/svg+xml</dc:format>
        <dc:type
           rdf:resource="http://purl.org/dc/dcmitype/StillImage" />
        <dc:title></dc:title>
      </cc:Work>
    </rdf:RDF>
  </metadata>
  <defs
     id="defs56" />
  <sodipodi:namedview
     pagecolor="#ffffff"
     bordercolor="#666666"
     borderopacity="1"
     objecttolerance="10"
     gridtolerance="10"
     guidetolerance="10"
     inkscape:pageopacity="0"
     inkscape:pageshadow="2"
     inkscape:window-width="1446"
     inkscape:window-height="981"
     id="namedview54"
     showgrid="false"
     inkscape:zoom="1.7068548"
     inkscape:cx="268.45001"
     inkscape:cy="64"
     inkscape:window-x="0"
     inkscape:window-y="0"
     inkscape:window-maximized="0"
     inkscape:current-layer="XMLID_1_" />
  <style
     id="style2">.st0{fill:none}.st5{opacity:.2;enable-background:new}.st13,.st5{fill:#fff}</style>
  <g
     id="XMLID_2_">
    <g
       id="XMLID_3_">
      <g
         id="XMLID_4_">
        <path
           id="XMLID_33_"
           d="M78.7 58L45.1 0H.3l37 64-37 64h44.8l33.5-58c2.2-3.7 2.2-8.3.1-12z"
           class="st0" />
        <path
           id="XMLID_32_"
           fill="#ffc107"
           d="M59.4 102.3L48.8 83.9 23.3 128h21.8l14.6-25.2z" />
        <path
           id="XMLID_31_"
           d="M78.7 58L45.1 0H.3l37 64-37 64h44.8l33.5-58c2.2-3.7 2.2-8.3.1-12z"
           class="st0" />
        <path
           id="XMLID_30_"
           fill="#0f9d58"
           d="M37.3 64l11.5 19.9L23.3 128H.3z" />
        <path
           id="XMLID_29_"
           d="M78.7 58L45.1 0H.3l37 64-37 64h44.8l33.5-58c2.2-3.7 2.2-8.3.1-12z"
           class="st0" />
        <path
           id="XMLID_28_"
           fill="#bf360c"
           d="M45.1 127H23.8l-.5 1h21.8l14.6-25.2-.3-.5z"
           opacity=".2" />
        <path
           id="XMLID_27_"
           d="M78.7 58L45.1 0H.3l37 64-37 64h44.8l33.5-58c2.2-3.7 2.2-8.3.1-12z"
           class="st0" />
        <path
           id="XMLID_26_"
           fill="#263238"
           d="M.8 127l-.5 1h23l.5-1z"
           opacity=".2" />
        <path
           id="XMLID_25_"
           d="M78.7 58L45.1 0H.3l37 64-37 64h44.8l33.5-58c2.2-3.7 2.2-8.3.1-12z"
           class="st0" />
        <path
           id="XMLID_24_"
           d="M.3 128h.5l36.8-63.5-.3-.5z"
           class="st5" />
        <path
           id="XMLID_23_"
           d="M78.7 58L45.1 0H.3l37 64-37 64h44.8l33.5-58c2.2-3.7 2.2-8.3.1-12z"
           class="st0" />
        <radialGradient
           id="XMLID_34_"
           cx="59.537"
           cy="27.626"
           r="44.264"
           gradientTransform="matrix(1 0 0 -1 0 130)"
           gradientUnits="userSpaceOnUse">
          <stop
             offset="0"
             stop-color="#bf360c"
             stop-opacity=".2"
             id="stop15" />
          <stop
             offset="1"
             stop-color="#bf360c"
             stop-opacity=".02"
             id="stop17" />
        </radialGradient>
        <path
           id="XMLID_22_"
           fill="url(#XMLID_34_)"
           d="M59.7 102.8L48.8 83.9l-2.7 4.6z" />
        <path
           id="XMLID_21_"
           d="M78.7 58L45.1 0H.3l37 64-37 64h44.8l33.5-58c2.2-3.7 2.2-8.3.1-12z"
           class="st0" />
        <radialGradient
           id="XMLID_35_"
           cx="59.411"
           cy="27.346"
           r="44.623"
           gradientTransform="matrix(1 0 0 -1 0 130)"
           gradientUnits="userSpaceOnUse">
          <stop
             offset="0"
             stop-color="#263238"
             stop-opacity=".2"
             id="stop22" />
          <stop
             offset="1"
             stop-color="#263238"
             stop-opacity=".02"
             id="stop24" />
        </radialGradient>
        <path
           id="XMLID_20_"
           fill="url(#XMLID_35_)"
           d="M46.1 88.5l2.7-4.6L37.3 64l-5.5 9.5z" />
        <path
           id="XMLID_19_"
           d="M78.7 58L45.1 0H.3l37 64-37 64h44.8l33.5-58c2.2-3.7 2.2-8.3.1-12z"
           class="st0" />
        <g
           id="XMLID_16_">
          <g
             id="XMLID_17_">
            <path
               id="XMLID_18_"
               fill="#4285f4"
               d="M23.3 0H.3l59.4 102.8 11.5-19.9z" />
          </g>
        </g>
        <path
           id="XMLID_15_"
           d="M78.7 58L45.1 0H.3l37 64-37 64h44.8l33.5-58c2.2-3.7 2.2-8.3.1-12z"
           class="st0" />
        <path
           id="XMLID_14_"
           fill="#db4437"
           d="M78.7 70c2.1-3.7 2.1-8.3 0-12L45.1 0H23.3l47.9 82.9L78.7 70z" />
        <path
           id="XMLID_13_"
           d="M78.7 58L45.1 0H.3l37 64-37 64h44.8l33.5-58c2.2-3.7 2.2-8.3.1-12z"
           class="st0" />
        <path
           id="XMLID_12_"
           fill="#1a237e"
           d="M71.2 82.9l-.3-.5-11.2 19.4L.8 0H.3l59.4 102.8 11.5-19.9z"
           opacity=".2" />
        <path
           id="XMLID_11_"
           d="M78.7 58L45.1 0H.3l37 64-37 64h44.8l33.5-58c2.2-3.7 2.2-8.3.1-12z"
           class="st0" />
        <path
           id="XMLID_10_"
           d="M45.1 1l33.5 58c1 1.7 1.5 3.6 1.6 5.5.1-2.2-.4-4.5-1.6-6.5L45.1 0H.3l.6 1h44.2z"
           class="st5" />
        <path
           id="XMLID_9_"
           d="M78.7 58L45.1 0H.3l37 64-37 64h44.8l33.5-58c2.2-3.7 2.2-8.3.1-12z"
           class="st0" />
        <path
           id="XMLID_8_"
           fill="#3e2723"
           d="M71.2 82.9L78.7 70c1.2-2 1.7-4.3 1.6-6.5-.1 1.9-.6 3.8-1.6 5.5L71 82.4l.2.5z"
           opacity=".2" />
        <path
           id="XMLID_6_"
           d="M78.7 58L45.1 0H.3l37 64-37 64h44.8l33.5-58c2.2-3.7 2.2-8.3.1-12z"
           class="st0" />
        <radialGradient
           id="XMLID_36_"
           cx="-.74"
           cy="129"
           r="134.35"
           gradientTransform="matrix(1 0 0 -1 0 130)"
           gradientUnits="userSpaceOnUse">
          <stop
             offset="0"
             stop-color="#fff"
             stop-opacity=".1"
             id="stop41" />
          <stop
             offset="1"
             stop-color="#fff"
             stop-opacity="0"
             id="stop43" />
        </radialGradient>
        <path
           id="XMLID_5_"
           fill="url(#XMLID_36_)"
           d="M78.7 58L45.1 0H.3l37 64-37 64h44.8l33.5-58c2.2-3.7 2.2-8.3.1-12z" />
      </g>
    </g>
  </g>
  <g
     id="XMLID_1_">
    <path
       style="fill:#ffffff"
       inkscape:connector-curvature="0"
       d="m 176.6,33.2 c 0,7 -2.1,12.6 -6.2,16.7 -4.7,4.9 -10.9,7.4 -18.4,7.4 -7.2,0 -13.4,-2.5 -18.4,-7.5 -5.1,-5 -7.6,-11.2 -7.6,-18.7 0,-7.5 2.5,-13.6 7.6,-18.7 5.1,-5 11.2,-7.5 18.4,-7.5 3.6,0 7,0.7 10.3,2.1 3.3,1.4 5.9,3.3 7.8,5.6 l -4.4,4.4 c -3.3,-4 -7.9,-6 -13.7,-6 -5.3,0 -9.8,1.9 -13.7,5.6 -3.8,3.7 -5.8,8.5 -5.8,14.5 0,5.9 1.9,10.7 5.8,14.5 3.9,3.7 8.4,5.6 13.7,5.6 5.6,0 10.3,-1.9 14,-5.6 2.4,-2.4 3.8,-5.8 4.2,-10.1 H 152 v -6 h 24.3 c 0.1,1.2 0.3,2.5 0.3,3.7 z m 6.3,23 V 6.1 h 15.3 c 7.7,0 13.9,2.3 18.5,7 4.6,4.6 6.9,10.7 6.9,18.1 0,7.4 -2.3,13.5 -6.9,18.1 -4.6,4.6 -10.8,7 -18.5,7 h -15.3 z m 6.5,-6.2 h 8.9 c 5.8,0 10.4,-1.7 13.8,-5 3.4,-3.3 5.1,-8 5.1,-13.9 0,-5.9 -1.7,-10.6 -5.1,-13.9 -3.4,-3.3 -8,-5 -13.8,-5 h -8.9 z m 89,-16.8 c 0,7 -2.1,12.6 -6.2,16.7 -4.7,4.9 -10.9,7.4 -18.4,7.4 -7.2,0 -13.4,-2.5 -18.4,-7.5 -5.1,-5 -7.6,-11.2 -7.6,-18.7 0,-7.5 2.5,-13.6 7.6,-18.7 5.1,-5 11.2,-7.5 18.4,-7.5 3.6,0 7,0.7 10.3,2.1 3.3,1.4 5.9,3.3 7.8,5.6 l -4.4,4.4 c -3.3,-4 -7.9,-6 -13.7,-6 -5.3,0 -9.8,1.9 -13.7,5.6 -3.8,3.7 -5.8,8.5 -5.8,14.5 0,5.9 1.9,10.7 5.8,14.5 3.9,3.7 8.4,5.6 13.7,5.6 5.6,0 10.3,-1.9 14,-5.6 2.4,-2.4 3.8,-5.8 4.2,-10.1 h -18.2 v -6 H 278 c 0.2,1.2 0.4,2.5 0.4,3.7 z m 23.2,23 V 6.1 h 15.3 c 7.7,0 13.9,2.3 18.5,7 4.6,4.6 6.9,10.7 6.9,18.1 0,7.4 -2.3,13.5 -6.9,18.1 -4.6,4.6 -10.8,7 -18.5,7 H 301.6 Z M 308,50 h 8.9 c 5.8,0 10.4,-1.7 13.8,-5 3.4,-3.3 5.1,-8 5.1,-13.9 0,-5.9 -1.7,-10.6 -5.1,-13.9 -3.4,-3.3 -8,-5 -13.8,-5 H 308 Z m 55.4,7.3 c -5.2,0 -9.4,-1.7 -12.6,-5.2 -3.2,-3.5 -4.9,-7.8 -4.9,-13.1 0,-5 1.6,-9.3 4.7,-12.9 3.1,-3.6 7.2,-5.4 12.1,-5.4 5.1,0 9.2,1.7 12.2,5 3.1,3.3 4.6,7.7 4.6,13.3 l -0.1,1.2 h -27.1 c 0.2,3.5 1.3,6.2 3.5,8.2 2.1,2 4.6,3 7.5,3 4.6,0 7.7,-2 9.4,-5.9 l 5.7,2.4 c -1.1,2.7 -3,4.9 -5.5,6.7 -2.6,1.8 -5.8,2.7 -9.5,2.7 z m 9.2,-22.4 c -0.1,-2 -1,-3.8 -2.7,-5.6 -1.7,-1.8 -4.1,-2.7 -7.4,-2.7 -2.4,0 -4.4,0.7 -6.2,2.2 -1.8,1.5 -3,3.5 -3.6,6 h 19.9 z M 393,56.2 379.1,21.9 h 7 l 10.1,26.6 h 0.1 l 10.2,-26.6 h 6.9 l -14,34.3 z m 30.7,0 h -6.4 V 6.1 h 29.3 v 6.2 h -22.8 v 16.5 h 20.6 v 6 h -20.6 v 21.4 z m 42.3,1.1 c -5.2,0 -9.4,-1.7 -12.6,-5.2 -3.2,-3.5 -4.9,-7.8 -4.9,-13.1 0,-5 1.6,-9.3 4.7,-12.9 3.2,-3.6 7.2,-5.4 12.1,-5.4 5.1,0 9.2,1.7 12.2,5 3.1,3.3 4.6,7.7 4.6,13.3 l -0.1,1.2 h -27.1 c 0.2,3.5 1.3,6.2 3.5,8.2 2.1,2 4.6,3 7.5,3 4.6,0 7.7,-2 9.4,-5.9 l 5.7,2.4 c -1.1,2.7 -3,4.9 -5.5,6.7 -2.7,1.8 -5.8,2.7 -9.5,2.7 z m 9.2,-22.4 c -0.1,-2 -1,-3.8 -2.7,-5.6 -1.7,-1.8 -4.1,-2.7 -7.4,-2.7 -2.4,0 -4.4,0.7 -6.2,2.2 -1.8,1.5 -3,3.5 -3.6,6 h 19.9 z m 23.9,22.4 c -3.8,0 -7,-0.9 -9.5,-2.8 -2.5,-1.9 -4.3,-4.2 -5.5,-7 l 5.7,-2.4 c 1.8,4.3 4.9,6.4 9.3,6.4 2,0 3.7,-0.4 4.9,-1.3 1.3,-0.9 1.9,-2.1 1.9,-3.5 0,-2.2 -1.6,-3.8 -4.7,-4.5 l -6.9,-1.7 c -2.2,-0.6 -4.3,-1.6 -6.2,-3.2 -2,-1.6 -2.9,-3.7 -2.9,-6.3 0,-3 1.3,-5.5 4,-7.4 2.7,-1.9 5.9,-2.8 9.6,-2.8 3,0 5.7,0.7 8.1,2.1 2.4,1.4 4.1,3.3 5.1,5.9 l -5.6,2.3 c -1.3,-3 -3.9,-4.6 -7.8,-4.6 -1.9,0 -3.5,0.4 -4.8,1.2 -1.3,0.8 -2,1.9 -2,3.2 0,2 1.5,3.3 4.5,4 l 6.8,1.6 c 3.2,0.7 5.6,2 7.1,3.9 1.5,1.8 2.3,3.9 2.3,6.2 0,3.1 -1.3,5.6 -3.8,7.7 -2.3,2 -5.6,3 -9.6,3 z M 532,56.8 c -3.6,0 -6.3,-1 -8.2,-2.9 C 521.9,52 521,49.3 521,45.8 v -18 h -6 v -5.9 h 6 V 11.4 h 6.4 v 10.5 h 8.4 v 5.9 h -8.4 v 17.5 c 0,3.7 1.5,5.6 4.6,5.6 1.2,0 2.1,-0.2 2.9,-0.6 l 2.2,5.5 c -1.3,0.7 -3,1 -5.1,1 z"
       class="st13"
       id="path50"
       sodipodi:nodetypes="scscscssccscscssccccsccscssscccsssssccscscscssccscscssccccsccscssscccsssssccssssscccccscccscsssccccccccccccccccccccccccssscscccccscccscssscccssccscscccssssccssscccscssssccccccccccssccs" />
    <g
       aria-label="Pisa 2019"
       transform="translate(-1.1717459,-8.2022212)"
       style="font-style:normal;font-weight:normal;font-size:40px;line-height:1.25;font-family:sans-serif;letter-spacing:0px;word-spacing:0px;fill:#000000;fill-opacity:1;stroke:none"
       id="flowRoot3755">
      <path
         d="m 136.74762,107.57284 v 20.10667 h -6.37867 V 78.036843 h 16.91734 q 6.448,0 10.95466,4.298667 4.576,4.298667 4.576,10.469334 0,6.309333 -4.576,10.538666 -4.43733,4.22933 -10.95466,4.22933 z m 0,-23.434663 v 17.333333 h 10.67733 q 3.81334,0 6.30934,-2.565333 2.56533,-2.565333 2.56533,-6.101333 0,-3.466667 -2.56533,-6.032001 -2.496,-2.634666 -6.30934,-2.634666 z"
         style="font-style:normal;font-variant:normal;font-weight:normal;font-stretch:normal;font-size:69.33333588px;font-family:'Product Sans';-inkscape-font-specification:'Product Sans';fill:#ffffff"
         id="path3767" />
      <path
         d="m 176.6457,81.988843 q 0,1.872 -1.31733,3.189334 -1.31733,1.317333 -3.18933,1.317333 -1.872,0 -3.18934,-1.317333 -1.31733,-1.317334 -1.31733,-3.189334 0,-1.872 1.31733,-3.189333 1.31734,-1.317334 3.18934,-1.317334 1.872,0 3.18933,1.317334 1.31733,1.317333 1.31733,3.189333 z m -1.31733,11.717334 V 127.67951 H 168.9497 V 93.706177 Z"
         style="font-style:normal;font-variant:normal;font-weight:normal;font-stretch:normal;font-size:69.33333588px;font-family:'Product Sans';-inkscape-font-specification:'Product Sans';fill:#ffffff"
         id="path3769" />
      <path
         d="m 209.69712,118.25018 q 0,4.43733 -3.88267,7.488 -3.88266,3.05067 -9.776,3.05067 -5.13066,0 -9.01333,-2.63467 -3.88267,-2.704 -5.54667,-7.072 l 5.68534,-2.42667 q 1.248,3.05067 3.60533,4.784 2.42667,1.664 5.26933,1.664 3.05067,0 5.06134,-1.31733 2.08,-1.31734 2.08,-3.12 0,-3.25867 -4.992,-4.784 l -5.824,-1.456 q -9.91467,-2.496 -9.91467,-9.568 0,-4.645336 3.744,-7.41867 3.81333,-2.842666 9.70667,-2.842666 4.50666,0 8.112,2.149333 3.67466,2.149334 5.13066,5.754663 l -5.68533,2.35734 q -0.97067,-2.14934 -3.18933,-3.328003 -2.14934,-1.248 -4.85334,-1.248 -2.496,0 -4.50666,1.248 -1.94134,1.248003 -1.94134,3.050663 0,2.912 5.47734,4.16 l 5.13066,1.31734 q 10.12267,2.496 10.12267,10.192 z"
         style="font-style:normal;font-variant:normal;font-weight:normal;font-stretch:normal;font-size:69.33333588px;font-family:'Product Sans';-inkscape-font-specification:'Product Sans';fill:#ffffff"
         id="path3771" />
      <path
         d="m 220.30079,117.27951 q 0,2.496 2.08,4.16 2.14933,1.664 4.992,1.664 4.02133,0 7.14133,-2.98133 3.18934,-2.98134 3.18934,-7.00267 -2.98134,-2.35733 -8.32,-2.35733 -3.88267,0 -6.51734,1.872 -2.56533,1.872 -2.56533,4.64533 z m 8.25067,-24.682666 q 7.072,0 11.16266,3.813333 4.09067,3.744003 4.09067,10.330663 v 20.93867 h -6.10133 v -4.71467 h -0.27734 q -3.952,5.82401 -10.53866,5.82401 -5.616,0 -9.42934,-3.32801 -3.744,-3.328 -3.744,-8.32 0,-5.26933 3.952,-8.38933 4.02134,-3.12 10.67734,-3.12 5.68533,0 9.36,2.08 v -1.456 q 0,-3.328 -2.63467,-5.616 -2.63467,-2.357333 -6.17067,-2.357333 -5.33866,0 -8.45866,4.506663 l -5.616,-3.535996 q 4.64533,-6.656 13.728,-6.656 z"
         style="font-style:normal;font-variant:normal;font-weight:normal;font-stretch:normal;font-size:69.33333588px;font-family:'Product Sans';-inkscape-font-specification:'Product Sans';fill:#ffffff"
         id="path3773" />
      <path
         d="m 295.42129,121.57818 v 6.10133 h -30.22933 v -6.37867 l 12.272,-12.41066 q 6.17067,-6.30934 8.528,-9.429336 2.35733,-3.189334 2.35733,-6.656 0,-3.12 -2.42666,-5.338667 -2.42667,-2.218667 -6.24,-2.218667 -3.25867,0 -5.616,1.941333 -2.35734,1.941334 -3.05067,4.714667 l -5.824,-2.357333 q 1.38667,-4.368 5.33867,-7.349334 3.952,-3.050666 9.29066,-3.050666 6.448,0 10.74667,3.952 4.29867,3.952 4.29867,9.706667 0,6.864 -7.55734,14.837336 l -13.86666,13.936 z"
         style="font-style:normal;font-variant:normal;font-weight:normal;font-stretch:normal;font-size:69.33333588px;font-family:'Product Sans';-inkscape-font-specification:'Product Sans';fill:#ffffff"
         id="path3775" />
      <path
         d="m 301.49012,103.96751 q 0,-10.816 5.33867,-17.818667 5.33866,-7.002666 13.728,-7.002666 8.38933,0 13.728,7.072 5.33866,7.002667 5.33866,17.749333 0,10.67733 -5.33866,17.81867 -5.33867,7.00267 -13.728,7.00267 -8.38934,0 -13.728,-7.00267 -5.33867,-7.14134 -5.33867,-17.81867 z m 31.616,0 q 0,-8.181333 -3.46667,-13.450666 -3.39733,-5.269334 -9.08266,-5.269334 -5.68534,0 -9.08267,5.269334 -3.46667,5.269333 -3.46667,13.450666 0,8.18133 3.46667,13.52 3.39733,5.2 9.08267,5.2 5.68533,0 9.08266,-5.26933 3.46667,-5.33867 3.46667,-13.45067 z"
         style="font-style:normal;font-variant:normal;font-weight:normal;font-stretch:normal;font-size:69.33333588px;font-family:'Product Sans';-inkscape-font-specification:'Product Sans';fill:#ffffff"
         id="path3777" />
      <path
         d="m 362.84363,80.25551 v 47.424 h -6.37867 v -39.52 l -9.22133,4.021334 -2.42667,-5.408001 13.936,-6.517333 z"
         style="font-style:normal;font-variant:normal;font-weight:normal;font-stretch:normal;font-size:69.33333588px;font-family:'Product Sans';-inkscape-font-specification:'Product Sans';fill:#ffffff"
         id="path3779" />
      <path
         d="m 386.33137,110.34618 q -5.68533,0 -10.33067,-4.50667 -4.50666,-4.64533 -4.50666,-10.816 0,-6.448 4.85333,-11.093333 4.85333,-4.784 11.37067,-4.784 6.864,0 11.57866,4.714666 4.71467,4.714667 4.71467,11.162667 0,5.75467 -4.64533,13.104 l -13.79734,20.66134 -5.13066,-3.53601 11.71733,-16.224 -0.13867,-0.13866 q -2.21866,1.456 -5.68533,1.456 z m 11.232,-15.392003 q 0,-4.021333 -2.912,-6.864 -2.84267,-2.842667 -6.93333,-2.842667 -4.09067,0 -6.93334,2.842667 -2.84266,2.842667 -2.84266,6.864 0,4.021334 2.84266,6.864003 2.98134,2.84266 6.93334,2.84266 3.952,0 6.93333,-2.84266 2.912,-2.773336 2.912,-6.864003 z"
         style="font-style:normal;font-variant:normal;font-weight:normal;font-stretch:normal;font-size:69.33333588px;font-family:'Product Sans';-inkscape-font-specification:'Product Sans';fill:#ffffff"
         id="path3781" />
    </g>
  </g>
</svg>
