<?xml version="1.0" encoding="UTF-8" standalone="no"?>
<svg
   xmlns:dc="http://purl.org/dc/elements/1.1/"
   xmlns:cc="http://creativecommons.org/ns#"
   xmlns:rdf="http://www.w3.org/1999/02/22-rdf-syntax-ns#"
   xmlns:svg="http://www.w3.org/2000/svg"
   xmlns="http://www.w3.org/2000/svg"
   xmlns:sodipodi="http://sodipodi.sourceforge.net/DTD/sodipodi-0.dtd"
   xmlns:inkscape="http://www.inkscape.org/namespaces/inkscape"
   id="Layer_4"
   width="134.1"
   height="32"
   version="1.1"
   sodipodi:docname="logo-monochrome.svg"
   inkscape:version="0.92.2 5c3e80d, 2017-08-06">
  <metadata
     id="metadata17">
    <rdf:RDF>
      <cc:Work
         rdf:about="">
        <dc:format>image/svg+xml</dc:format>
        <dc:type
           rdf:resource="http://purl.org/dc/dcmitype/StillImage" />
      </cc:Work>
    </rdf:RDF>
  </metadata>
  <defs
     id="defs15" />
  <sodipodi:namedview
     pagecolor="#ffffff"
     bordercolor="#666666"
     borderopacity="1"
     objecttolerance="10"
     gridtolerance="10"
     guidetolerance="10"
     inkscape:pageopacity="0"
     inkscape:pageshadow="2"
     inkscape:window-width="1287"
     inkscape:window-height="664"
     id="namedview13"
     showgrid="false"
     inkscape:zoom="6.8337833"
     inkscape:cx="63.214145"
     inkscape:cy="5.9758141"
     inkscape:window-x="114"
     inkscape:window-y="316"
     inkscape:window-maximized="0"
     inkscape:current-layer="Layer_4" />
  <style
     id="style2">.st0{fill:#673ab7}</style>
  <g
     id="XMLID_261_">
    <path
       id="XMLID_259_"
       d="M5.2 0H0l14.8 25.6 2.6-4.5z"
       class="st0" />
    <path
       id="XMLID_258_"
       d="M19.3 14.6L10.9 0H5.8l11.9 20.6 1.7-2.9c.3-.5.4-1 .4-1.6 0-.5-.2-1.1-.5-1.5z"
       class="st0" />
    <path
       id="XMLID_257_"
       d="M9 16.7L.2 32h5.1l6.3-10.9z"
       class="st0" />
    <path
       id="XMLID_256_"
       d="M11.9 21.6L5.9 32h5.2l3.4-5.9z"
       class="st0" />
  </g>
  <g
     id="XMLID_1_">
    <path
       d="m 44,8.4 c 0,1.8 -0.5,3.1 -1.6,4.2 -1.2,1.2 -2.7,1.9 -4.6,1.9 -1.8,0 -3.3,-0.6 -4.6,-1.9 C 31.9,11.3 31.3,9.8 31.3,7.9 31.3,6 31.9,4.5 33.2,3.2 34.5,2 36,1.4 37.8,1.4 c 0.9,0 1.8,0.2 2.6,0.5 0.8,0.3 1.5,0.8 2,1.4 l -1.1,1.1 c -0.8,-1 -2,-1.5 -3.4,-1.5 -1.3,0 -2.5,0.5 -3.4,1.4 -1,0.9 -1.4,2.1 -1.4,3.6 0,1.5 0.5,2.7 1.4,3.6 1,0.9 2.1,1.4 3.4,1.4 1.4,0 2.6,-0.5 3.5,-1.4 C 42,10.9 42.4,10 42.5,9 H 37.9 V 7.5 H 44 c -0.1,0.3 0,0.6 0,0.9 z m 1.6,5.8 V 1.6 h 3.8 c 1.9,0 3.5,0.6 4.6,1.7 1.2,1.2 1.7,2.7 1.7,4.5 0,1.8 -0.6,3.4 -1.7,4.5 -1.2,1.2 -2.7,1.7 -4.6,1.7 h -3.8 z m 1.6,-1.6 h 2.2 c 1.4,0 2.6,-0.4 3.4,-1.2 0.8,-0.8 1.3,-2 1.3,-3.5 C 54.1,6.4 53.7,5.3 52.8,4.4 52,3.6 50.8,3.1 49.4,3.1 H 47.2 Z M 69.4,8.4 c 0,1.8 -0.5,3.1 -1.6,4.2 -1.2,1.2 -2.7,1.9 -4.6,1.9 -1.8,0 -3.3,-0.6 -4.6,-1.9 -1.3,-1.3 -1.9,-2.8 -1.9,-4.7 0,-1.9 0.6,-3.4 1.9,-4.7 1.3,-1.3 2.8,-1.9 4.6,-1.9 0.9,0 1.8,0.2 2.6,0.5 0.8,0.3 1.5,0.8 2,1.4 l -1.1,1.1 c -0.8,-1 -2,-1.5 -3.4,-1.5 -1.3,0 -2.5,0.5 -3.4,1.4 -1,0.9 -1.4,2.1 -1.4,3.6 0,1.5 0.5,2.7 1.4,3.6 1,0.9 2.1,1.4 3.4,1.4 1.4,0 2.6,-0.5 3.5,-1.4 0.6,-0.6 1,-1.5 1.1,-2.5 H 63.3 V 7.5 h 6.1 z m 5.8,5.8 V 1.6 H 79 c 1.9,0 3.5,0.6 4.6,1.7 1.2,1.2 1.7,2.7 1.7,4.5 0,1.8 -0.6,3.4 -1.7,4.5 C 82.4,13.5 80.9,14 79,14 h -3.8 z m 1.6,-1.6 H 79 c 1.4,0 2.6,-0.4 3.4,-1.2 0.8,-0.8 1.3,-2 1.3,-3.5 C 83.7,6.4 83.3,5.3 82.4,4.4 81.6,3.6 80.4,3.1 79,3.1 h -2.2 z m 13.9,1.9 c -1.3,0 -2.3,-0.4 -3.2,-1.3 -0.8,-0.9 -1.2,-2 -1.2,-3.3 0,-1.2 0.4,-2.3 1.2,-3.2 0.8,-0.9 1.8,-1.3 3,-1.3 1.3,0 2.3,0.4 3.1,1.2 0.8,0.8 1.1,1.9 1.1,3.3 v 0.3 h -6.8 c 0,0.9 0.3,1.5 0.9,2 0.5,0.5 1.2,0.8 1.9,0.8 1.2,0 1.9,-0.5 2.3,-1.5 l 1.4,0.6 c -0.3,0.7 -0.7,1.2 -1.4,1.7 -0.6,0.4 -1.4,0.7 -2.3,0.7 z M 93,8.9 C 93,8.4 92.7,7.9 92.3,7.5 91.9,7.1 91.3,6.8 90.5,6.8 89.9,6.8 89.4,7 89,7.4 88.6,7.8 88.3,8.3 88.1,8.9 Z m 5.1,5.3 -3.5,-8.6 h 1.8 l 2.5,6.6 2.6,-6.6 h 1.7 l -3.5,8.6 z m 7.7,0 h -1.6 V 1.6 h 7.3 v 1.5 h -5.7 v 4.1 h 5.1 v 1.5 h -5.1 z m 10.5,0.3 c -1.3,0 -2.3,-0.4 -3.2,-1.3 -0.8,-0.9 -1.2,-2 -1.2,-3.3 0,-1.2 0.4,-2.3 1.2,-3.2 0.8,-0.9 1.8,-1.3 3,-1.3 1.3,0 2.3,0.4 3.1,1.2 0.8,0.8 1.1,1.9 1.1,3.3 v 0.3 h -6.8 c 0,0.9 0.3,1.5 0.9,2 0.5,0.5 1.2,0.8 1.9,0.8 1.2,0 1.9,-0.5 2.3,-1.5 l 1.4,0.6 c -0.3,0.7 -0.7,1.2 -1.4,1.7 -0.6,0.4 -1.3,0.7 -2.3,0.7 z m 2.3,-5.6 c 0,-0.5 -0.3,-1 -0.7,-1.4 -0.4,-0.4 -1,-0.7 -1.8,-0.7 -0.6,0 -1.1,0.2 -1.5,0.6 -0.4,0.4 -0.7,0.9 -0.9,1.5 z m 6,5.6 c -1,0 -1.7,-0.2 -2.4,-0.7 -0.6,-0.5 -1.1,-1 -1.4,-1.8 l 1.4,-0.6 c 0.5,1.1 1.2,1.6 2.3,1.6 0.5,0 0.9,-0.1 1.2,-0.3 0.3,-0.2 0.5,-0.5 0.5,-0.9 0,-0.6 -0.4,-0.9 -1.2,-1.1 l -1.7,-0.4 C 122.8,10.2 122.2,9.9 121.7,9.5 121.2,9.1 121,8.6 121,7.9 c 0,-0.8 0.3,-1.4 1,-1.8 0.7,-0.5 1.5,-0.7 2.4,-0.7 0.8,0 1.4,0.2 2,0.5 0.6,0.3 1,0.8 1.3,1.5 L 126.3,8 c -0.3,-0.8 -1,-1.1 -2,-1.1 -0.5,0 -0.9,0.1 -1.2,0.3 -0.3,0.2 -0.5,0.5 -0.5,0.8 0,0.5 0.4,0.8 1.1,1 l 1.7,0.4 c 0.8,0.2 1.4,0.5 1.8,1 0.4,0.5 0.6,1 0.6,1.5 0,0.8 -0.3,1.4 -0.9,1.9 -0.5,0.4 -1.3,0.7 -2.3,0.7 z m 8.2,-0.2 c -0.9,0 -1.6,-0.2 -2.1,-0.7 -0.5,-0.5 -0.7,-1.2 -0.7,-2 V 7.1 h -1.5 V 5.6 H 130 V 3 h 1.6 v 2.6 h 2.1 v 1.5 h -2.1 v 4.4 c 0,0.9 0.4,1.4 1.2,1.4 0.3,0 0.5,0 0.7,-0.1 l 0.6,1.4 c -0.3,0 -0.8,0.1 -1.3,0.1 z"
       class="st0"
       id="path9"
       inkscape:connector-curvature="0"
       style="fill:#673ab7"
       sodipodi:nodetypes="ssssscssccscscssccccsccssssscccsssssccssssssssccscscssccccsccssssscccsssssccscssssscccscccscssscccccccccccccccccccccscssssscccscccscsssccscccsssccsscssccsssccsscssssccccccccccssccs" />
  </g>
  <text
     xml:space="preserve"
     style="font-style:normal;font-weight:normal;font-size:40px;line-height:1.25;font-family:sans-serif;letter-spacing:0px;word-spacing:0px;fill:#000000;fill-opacity:1;stroke:none"
     x="30.876013"
     y="30.390348"
     id="text3711"><tspan
       sodipodi:role="line"
       id="tspan3709"
       x="30.876013"
       y="30.390348"
       style="font-style:normal;font-variant:normal;font-weight:normal;font-stretch:normal;font-size:17.33333397px;font-family:'Product Sans';-inkscape-font-specification:'Product Sans'">Pisa 2019</tspan></text>
</svg>
