<?xml version="1.0" encoding="UTF-8" standalone="no"?>
<svg
   xmlns:dc="http://purl.org/dc/elements/1.1/"
   xmlns:cc="http://creativecommons.org/ns#"
   xmlns:rdf="http://www.w3.org/1999/02/22-rdf-syntax-ns#"
   xmlns:svg="http://www.w3.org/2000/svg"
   xmlns="http://www.w3.org/2000/svg"
   xmlns:sodipodi="http://sodipodi.sourceforge.net/DTD/sodipodi-0.dtd"
   xmlns:inkscape="http://www.inkscape.org/namespaces/inkscape"
   viewBox="0 0 134 32"
   version="1.1"
   id="svg43"
   sodipodi:docname="logo-monochrome.svg"
   inkscape:version="0.92.2 5c3e80d, 2017-08-06"
   width="134"
   height="32">
  <metadata
     id="metadata47">
    <rdf:RDF>
      <cc:Work
         rdf:about="">
        <dc:format>image/svg+xml</dc:format>
        <dc:type
           rdf:resource="http://purl.org/dc/dcmitype/StillImage" />
        <dc:title>logo</dc:title>
      </cc:Work>
    </rdf:RDF>
  </metadata>
  <sodipodi:namedview
     pagecolor="#ffffff"
     bordercolor="#666666"
     borderopacity="1"
     objecttolerance="10"
     gridtolerance="10"
     guidetolerance="10"
     inkscape:pageopacity="0"
     inkscape:pageshadow="2"
     inkscape:window-width="1439"
     inkscape:window-height="798"
     id="namedview45"
     showgrid="false"
     inkscape:zoom="2.8284271"
     inkscape:cx="120.30708"
     inkscape:cy="13.562879"
     inkscape:window-x="0"
     inkscape:window-y="0"
     inkscape:window-maximized="0"
     inkscape:current-layer="svg43" />
  <defs
     id="defs4">
    <style
       id="style2">.cls-1{font-size:56.79px;fill:#6f7070;font-family:ProductSans-Regular, Product Sans;}.cls-2{letter-spacing:-0.02em;}.cls-3{letter-spacing:-0.01em;}.cls-4{letter-spacing:-0.03em;}.cls-5{letter-spacing:0em;}.cls-6{letter-spacing:0em;}.cls-7{letter-spacing:0em;}.cls-10,.cls-11,.cls-8,.cls-9{fill:none;stroke-miterlimit:10;stroke-width:4px;}.cls-8{stroke:#5374b2;}.cls-9{stroke:#d1362e;}.cls-10{stroke:#2a9c53;}.cls-11{stroke:#f1c948;}</style>
  </defs>
  <title
     id="title6">logo</title>
  <g
     id="g4697"
     transform="translate(-12.239276)">
    <g
       transform="matrix(0.27908312,0,0,0.27908312,-7.5732549,-7.4680432)"
       id="text32"
       style="font-size:56.79000092px;font-family:ProductSans-Regular, 'Product Sans';fill:#3f51b5;fill-opacity:1"
       aria-label="GDGDevFestPisa 2019">
      <path
         inkscape:connector-curvature="0"
         id="path3757"
         style="line-height:0;fill:#3f51b5;fill-opacity:1"
         d="m 202.69836,51.666706 q 0,8.5185 -5.05431,13.57281 -5.679,6.01974 -14.93577,6.01974 -8.85924,0 -14.99256,-6.13332 -6.13332,-6.13332 -6.13332,-15.10614 0,-8.97282 6.13332,-15.10614 6.13332,-6.13332 14.99256,-6.13332 4.48641,0 8.46171,1.59012 3.9753,1.59012 6.53085,4.48641 l -3.74814,3.74814 q -1.87407,-2.2716 -4.88394,-3.52098 -2.95308,-1.30617 -6.36048,-1.30617 -6.64443,0 -11.24442,4.59999 -4.5432,4.65678 -4.5432,11.64195 0,6.98517 4.5432,11.64195 4.59999,4.59999 11.24442,4.59999 6.07653,0 10.10862,-3.4074 4.03209,-3.4074 4.65678,-9.37035 h -14.7654 v -4.88394 h 19.70613 q 0.28395,1.59012 0.28395,3.06666 z" />
      <path
         inkscape:connector-curvature="0"
         id="path3759"
         style="line-height:0;fill:#3f51b5;fill-opacity:1"
         d="m 209.04642,70.350616 v -40.66164 h 12.43701 q 9.31356,0 14.93577,5.62221 5.679,5.62221 5.679,14.70861 0,9.14319 -5.679,14.7654 -5.62221,5.56542 -14.93577,5.56542 z m 5.22468,-35.66412 v 30.6666 h 7.21233 q 7.09875,0 11.18763,-4.03209 4.08888,-4.08888 4.08888,-11.30121 0,-7.15554 -4.08888,-11.24442 -4.08888,-4.08888 -11.18763,-4.08888 z" />
      <path
         inkscape:connector-curvature="0"
         id="path3761"
         style="line-height:0;fill:#3f51b5;fill-opacity:1"
         d="m 287.43969,51.666706 q 0,8.5185 -5.05431,13.57281 -5.679,6.01974 -14.93577,6.01974 -8.85924,0 -14.99256,-6.13332 -6.13332,-6.13332 -6.13332,-15.10614 0,-8.97282 6.13332,-15.10614 6.13332,-6.13332 14.99256,-6.13332 4.48641,0 8.46171,1.59012 3.9753,1.59012 6.53085,4.48641 l -3.74814,3.74814 q -1.87407,-2.2716 -4.88394,-3.52098 -2.95308,-1.30617 -6.36048,-1.30617 -6.64443,0 -11.24442,4.59999 -4.5432,4.65678 -4.5432,11.64195 0,6.98517 4.5432,11.64195 4.59999,4.59999 11.24442,4.59999 6.07653,0 10.10862,-3.4074 4.03209,-3.4074 4.65678,-9.37035 h -14.7654 v -4.88394 h 19.70613 q 0.28395,1.59012 0.28395,3.06666 z" />
      <path
         inkscape:connector-curvature="0"
         id="path3763"
         style="line-height:0;letter-spacing:-0.02em;fill:#3f51b5;fill-opacity:1"
         d="m 306.28007,70.350616 v -40.66164 h 12.43701 q 9.31356,0 14.93577,5.62221 5.679,5.62221 5.679,14.70861 0,9.14319 -5.679,14.7654 -5.62221,5.56542 -14.93577,5.56542 z m 5.22468,-35.66412 v 30.6666 h 7.21233 q 7.09875,0 11.18763,-4.03209 4.08888,-4.08888 4.08888,-11.30121 0,-7.15554 -4.08888,-11.24442 -4.08888,-4.08888 -11.18763,-4.08888 z" />
      <path
         inkscape:connector-curvature="0"
         id="path3765"
         style="line-height:0;letter-spacing:-0.01em;fill:#3f51b5;fill-opacity:1"
         d="m 356.24524,71.259256 q -6.13332,0 -10.10862,-4.20246 -3.9753,-4.20246 -3.9753,-10.61973 0,-6.36048 3.86172,-10.56294 3.86172,-4.25925 9.88146,-4.25925 6.19011,0 9.82467,4.03209 3.69135,3.9753 3.69135,11.18763 l -0.0568,0.5679 h -21.86415 q 0.11358,4.08888 2.72592,6.58764 2.61234,2.49876 6.2469,2.49876 4.99752,0 7.83702,-4.99752 l 4.65678,2.2716 q -1.87407,3.52098 -5.22468,5.50863 -3.29382,1.98765 -7.49628,1.98765 z m -8.34813,-18.1728 h 15.95799 q -0.22716,-2.89629 -2.38518,-4.77036 -2.10123,-1.93086 -5.679,-1.93086 -2.95308,0 -5.1111,1.81728 -2.10123,1.81728 -2.78271,4.88394 z" />
      <path
         inkscape:connector-curvature="0"
         id="path3767"
         style="line-height:0;fill:#3f51b5;fill-opacity:1"
         d="m 387.13745,70.350616 h -5.22468 l -11.24442,-27.8271 h 5.679 l 8.17776,21.5802 h 0.11358 l 8.29134,-21.5802 h 5.56542 z" />
      <path
         inkscape:connector-curvature="0"
         id="path3769"
         style="line-height:0;letter-spacing:-0.03em;fill:#3f51b5;fill-opacity:1"
         d="m 408.03475,52.916086 v 17.43453 h -5.22468 v -40.66164 h 23.73822 v 4.99752 h -18.51354 v 13.34565 h 16.69626 v 4.88394 z" />
      <path
         inkscape:connector-curvature="0"
         id="path3771"
         style="line-height:0;letter-spacing:0em;fill:#3f51b5;fill-opacity:1"
         d="m 442.33523,71.259256 q -6.13332,0 -10.10862,-4.20246 -3.9753,-4.20246 -3.9753,-10.61973 0,-6.36048 3.86172,-10.56294 3.86172,-4.25925 9.88146,-4.25925 6.19011,0 9.82467,4.03209 3.69135,3.9753 3.69135,11.18763 l -0.0568,0.5679 h -21.86415 q 0.11358,4.08888 2.72592,6.58764 2.61234,2.49876 6.2469,2.49876 4.99752,0 7.83702,-4.99752 l 4.65678,2.2716 q -1.87407,3.52098 -5.22468,5.50863 -3.29382,1.98765 -7.49628,1.98765 z m -8.34813,-18.1728 h 15.95799 q -0.22716,-2.89629 -2.38518,-4.77036 -2.10123,-1.93086 -5.679,-1.93086 -2.95308,0 -5.1111,1.81728 -2.10123,1.81728 -2.78271,4.88394 z" />
      <path
         inkscape:connector-curvature="0"
         id="path3773"
         style="line-height:0;letter-spacing:0em;fill:#3f51b5;fill-opacity:1"
         d="m 481.86196,62.627176 q 0,3.63456 -3.18024,6.13332 -3.18024,2.49876 -8.00739,2.49876 -4.20246,0 -7.3827,-2.15802 -3.18024,-2.21481 -4.5432,-5.79258 l 4.65678,-1.98765 q 1.02222,2.49876 2.95308,3.91851 1.98765,1.36296 4.31604,1.36296 2.49876,0 4.14567,-1.07901 1.7037,-1.07901 1.7037,-2.55555 0,-2.66913 -4.08888,-3.91851 l -4.77036,-1.19259 q -8.12097,-2.04444 -8.12097,-7.83702 0,-3.80493 3.06666,-6.07653 3.12345,-2.32839 7.9506,-2.32839 3.69135,0 6.64443,1.76049 3.00987,1.76049 4.20246,4.71357 l -4.65678,1.93086 q -0.79506,-1.76049 -2.61234,-2.72592 -1.76049,-1.02222 -3.9753,-1.02222 -2.04444,0 -3.69135,1.02222 -1.59012,1.02222 -1.59012,2.49876 0,2.38518 4.48641,3.4074 l 4.20246,1.07901 q 8.29134,2.04444 8.29134,8.34813 z" />
      <path
         inkscape:connector-curvature="0"
         id="path3775"
         style="line-height:0;letter-spacing:0em;fill:#3f51b5;fill-opacity:1"
         d="m 497.09411,70.804936 q -3.4074,0 -5.679,-2.10123 -2.21481,-2.10123 -2.2716,-5.84937 v -15.56046 h -4.88394 v -4.77036 h 4.88394 v -8.5185 h 5.22468 v 8.5185 h 6.8148 v 4.77036 h -6.8148 v 13.85676 q 0,2.78271 1.07901,3.80493 1.07901,0.96543 2.44197,0.96543 0.62469,0 1.19259,-0.11358 0.62469,-0.17037 1.1358,-0.39753 l 1.64691,4.65678 q -2.04444,0.73827 -4.77036,0.73827 z" />
      <path
         inkscape:connector-curvature="0"
         id="path3777"
         style="line-height:0;fill:#3f51b5;fill-opacity:1"
         d="m 168.79473,122.02152 v 16.4691 h -5.22468 V 97.828975 h 13.85676 q 5.28147,0 8.97282,3.520985 3.74814,3.52098 3.74814,8.57529 0,5.16789 -3.74814,8.63208 -3.63456,3.46419 -8.97282,3.46419 z m 0,-19.19502 v 14.1975 h 8.74566 q 3.12345,0 5.16789,-2.10123 2.10123,-2.10123 2.10123,-4.99752 0,-2.8395 -2.10123,-4.94073 -2.04444,-2.15802 -5.16789,-2.15802 z" />
      <path
         inkscape:connector-curvature="0"
         id="path3779"
         style="line-height:0;fill:#3f51b5;fill-opacity:1"
         d="m 201.47471,101.06601 q 0,1.53333 -1.07901,2.61234 -1.07901,1.07901 -2.61234,1.07901 -1.53333,0 -2.61234,-1.07901 -1.07901,-1.07901 -1.07901,-2.61234 0,-1.533335 1.07901,-2.612345 1.07901,-1.07901 2.61234,-1.07901 1.53333,0 2.61234,1.07901 1.07901,1.07901 1.07901,2.612345 z m -1.07901,9.59751 v 27.8271 h -5.22468 v -27.8271 z" />
      <path
         inkscape:connector-curvature="0"
         id="path3781"
         style="line-height:0;letter-spacing:0em;fill:#3f51b5;fill-opacity:1"
         d="m 228.47765,130.76718 q 0,3.63456 -3.18024,6.13332 -3.18024,2.49876 -8.00739,2.49876 -4.20246,0 -7.3827,-2.15802 -3.18024,-2.21481 -4.5432,-5.79258 l 4.65678,-1.98765 q 1.02222,2.49876 2.95308,3.91851 1.98765,1.36296 4.31604,1.36296 2.49876,0 4.14567,-1.07901 1.7037,-1.07901 1.7037,-2.55555 0,-2.66913 -4.08888,-3.91851 l -4.77036,-1.19259 q -8.12097,-2.04444 -8.12097,-7.83702 0,-3.80493 3.06666,-6.07653 3.12345,-2.32839 7.9506,-2.32839 3.69135,0 6.64443,1.76049 3.00987,1.76049 4.20246,4.71357 l -4.65678,1.93086 q -0.79506,-1.76049 -2.61234,-2.72592 -1.76049,-1.02222 -3.9753,-1.02222 -2.04444,0 -3.69135,1.02222 -1.59012,1.02222 -1.59012,2.49876 0,2.38518 4.48641,3.4074 l 4.20246,1.07901 q 8.29134,2.04444 8.29134,8.34813 z" />
      <path
         inkscape:connector-curvature="0"
         id="path3783"
         style="line-height:0;fill:#3f51b5;fill-opacity:1"
         d="m 237.10634,129.97212 q 0,2.04444 1.7037,3.4074 1.76049,1.36296 4.08888,1.36296 3.29382,0 5.84937,-2.44197 2.61234,-2.44197 2.61234,-5.73579 -2.44197,-1.93086 -6.8148,-1.93086 -3.18024,0 -5.33826,1.53333 -2.10123,1.53333 -2.10123,3.80493 z m 6.75801,-20.21724 q 5.79258,0 9.14319,3.12345 3.35061,3.06666 3.35061,8.46171 v 17.15058 h -4.99752 v -3.86172 h -0.22716 q -3.23703,4.77036 -8.63208,4.77036 -4.59999,0 -7.72344,-2.72592 -3.06666,-2.72592 -3.06666,-6.8148 0,-4.31604 3.23703,-6.87159 3.29382,-2.55555 8.74566,-2.55555 4.65678,0 7.66665,1.7037 v -1.19259 q 0,-2.72592 -2.15802,-4.59999 -2.15802,-1.93086 -5.05431,-1.93086 -4.37283,0 -6.92838,3.69135 l -4.59999,-2.89629 q 3.80493,-5.45184 11.24442,-5.45184 z" />
      <path
         inkscape:connector-curvature="0"
         id="path3785"
         style="line-height:0;fill:#3f51b5;fill-opacity:1"
         d="m 298.63653,133.4931 v 4.99752 h -24.76044 v -5.22468 l 10.05183,-10.16541 q 5.05431,-5.16789 6.98517,-7.72344 1.93086,-2.61234 1.93086,-5.45184 0,-2.55555 -1.98765,-4.37283 -1.98765,-1.81728 -5.1111,-1.81728 -2.66913,0 -4.59999,1.59012 -1.93086,1.59012 -2.49876,3.86172 l -4.77036,-1.93086 q 1.1358,-3.57777 4.37283,-6.01974 3.23703,-2.498765 7.60986,-2.498765 5.28147,0 8.80245,3.237035 3.52098,3.23703 3.52098,7.9506 0,5.62221 -6.19011,12.15306 l -11.358,11.41479 z" />
      <path
         inkscape:connector-curvature="0"
         id="path3787"
         style="line-height:0;letter-spacing:-0.01em;fill:#3f51b5;fill-opacity:1"
         d="m 303.59996,119.06844 q 0,-8.85924 4.37283,-14.59503 4.37283,-5.735795 11.24442,-5.735795 6.87159,0 11.24442,5.792585 4.37283,5.73579 4.37283,14.53824 0,8.74566 -4.37283,14.59503 -4.37283,5.73579 -11.24442,5.73579 -6.87159,0 -11.24442,-5.73579 -4.37283,-5.84937 -4.37283,-14.59503 z m 25.89624,0 q 0,-6.70122 -2.8395,-11.01726 -2.78271,-4.31604 -7.43949,-4.31604 -4.65678,0 -7.43949,4.31604 -2.8395,4.31604 -2.8395,11.01726 0,6.70122 2.8395,11.07405 2.78271,4.25925 7.43949,4.25925 4.65678,0 7.43949,-4.31604 2.8395,-4.37283 2.8395,-11.01726 z" />
      <path
         inkscape:connector-curvature="0"
         id="path3789"
         style="line-height:0;fill:#3f51b5;fill-opacity:1"
         d="m 353.80818,99.646255 v 38.844365 h -5.22468 v -32.3703 l -7.55307,3.29382 -1.98765,-4.42962 11.41479,-5.338265 z" />
      <path
         inkscape:connector-curvature="0"
         id="path3791"
         style="line-height:0;fill:#3f51b5;fill-opacity:1"
         d="m 373.04668,124.29312 q -4.65678,0 -8.46171,-3.69135 -3.69135,-3.80493 -3.69135,-8.85924 0,-5.28147 3.9753,-9.0864 3.9753,-3.918515 9.31356,-3.918515 5.62221,0 9.48393,3.861725 3.86172,3.86172 3.86172,9.14319 0,4.71357 -3.80493,10.73331 l -11.30121,16.92342 -4.20246,-2.89629 9.59751,-13.28886 -0.11358,-0.11358 q -1.81728,1.19259 -4.65678,1.19259 z m 9.19998,-12.60738 q 0,-3.29382 -2.38518,-5.62221 -2.32839,-2.32839 -5.679,-2.32839 -3.35061,0 -5.679,2.32839 -2.32839,2.32839 -2.32839,5.62221 0,3.29382 2.32839,5.62221 2.44197,2.32839 5.679,2.32839 3.23703,0 5.679,-2.32839 2.38518,-2.2716 2.38518,-5.62221 z" />
    </g>
    <polygon
       transform="matrix(0.23648408,0,0,0.23648408,1.0777669,-3.273453)"
       class="cls-8"
       points="133.65,102.8 124.09,119.18 60.75,17.07 81.5,17.07 "
       id="polygon34"
       style="fill:none;stroke:#3f51b5;stroke-width:4px;stroke-miterlimit:10;stroke-opacity:1" />
    <path
       class="cls-9"
       d="m 26.618048,0.76333029 c 0,0 7.803974,11.55697671 8.780653,13.95256071 0.97668,2.395584 -1.686131,4.89995 -1.686131,4.89995 L 22.030256,0.76333029 Z"
       id="path36"
       inkscape:connector-curvature="0"
       style="fill:none;stroke:#3f51b5;stroke-width:0.94593632px;stroke-miterlimit:10;stroke-opacity:1" />
    <polygon
       transform="matrix(0.23648408,0,0,0.23648408,1.0777669,-3.273453)"
       class="cls-10"
       points="107.16,104.98 97.2,88.87 59.38,145.93 80.95,145.93 "
       id="polygon38"
       style="fill:none;fill-opacity:1;stroke:#3f51b5;stroke-width:4px;stroke-miterlimit:10;stroke-opacity:1" />
    <polygon
       transform="matrix(0.23648408,0,0,0.23648408,1.0777669,-3.273453)"
       class="cls-11"
       points="120.27,125.18 109.89,110.99 87.5,145.93 108.25,145.93 "
       id="polygon40"
       style="fill:none;stroke:#3f51b5;stroke-width:4px;stroke-miterlimit:10;stroke-opacity:1" />
  </g>
</svg>
