<?xml version="1.0" encoding="UTF-8" standalone="no"?>
<svg
   xmlns:dc="http://purl.org/dc/elements/1.1/"
   xmlns:cc="http://creativecommons.org/ns#"
   xmlns:rdf="http://www.w3.org/1999/02/22-rdf-syntax-ns#"
   xmlns:svg="http://www.w3.org/2000/svg"
   xmlns="http://www.w3.org/2000/svg"
   xmlns:sodipodi="http://sodipodi.sourceforge.net/DTD/sodipodi-0.dtd"
   xmlns:inkscape="http://www.inkscape.org/namespaces/inkscape"
   version="1.1"
   viewBox="0 0 900 220"
   id="Layer_4"
   inkscape:version="0.91 r13725"
   sodipodi:docname="logo-white.svg"
   width="900"
   height="220"
   inkscape:export-filename="/Users/nco/Desktop/test"
   inkscape:export-xdpi="746.10999"
   inkscape:export-ydpi="746.10999">
  <sodipodi:namedview
     pagecolor="#ffffff"
     bordercolor="#666666"
     borderopacity="1"
     objecttolerance="10"
     gridtolerance="10"
     guidetolerance="10"
     inkscape:pageopacity="0"
     inkscape:pageshadow="2"
     inkscape:window-width="1280"
     inkscape:window-height="751"
     id="namedview3993"
     showgrid="false"
     showguides="false"
     inkscape:zoom="0.73897495"
     inkscape:cx="397.23942"
     inkscape:cy="110.58617"
     inkscape:window-x="0"
     inkscape:window-y="1"
     inkscape:window-maximized="1"
     inkscape:current-layer="Layer_4">
    <sodipodi:guide
       position="110.96452,503.4"
       orientation="0,1"
       id="guide4018" />
  </sodipodi:namedview>
  <metadata
     id="metadata3410">
    <rdf:RDF>
      <cc:Work
         rdf:about="">
        <dc:format>image/svg+xml</dc:format>
        <dc:type
           rdf:resource="http://purl.org/dc/dcmitype/StillImage" />
        <dc:title></dc:title>
      </cc:Work>
    </rdf:RDF>
  </metadata>
  <defs
     id="defs3408">
    <radialGradient
       gradientUnits="userSpaceOnUse"
       gradientTransform="matrix(1,0,0,-1,0,2867.46)"
       r="69.162003"
       cy="2707.501"
       cx="92.620003"
       id="XMLID_126_-9">
      <stop
         id="stop3354-2"
         stop-opacity=".2"
         stop-color="#BF360C"
         offset="0" />
      <stop
         id="stop3356-1"
         stop-opacity=".02"
         stop-color="#BF360C"
         offset="1" />
    </radialGradient>
    <radialGradient
       gradientUnits="userSpaceOnUse"
       gradientTransform="matrix(1,0,0,-1,0,2867.46)"
       r="69.723"
       cy="2707.063"
       cx="92.422997"
       id="XMLID_127_-9">
      <stop
         id="stop3361-6"
         stop-opacity=".2"
         stop-color="#263238"
         offset="0" />
      <stop
         id="stop3363-8"
         stop-opacity=".02"
         stop-color="#263238"
         offset="1" />
    </radialGradient>
    <radialGradient
       gradientUnits="userSpaceOnUse"
       gradientTransform="matrix(1,0,0,-1,0,2867.46)"
       r="209.922"
       cy="2865.8979"
       cx="-1.563"
       id="XMLID_128_-3">
      <stop
         id="stop3380-8"
         stop-opacity=".1"
         stop-color="#FFF"
         offset="0" />
      <stop
         id="stop3382-4"
         stop-opacity="0"
         stop-color="#FFF"
         offset="1" />
    </radialGradient>
  </defs>
  <style
     id="style3337">.st0{fill:#FFF;} .st1{fill:#FFC107;} .st2{fill:#0F9D58;} .st3{opacity:0.2;fill:#BF360C;enable-background:new ;} .st4{opacity:0.2;fill:#263238;enable-background:new ;} .st5{opacity:0.2;fill:#FFFFFF;enable-background:new ;} .st6{fill:url(#XMLID_126_);} .st7{fill:url(#XMLID_127_);} .st8{fill:#4285F4;} .st9{fill:#DB4437;} .st10{opacity:0.2;fill:#1A237E;enable-background:new ;} .st11{opacity:0.2;fill:#3E2723;enable-background:new ;} .st12{fill:url(#XMLID_128_);} .st13{fill:#767676;}</style>
  <g
     id="g5558"
     transform="translate(32.875812,9.0354801)">
    <path
       style="fill:#ffffff"
       inkscape:connector-curvature="0"
       d="M 32.3,0 0,0 92.3,160 108.5,132 Z"
       class="st0"
       id="path5560" />
    <path
       style="fill:#ffffff"
       inkscape:connector-curvature="0"
       d="M 120.9,91 68.3,0 36.1,0 l 74.3,128.8 10.5,-18.2 c 1.7,-2.8 2.8,-6.2 2.8,-9.8 -0.1,-3.6 -1.1,-6.9 -2.8,-9.8 z"
       class="st0"
       id="path5562" />
    <path
       style="fill:#ffffff"
       inkscape:connector-curvature="0"
       d="M 56.3,104.1 0.9,200 l 32.3,0 39.3,-68 z"
       class="st0"
       id="path5564" />
    <path
       style="fill:#ffffff"
       inkscape:connector-curvature="0"
       d="M 74.3,135.3 37,200 l 32.2,0 21.3,-36.8 z"
       class="st0"
       id="path5566" />
  </g>
  <g
     transform="translate(-44.08056,183.09807)"
     style="font-style:normal;font-weight:normal;font-size:40px;line-height:125%;font-family:sans-serif;letter-spacing:0px;word-spacing:0px;fill:#000000;fill-opacity:1;stroke:none;stroke-width:1px;stroke-linecap:butt;stroke-linejoin:miter;stroke-opacity:1"
     id="flowRoot3412">
    <g
       transform="translate(99.428317,-382.47222)"
       style="font-style:normal;font-weight:normal;font-size:40px;line-height:125%;font-family:sans-serif;letter-spacing:0px;word-spacing:0px;fill:#000000;fill-opacity:1;stroke:none;stroke-width:1px;stroke-linecap:butt;stroke-linejoin:miter;stroke-opacity:1"
       id="flowRoot4186">
      <path
         d="m 233.93852,257.56415 q 0,16.5 -9.79,26.29 -11,11.66 -28.93,11.66 -17.16,0 -29.04,-11.88 -11.88,-11.88 -11.88,-29.26 0,-17.38 11.88,-29.26 11.88,-11.88 29.04,-11.88 8.69,0 16.39,3.08 7.7,3.08 12.65,8.69 l -7.26,7.26 q -3.63,-4.4 -9.46,-6.82 -5.72,-2.53 -12.32,-2.53 -12.87,0 -21.78,8.91 -8.8,9.02 -8.8,22.55 0,13.53 8.8,22.55 8.91,8.91 21.78,8.91 11.77,0 19.58,-6.6 7.81,-6.6 9.02,-18.15 l -28.6,0 0,-9.46 38.17,0 q 0.55,3.08 0.55,5.94 z"
         style="font-style:normal;font-variant:normal;font-weight:normal;font-stretch:normal;font-size:110px;line-height:100%;font-family:'Product Sans';-inkscape-font-specification:'Product Sans';fill:#ffffff;fill-opacity:1"
         id="path5903" />
      <path
         d="m 246.23445,293.75415 0,-78.76 24.09,0 q 18.04,0 28.93,10.89 11,10.89 11,28.49 0,17.71 -11,28.6 -10.89,10.78 -28.93,10.78 l -24.09,0 z m 10.12,-69.08 0,59.4 13.97,0 q 13.75,0 21.67,-7.81 7.92,-7.92 7.92,-21.89 0,-13.86 -7.92,-21.78 -7.92,-7.92 -21.67,-7.92 l -13.97,0 z"
         style="font-style:normal;font-variant:normal;font-weight:normal;font-stretch:normal;font-size:110px;line-height:100%;font-family:'Product Sans';-inkscape-font-specification:'Product Sans';fill:#ffffff;fill-opacity:1"
         id="path5905" />
      <path
         d="m 398.07914,257.56415 q 0,16.5 -9.79,26.29 -11,11.66 -28.93,11.66 -17.16,0 -29.04,-11.88 -11.88,-11.88 -11.88,-29.26 0,-17.38 11.88,-29.26 11.88,-11.88 29.04,-11.88 8.69,0 16.39,3.08 7.7,3.08 12.65,8.69 l -7.26,7.26 q -3.63,-4.4 -9.46,-6.82 -5.72,-2.53 -12.32,-2.53 -12.87,0 -21.78,8.91 -8.8,9.02 -8.8,22.55 0,13.53 8.8,22.55 8.91,8.91 21.78,8.91 11.77,0 19.58,-6.6 7.81,-6.6 9.02,-18.15 l -28.6,0 0,-9.46 38.17,0 q 0.55,3.08 0.55,5.94 z"
         style="font-style:normal;font-variant:normal;font-weight:normal;font-stretch:normal;font-size:110px;line-height:100%;font-family:'Product Sans';-inkscape-font-specification:'Product Sans';fill:#ffffff;fill-opacity:1"
         id="path5907" />
      <path
         d="m 434.65242,293.75415 0,-78.76 24.09,0 q 18.04,0 28.93,10.89 11,10.89 11,28.49 0,17.71 -11,28.6 -10.89,10.78 -28.93,10.78 l -24.09,0 z m 10.12,-69.08 0,59.4 13.97,0 q 13.75,0 21.67,-7.81 7.92,-7.92 7.92,-21.89 0,-13.86 -7.92,-21.78 -7.92,-7.92 -21.67,-7.92 l -13.97,0 z"
         style="font-style:normal;font-variant:normal;font-weight:normal;font-stretch:normal;font-size:110px;line-height:100%;font-family:'Product Sans';-inkscape-font-specification:'Product Sans';fill:#ffffff;fill-opacity:1"
         id="path5909" />
      <path
         d="m 531.42836,295.51415 q -11.88,0 -19.58,-8.14 -7.7,-8.14 -7.7,-20.57 0,-12.32 7.48,-20.46 7.48,-8.25 19.14,-8.25 11.99,0 19.03,7.81 7.15,7.7 7.15,21.67 l -0.11,1.1 -42.35,0 q 0.22,7.92 5.28,12.76 5.06,4.84 12.1,4.84 9.68,0 15.18,-9.68 l 9.02,4.4 q -3.63,6.82 -10.12,10.67 -6.38,3.85 -14.52,3.85 z m -16.17,-35.2 30.91,0 q -0.44,-5.61 -4.62,-9.24 -4.07,-3.74 -11,-3.74 -5.72,0 -9.9,3.52 -4.07,3.52 -5.39,9.46 z"
         style="font-style:normal;font-variant:normal;font-weight:normal;font-stretch:normal;font-size:110px;line-height:100%;font-family:'Product Sans';-inkscape-font-specification:'Product Sans';fill:#ffffff;fill-opacity:1"
         id="path5911" />
      <path
         d="m 591.20133,293.75415 -10.12,0 -21.78,-53.9 11,0 15.84,41.8 0.22,0 16.06,-41.8 10.78,0 -22,53.9 z"
         style="font-style:normal;font-variant:normal;font-weight:normal;font-stretch:normal;font-size:110px;line-height:100%;font-family:'Product Sans';-inkscape-font-specification:'Product Sans';fill:#ffffff;fill-opacity:1"
         id="path5913" />
      <path
         d="m 631.68648,259.98415 0,33.77 -10.12,0 0,-78.76 45.98,0 0,9.68 -35.86,0 0,25.85 32.34,0 0,9.46 -32.34,0 z"
         style="font-style:normal;font-variant:normal;font-weight:normal;font-stretch:normal;font-size:110px;line-height:100%;font-family:'Product Sans';-inkscape-font-specification:'Product Sans';fill:#ffffff;fill-opacity:1"
         id="path5915" />
      <path
         d="m 698.14711,295.51415 q -11.88,0 -19.58,-8.14 -7.7,-8.14 -7.7,-20.57 0,-12.32 7.48,-20.46 7.48,-8.25 19.14,-8.25 11.99,0 19.03,7.81 7.15,7.7 7.15,21.67 l -0.11,1.1 -42.35,0 q 0.22,7.92 5.28,12.76 5.06,4.84 12.1,4.84 9.68,0 15.18,-9.68 l 9.02,4.4 q -3.63,6.82 -10.12,10.67 -6.38,3.85 -14.52,3.85 z m -16.17,-35.2 30.91,0 q -0.44,-5.61 -4.62,-9.24 -4.07,-3.74 -11,-3.74 -5.72,0 -9.9,3.52 -4.07,3.52 -5.39,9.46 z"
         style="font-style:normal;font-variant:normal;font-weight:normal;font-stretch:normal;font-size:110px;line-height:100%;font-family:'Product Sans';-inkscape-font-specification:'Product Sans';fill:#ffffff;fill-opacity:1"
         id="path5917" />
      <path
         d="m 774.70883,278.79415 q 0,7.04 -6.16,11.88 -6.16,4.84 -15.51,4.84 -8.14,0 -14.3,-4.18 -6.16,-4.29 -8.8,-11.22 l 9.02,-3.85 q 1.98,4.84 5.72,7.59 3.85,2.64 8.36,2.64 4.84,0 8.03,-2.09 3.3,-2.09 3.3,-4.95 0,-5.17 -7.92,-7.59 l -9.24,-2.31 q -15.73,-3.96 -15.73,-15.18 0,-7.37 5.94,-11.77 6.05,-4.51 15.4,-4.51 7.15,0 12.87,3.41 5.83,3.41 8.14,9.13 l -9.02,3.74 q -1.54,-3.41 -5.06,-5.28 -3.41,-1.98 -7.7,-1.98 -3.96,0 -7.15,1.98 -3.08,1.98 -3.08,4.84 0,4.62 8.69,6.6 l 8.14,2.09 q 16.06,3.96 16.06,16.17 z"
         style="font-style:normal;font-variant:normal;font-weight:normal;font-stretch:normal;font-size:110px;line-height:100%;font-family:'Product Sans';-inkscape-font-specification:'Product Sans';fill:#ffffff;fill-opacity:1"
         id="path5919" />
      <path
         d="m 803.99805,294.63415 q -6.6,0 -11,-4.07 -4.29,-4.07 -4.4,-11.33 l 0,-30.14 -9.46,0 0,-9.24 9.46,0 0,-16.5 10.12,0 0,16.5 13.2,0 0,9.24 -13.2,0 0,26.84 q 0,5.39 2.09,7.37 2.09,1.87 4.73,1.87 1.21,0 2.31,-0.22 1.21,-0.33 2.2,-0.77 l 3.19,9.02 q -3.96,1.43 -9.24,1.43 z"
         style="font-style:normal;font-variant:normal;font-weight:normal;font-stretch:normal;font-size:110px;line-height:100%;font-family:'Product Sans';-inkscape-font-specification:'Product Sans';fill:#ffffff;fill-opacity:1"
         id="path5921" />
      <path
         d="m 168.26852,371.85415 0,31.9 -10.12,0 0,-78.76 26.84,0 q 10.23,0 17.38,6.82 7.26,6.82 7.26,16.61 0,10.01 -7.26,16.72 -7.04,6.71 -17.38,6.71 l -16.72,0 z m 0,-37.18 0,27.5 16.94,0 q 6.05,0 10.01,-4.07 4.07,-4.07 4.07,-9.68 0,-5.5 -4.07,-9.57 -3.96,-4.18 -10.01,-4.18 l -16.94,0 z"
         style="font-style:normal;font-variant:normal;font-weight:normal;font-stretch:normal;font-size:110px;line-height:100%;font-family:'Product Sans';-inkscape-font-specification:'Product Sans';fill:#ffffff;fill-opacity:1"
         id="path5923" />
      <path
         d="m 231.56836,331.26415 q 0,2.97 -2.09,5.06 -2.09,2.09 -5.06,2.09 -2.97,0 -5.06,-2.09 -2.09,-2.09 -2.09,-5.06 0,-2.97 2.09,-5.06 2.09,-2.09 5.06,-2.09 2.97,0 5.06,2.09 2.09,2.09 2.09,5.06 z m -2.09,18.59 0,53.9 -10.12,0 0,-53.9 10.12,0 z"
         style="font-style:normal;font-variant:normal;font-weight:normal;font-stretch:normal;font-size:110px;line-height:100%;font-family:'Product Sans';-inkscape-font-specification:'Product Sans';fill:#ffffff;fill-opacity:1"
         id="path5925" />
      <path
         d="m 284.0057,388.79415 q 0,7.04 -6.16,11.88 -6.16,4.84 -15.51,4.84 -8.14,0 -14.3,-4.18 -6.16,-4.29 -8.8,-11.22 l 9.02,-3.85 q 1.98,4.84 5.72,7.59 3.85,2.64 8.36,2.64 4.84,0 8.03,-2.09 3.3,-2.09 3.3,-4.95 0,-5.17 -7.92,-7.59 l -9.24,-2.31 q -15.73,-3.96 -15.73,-15.18 0,-7.37 5.94,-11.77 6.05,-4.51 15.4,-4.51 7.15,0 12.87,3.41 5.83,3.41 8.14,9.13 l -9.02,3.74 q -1.54,-3.41 -5.06,-5.28 -3.41,-1.98 -7.7,-1.98 -3.96,0 -7.15,1.98 -3.08,1.98 -3.08,4.84 0,4.62 8.69,6.6 l 8.14,2.09 q 16.06,3.96 16.06,16.17 z"
         style="font-style:normal;font-variant:normal;font-weight:normal;font-stretch:normal;font-size:110px;line-height:100%;font-family:'Product Sans';-inkscape-font-specification:'Product Sans';fill:#ffffff;fill-opacity:1"
         id="path5927" />
      <path
         d="m 300.61398,387.25415 q 0,3.96 3.3,6.6 3.41,2.64 7.92,2.64 6.38,0 11.33,-4.73 5.06,-4.73 5.06,-11.11 -4.73,-3.74 -13.2,-3.74 -6.16,0 -10.34,2.97 -4.07,2.97 -4.07,7.37 z m 13.09,-39.16 q 11.22,0 17.71,6.05 6.49,5.94 6.49,16.39 l 0,33.22 -9.68,0 0,-7.48 -0.44,0 q -6.27,9.24 -16.72,9.24 -8.91,0 -14.96,-5.28 -5.94,-5.28 -5.94,-13.2 0,-8.36 6.27,-13.31 6.38,-4.95 16.94,-4.95 9.02,0 14.85,3.3 l 0,-2.31 q 0,-5.28 -4.18,-8.91 -4.18,-3.74 -9.79,-3.74 -8.47,0 -13.42,7.15 l -8.91,-5.61 q 7.37,-10.56 21.78,-10.56 z"
         style="font-style:normal;font-variant:normal;font-weight:normal;font-stretch:normal;font-size:110px;line-height:100%;font-family:'Product Sans';-inkscape-font-specification:'Product Sans';fill:#ffffff;fill-opacity:1"
         id="path5929" />
      <path
         d="m 372.27555,366.13415 q 0,-17.16 8.47,-28.27 8.47,-11.11 21.78,-11.11 13.31,0 21.78,11.22 8.47,11.11 8.47,28.16 0,16.94 -8.47,28.27 -8.47,11.11 -21.78,11.11 -13.31,0 -21.78,-11.11 -8.47,-11.33 -8.47,-28.27 z m 50.16,0 q 0,-12.98 -5.5,-21.34 -5.39,-8.36 -14.41,-8.36 -9.02,0 -14.41,8.36 -5.5,8.36 -5.5,21.34 0,12.98 5.5,21.45 5.39,8.25 14.41,8.25 9.02,0 14.41,-8.36 5.5,-8.47 5.5,-21.34 z"
         style="font-style:normal;font-variant:normal;font-weight:normal;font-stretch:normal;font-size:110px;line-height:100%;font-family:'Product Sans';-inkscape-font-specification:'Product Sans';fill:#ffffff;fill-opacity:1"
         id="path5931" />
      <path
         d="m 458.1443,396.93415 q 0,3.08 -2.2,5.28 -2.09,2.2 -5.28,2.2 -3.08,0 -5.28,-2.2 -2.2,-2.2 -2.2,-5.28 0,-3.19 2.2,-5.28 2.2,-2.2 5.28,-2.2 3.19,0 5.28,2.2 2.2,2.09 2.2,5.28 z"
         style="font-style:normal;font-variant:normal;font-weight:normal;font-stretch:normal;font-size:110px;line-height:100%;font-family:'Product Sans';-inkscape-font-specification:'Product Sans';fill:#ffffff;fill-opacity:1"
         id="path5933" />
      <path
         d="m 492.38867,328.51415 0,75.24 -10.12,0 0,-62.7 -14.63,6.38 -3.85,-8.58 22.11,-10.34 6.49,0 z"
         style="font-style:normal;font-variant:normal;font-weight:normal;font-stretch:normal;font-size:110px;line-height:100%;font-family:'Product Sans';-inkscape-font-specification:'Product Sans';fill:#ffffff;fill-opacity:1"
         id="path5935" />
    </g>
  </g>
  <g
     inkscape:groupmode="layer"
     id="layer1"
     inkscape:label="Layer 1" />
</svg>
